<svg id="Layer_1" data-name="Layer 1" xmlns="http://www.w3.org/2000/svg" xmlns:xlink="http://www.w3.org/1999/xlink" viewBox="0 0 1366 768"><defs><style>.cls-1{fill:none;}.cls-2{clip-path:url(#clip-path);}.cls-3{fill:url(#linear-gradient);}.cls-4{fill:#818182;}.cls-5{fill:#7b8faf;}.cls-6{fill:#5b606b;}.cls-7{fill:#343947;}.cls-8{fill:url(#linear-gradient-2);}.cls-9{fill:url(#linear-gradient-3);}.cls-10{fill:url(#linear-gradient-4);}.cls-11{fill:#3f4551;}.cls-12{fill:#292d35;}.cls-13{fill:url(#linear-gradient-5);}.cls-14{fill:url(#linear-gradient-6);}.cls-15{fill:url(#linear-gradient-7);}.cls-16{fill:url(#linear-gradient-8);}.cls-17{fill:url(#linear-gradient-9);}.cls-18{fill:url(#linear-gradient-10);}.cls-19{fill:url(#linear-gradient-11);}.cls-20{fill:url(#linear-gradient-12);}.cls-21{fill:url(#linear-gradient-13);}.cls-22{fill:url(#linear-gradient-14);}.cls-23{fill:url(#linear-gradient-15);}.cls-24{fill:url(#linear-gradient-16);}.cls-25{fill:url(#linear-gradient-17);}.cls-26{fill:url(#linear-gradient-18);}.cls-27{fill:url(#linear-gradient-19);}.cls-28{fill:url(#linear-gradient-20);}.cls-29{fill:url(#linear-gradient-21);}.cls-30{fill:url(#linear-gradient-22);}.cls-31{fill:url(#linear-gradient-23);}.cls-32{fill:url(#linear-gradient-24);}.cls-33{fill:url(#linear-gradient-25);}.cls-34{fill:url(#linear-gradient-26);}.cls-35{fill:url(#linear-gradient-27);}.cls-36{fill:url(#linear-gradient-28);}.cls-37{fill:url(#linear-gradient-29);}.cls-38{fill:url(#linear-gradient-30);}.cls-39{fill:url(#linear-gradient-31);}.cls-40{fill:url(#linear-gradient-32);}.cls-41{fill:url(#linear-gradient-33);}.cls-42{fill:url(#linear-gradient-34);}.cls-43{fill:url(#linear-gradient-35);}.cls-44{fill:url(#linear-gradient-36);}.cls-45{fill:url(#linear-gradient-37);}.cls-46{fill:url(#linear-gradient-38);}.cls-47{fill:url(#linear-gradient-39);}.cls-48{fill:url(#linear-gradient-40);}.cls-49{fill:url(#linear-gradient-41);}.cls-50{fill:url(#linear-gradient-42);}.cls-51{fill:url(#linear-gradient-43);}.cls-52{fill:url(#linear-gradient-44);}.cls-53{fill:url(#linear-gradient-45);}.cls-54{fill:url(#linear-gradient-46);}.cls-55{fill:url(#linear-gradient-47);}.cls-56{fill:url(#linear-gradient-48);}.cls-57{fill:url(#linear-gradient-49);}.cls-58{fill:url(#linear-gradient-50);}.cls-59{fill:url(#linear-gradient-51);}.cls-60{fill:url(#linear-gradient-52);}.cls-61{fill:url(#linear-gradient-53);}.cls-62{fill:url(#linear-gradient-54);}.cls-63{fill:url(#linear-gradient-55);}.cls-64{fill:url(#linear-gradient-56);}.cls-65{fill:url(#linear-gradient-57);}</style><clipPath id="clip-path"><rect class="cls-1" width="1367" height="766"/></clipPath><linearGradient id="linear-gradient" x1="683" x2="683" y2="768" gradientUnits="userSpaceOnUse"><stop offset="0" stop-color="#2b5782"/><stop offset="0.53" stop-color="#5e9cad"/><stop offset="1" stop-color="#fff"/></linearGradient><linearGradient id="linear-gradient-2" x1="566.63" y1="746.37" x2="598.19" y2="746.37" gradientUnits="userSpaceOnUse"><stop offset="0" stop-color="#f2f2f2" stop-opacity="0.2"/><stop offset="1" stop-color="#fff" stop-opacity="0.4"/></linearGradient><linearGradient id="linear-gradient-3" x1="604.16" y1="746.37" x2="635.72" y2="746.37" xlink:href="#linear-gradient-2"/><linearGradient id="linear-gradient-4" x1="706.52" y1="746.37" x2="738.08" y2="746.37" xlink:href="#linear-gradient-2"/><linearGradient id="linear-gradient-5" x1="14511.75" y1="188.03" x2="14540.08" y2="188.03" gradientTransform="matrix(1, 0, 0, -1, -14302.83, 376.07)" xlink:href="#linear-gradient-2"/><linearGradient id="linear-gradient-6" x1="14545.44" y1="188.03" x2="14573.77" y2="188.03" gradientTransform="matrix(1, 0, 0, -1, -14370.21, 376.07)" xlink:href="#linear-gradient-2"/><linearGradient id="linear-gradient-7" x1="14590.62" y1="188.03" x2="14618.96" y2="188.03" gradientTransform="matrix(1, 0, 0, -1, -14460.58, 376.07)" xlink:href="#linear-gradient-2"/><linearGradient id="linear-gradient-8" x1="14616.66" y1="230.03" x2="14644.99" y2="230.03" gradientTransform="matrix(1, 0, 0, -1, -14512.65, 460.06)" xlink:href="#linear-gradient-2"/><linearGradient id="linear-gradient-9" x1="14579.9" y1="266.15" x2="14608.23" y2="266.15" gradientTransform="matrix(1, 0, 0, -1, -14439.14, 532.29)" xlink:href="#linear-gradient-2"/><linearGradient id="linear-gradient-10" x1="14545.44" y1="230.03" x2="14573.77" y2="230.03" gradientTransform="matrix(1, 0, 0, -1, -14370.21, 460.06)" xlink:href="#linear-gradient-2"/><linearGradient id="linear-gradient-11" x1="14545.44" y1="303.1" x2="14573.77" y2="303.1" gradientTransform="matrix(1, 0, 0, -1, -14370.21, 606.21)" xlink:href="#linear-gradient-2"/><linearGradient id="linear-gradient-12" x1="14616.66" y1="266.15" x2="14644.99" y2="266.15" gradientTransform="matrix(1, 0, 0, -1, -14512.65, 532.29)" xlink:href="#linear-gradient-2"/><linearGradient id="linear-gradient-13" x1="14649.59" y1="297.22" x2="14677.92" y2="297.22" gradientTransform="matrix(1, 0, 0, -1, -14578.51, 594.45)" xlink:href="#linear-gradient-2"/><linearGradient id="linear-gradient-14" x1="14637.33" y1="188.03" x2="14665.67" y2="188.03" gradientTransform="matrix(1, 0, 0, -1, -14554, 376.07)" xlink:href="#linear-gradient-2"/><linearGradient id="linear-gradient-15" x1="14671.03" y1="188.03" x2="14699.36" y2="188.03" gradientTransform="matrix(1, 0, 0, -1, -14621.39, 376.07)" xlink:href="#linear-gradient-2"/><linearGradient id="linear-gradient-16" x1="14508.68" y1="334.18" x2="14537.02" y2="334.18" gradientTransform="matrix(1, 0, 0, -1, -14296.7, 668.36)" xlink:href="#linear-gradient-2"/><linearGradient id="linear-gradient-17" x1="14587.56" y1="334.18" x2="14615.89" y2="334.18" gradientTransform="matrix(1, 0, 0, -1, -14454.45, 668.36)" xlink:href="#linear-gradient-2"/><linearGradient id="linear-gradient-18" x1="14613.6" y1="376.18" x2="14641.93" y2="376.18" gradientTransform="matrix(1, 0, 0, -1, -14506.52, 752.35)" xlink:href="#linear-gradient-2"/><linearGradient id="linear-gradient-19" x1="14623.55" y1="334.18" x2="14651.88" y2="334.18" gradientTransform="matrix(1, 0, 0, -1, -14526.43, 668.36)" xlink:href="#linear-gradient-2"/><linearGradient id="linear-gradient-20" x1="14615.13" y1="460.17" x2="14643.46" y2="460.17" gradientTransform="matrix(1, 0, 0, -1, -14509.59, 920.34)" xlink:href="#linear-gradient-2"/><linearGradient id="linear-gradient-21" x1="14578.37" y1="496.29" x2="14606.7" y2="496.29" gradientTransform="matrix(1, 0, 0, -1, -14436.07, 992.57)" xlink:href="#linear-gradient-2"/><linearGradient id="linear-gradient-22" x1="14543.91" y1="533.24" x2="14572.24" y2="533.24" gradientTransform="matrix(1, 0, 0, -1, -14367.15, 1066.49)" xlink:href="#linear-gradient-2"/><linearGradient id="linear-gradient-23" x1="14615.13" y1="496.29" x2="14643.46" y2="496.29" gradientTransform="matrix(1, 0, 0, -1, -14509.59, 992.57)" xlink:href="#linear-gradient-2"/><linearGradient id="linear-gradient-24" x1="14648.06" y1="527.36" x2="14676.39" y2="527.36" gradientTransform="matrix(1, 0, 0, -1, -14575.45, 1054.73)" xlink:href="#linear-gradient-2"/><linearGradient id="linear-gradient-25" x1="14669.5" y1="418.17" x2="14697.83" y2="418.17" gradientTransform="matrix(1, 0, 0, -1, -14618.33, 836.35)" xlink:href="#linear-gradient-2"/><linearGradient id="linear-gradient-26" x1="14507.15" y1="564.32" x2="14535.49" y2="564.32" gradientTransform="matrix(1, 0, 0, -1, -14293.64, 1128.64)" xlink:href="#linear-gradient-2"/><linearGradient id="linear-gradient-27" x1="14586.03" y1="564.32" x2="14614.36" y2="564.32" gradientTransform="matrix(1, 0, 0, -1, -14451.39, 1128.64)" xlink:href="#linear-gradient-2"/><linearGradient id="linear-gradient-28" x1="14612.06" y1="606.32" x2="14640.4" y2="606.32" gradientTransform="matrix(1, 0, 0, -1, -14503.46, 1212.63)" xlink:href="#linear-gradient-2"/><linearGradient id="linear-gradient-29" x1="14542.38" y1="376.18" x2="14570.71" y2="376.18" gradientTransform="matrix(1, 0, 0, -1, -14364.09, 752.35)" xlink:href="#linear-gradient-2"/><linearGradient id="linear-gradient-30" x1="14542.38" y1="449.25" x2="14570.71" y2="449.25" gradientTransform="matrix(1, 0, 0, -1, -14364.09, 898.5)" xlink:href="#linear-gradient-2"/><linearGradient id="linear-gradient-31" x1="14613.6" y1="412.29" x2="14641.93" y2="412.29" gradientTransform="matrix(1, 0, 0, -1, -14506.52, 824.59)" xlink:href="#linear-gradient-2"/><linearGradient id="linear-gradient-32" x1="14667.97" y1="334.18" x2="14696.3" y2="334.18" gradientTransform="matrix(1, 0, 0, -1, -14615.27, 668.36)" xlink:href="#linear-gradient-2"/><linearGradient id="linear-gradient-33" x1="1209.63" y1="243.37" x2="1241.19" y2="243.37" xlink:href="#linear-gradient-2"/><linearGradient id="linear-gradient-34" x1="1247.16" y1="243.37" x2="1278.72" y2="243.37" xlink:href="#linear-gradient-2"/><linearGradient id="linear-gradient-35" x1="1297.48" y1="243.37" x2="1329.04" y2="243.37" xlink:href="#linear-gradient-2"/><linearGradient id="linear-gradient-36" x1="1326.49" y1="286.02" x2="1358.05" y2="286.02" xlink:href="#linear-gradient-2"/><linearGradient id="linear-gradient-37" x1="1285.54" y1="322.7" x2="1317.1" y2="322.7" xlink:href="#linear-gradient-2"/><linearGradient id="linear-gradient-38" x1="1247.16" y1="286.02" x2="1278.72" y2="286.02" xlink:href="#linear-gradient-2"/><linearGradient id="linear-gradient-39" x1="1247.16" y1="360.23" x2="1278.72" y2="360.23" xlink:href="#linear-gradient-2"/><linearGradient id="linear-gradient-40" x1="1326.49" y1="322.7" x2="1358.05" y2="322.7" xlink:href="#linear-gradient-2"/><linearGradient id="linear-gradient-41" x1="1363.16" y1="354.26" x2="1394.72" y2="354.26" xlink:href="#linear-gradient-2"/><linearGradient id="linear-gradient-42" x1="1349.52" y1="243.37" x2="1381.08" y2="243.37" xlink:href="#linear-gradient-2"/><linearGradient id="linear-gradient-43" x1="1206.22" y1="391.79" x2="1237.78" y2="391.79" xlink:href="#linear-gradient-2"/><linearGradient id="linear-gradient-44" x1="1294.07" y1="391.79" x2="1325.63" y2="391.79" xlink:href="#linear-gradient-2"/><linearGradient id="linear-gradient-45" x1="1323.07" y1="434.44" x2="1354.63" y2="434.44" xlink:href="#linear-gradient-2"/><linearGradient id="linear-gradient-46" x1="1334.16" y1="391.79" x2="1365.72" y2="391.79" xlink:href="#linear-gradient-2"/><linearGradient id="linear-gradient-47" x1="1324.78" y1="519.73" x2="1356.34" y2="519.73" xlink:href="#linear-gradient-2"/><linearGradient id="linear-gradient-48" x1="1283.84" y1="556.41" x2="1315.4" y2="556.41" xlink:href="#linear-gradient-2"/><linearGradient id="linear-gradient-49" x1="1245.45" y1="593.94" x2="1277.01" y2="593.94" xlink:href="#linear-gradient-2"/><linearGradient id="linear-gradient-50" x1="1324.78" y1="556.41" x2="1356.34" y2="556.41" xlink:href="#linear-gradient-2"/><linearGradient id="linear-gradient-51" x1="1361.46" y1="587.97" x2="1393.02" y2="587.97" xlink:href="#linear-gradient-2"/><linearGradient id="linear-gradient-52" x1="1204.51" y1="625.5" x2="1236.07" y2="625.5" xlink:href="#linear-gradient-2"/><linearGradient id="linear-gradient-53" x1="1292.37" y1="625.5" x2="1323.93" y2="625.5" xlink:href="#linear-gradient-2"/><linearGradient id="linear-gradient-54" x1="1321.37" y1="668.15" x2="1352.93" y2="668.15" xlink:href="#linear-gradient-2"/><linearGradient id="linear-gradient-55" x1="1243.75" y1="434.44" x2="1275.31" y2="434.44" xlink:href="#linear-gradient-2"/><linearGradient id="linear-gradient-56" x1="1243.75" y1="508.65" x2="1275.31" y2="508.65" xlink:href="#linear-gradient-2"/><linearGradient id="linear-gradient-57" x1="1323.07" y1="471.11" x2="1354.63" y2="471.11" xlink:href="#linear-gradient-2"/></defs><g class="cls-2"><rect class="cls-3" width="1366" height="768"/><rect class="cls-4" x="246" y="462" width="837" height="386"/><rect class="cls-5" x="395.88" y="255.19" width="80.65" height="24.88"/><rect class="cls-5" x="402.88" y="236.33" width="66.64" height="23.68"/><rect class="cls-5" x="410.74" y="216.26" width="50.94" height="23.68"/><rect class="cls-5" x="434.51" y="140" width="3.4" height="99.94"/><polyline class="cls-5" points="421.28 217.46 436.2 162.88 450.4 217.46"/><rect class="cls-5" x="184.24" y="326.56" width="131.23" height="358.73"/><rect class="cls-5" x="107.29" y="371.12" width="131.23" height="358.73"/><rect class="cls-5" x="90.58" y="326.56" width="56.67" height="358.73"/><rect class="cls-5" x="39.88" y="354.76" width="56.67" height="358.73"/><rect class="cls-5" x="-15" y="263.39" width="56.67" height="358.73"/><rect class="cls-5" x="699.63" y="425.27" width="131.23" height="358.73"/><rect class="cls-5" x="312.49" y="371.12" width="87.69" height="366.07"/><rect class="cls-5" x="787.31" y="373.94" width="87.69" height="366.07"/><rect class="cls-5" x="864.86" y="260" width="87.69" height="366.07"/><rect class="cls-5" x="896.48" y="323.17" width="87.69" height="366.07"/><rect class="cls-5" x="1113.61" y="254.93" width="87.69" height="366.07"/><rect class="cls-5" x="1198.31" y="340.66" width="87.69" height="366.07"/><rect class="cls-5" x="982.97" y="292.72" width="67.41" height="366.07"/><rect class="cls-5" x="1047.99" y="216.01" width="67.41" height="366.07"/><rect class="cls-5" x="721.7" y="317.53" width="87.69" height="366.07"/><rect class="cls-5" x="396" y="269.03" width="80.53" height="366.07"/><rect class="cls-5" x="400.17" y="329.38" width="131.23" height="358.73"/><rect class="cls-5" x="528.43" y="373.94" width="87.69" height="366.07"/><rect class="cls-5" x="611.94" y="271.85" width="87.69" height="366.07"/><rect class="cls-6" x="603.11" y="437.89" width="218.78" height="601" transform="translate(-25.89 1450.89) rotate(-90)"/><rect class="cls-6" x="595.67" y="468.23" width="127.33" height="373.77"/><rect class="cls-6" x="508.67" y="439.23" width="127.33" height="373.77"/><rect class="cls-6" x="398.67" y="380.23" width="127.33" height="373.77"/><rect class="cls-6" x="348.67" y="436.23" width="127.33" height="373.77"/><rect class="cls-6" x="230.67" y="281.23" width="127.33" height="373.77"/><rect class="cls-6" x="154.67" y="319.23" width="127.33" height="373.77"/><rect class="cls-6" x="90.67" y="338.23" width="127.33" height="373.77"/><rect class="cls-6" x="-23.33" y="396.23" width="127.33" height="373.77"/><rect class="cls-6" x="705.67" y="398.23" width="127.33" height="373.77"/><rect class="cls-6" x="773.67" y="467.23" width="127.33" height="373.77"/><rect class="cls-6" x="826.67" y="439.23" width="127.33" height="373.77"/><rect class="cls-6" x="873.67" y="200" width="127.33" height="493"/><rect class="cls-6" x="993.67" y="523" width="127.33" height="493"/><rect class="cls-6" x="1025.67" y="418" width="127.33" height="493"/><rect class="cls-6" x="1116.67" y="354" width="127.33" height="493"/><rect class="cls-6" x="1142.67" y="327" width="127.33" height="493"/><rect class="cls-7" x="558.67" y="702" width="224.33" height="676"/><rect class="cls-8" x="566.63" y="730.59" width="31.56" height="31.56"/><rect class="cls-9" x="604.16" y="730.59" width="31.56" height="31.56"/><rect class="cls-10" x="706.52" y="730.59" width="31.56" height="31.56"/><polygon class="cls-11" points="783 702 558 702 600.75 659 740.25 659 783 702"/><polygon class="cls-12" points="244 810 276 810 275.81 177.77 244 142.87 244 810"/><rect class="cls-7" x="43" y="144.34" width="201.4" height="665.66" transform="translate(287.4 954.34) rotate(180)"/><rect class="cls-13" x="208.92" y="172.49" width="28.33" height="31.08" transform="translate(446.17 376.07) rotate(180)"/><rect class="cls-14" x="175.23" y="172.49" width="28.33" height="31.08" transform="translate(378.79 376.07) rotate(180)"/><rect class="cls-15" x="130.04" y="172.49" width="28.33" height="31.08" transform="translate(288.42 376.07) rotate(180)"/><rect class="cls-16" x="104.01" y="214.49" width="28.33" height="31.08" transform="translate(236.35 460.06) rotate(180)"/><rect class="cls-17" x="140.77" y="250.61" width="28.33" height="31.08" transform="translate(309.86 532.29) rotate(180)"/><rect class="cls-18" x="175.23" y="214.49" width="28.33" height="31.08" transform="translate(378.79 460.06) rotate(180)"/><rect class="cls-19" x="175.23" y="287.56" width="28.33" height="31.08" transform="translate(378.79 606.21) rotate(180)"/><rect class="cls-20" x="104.01" y="250.61" width="28.33" height="31.08" transform="translate(236.35 532.29) rotate(180)"/><rect class="cls-21" x="71.08" y="281.68" width="28.33" height="31.08" transform="translate(170.49 594.45) rotate(180)"/><rect class="cls-22" x="83.33" y="172.49" width="28.33" height="31.08" transform="translate(195 376.07) rotate(180)"/><rect class="cls-23" x="49.64" y="172.49" width="28.33" height="31.08" transform="translate(127.61 376.07) rotate(180)"/><rect class="cls-24" x="211.98" y="318.64" width="28.33" height="31.08" transform="translate(452.3 668.36) rotate(180)"/><rect class="cls-25" x="133.11" y="318.64" width="28.33" height="31.08" transform="translate(294.55 668.36) rotate(180)"/><rect class="cls-26" x="107.07" y="360.64" width="28.33" height="31.08" transform="translate(242.48 752.35) rotate(180)"/><rect class="cls-27" x="97.12" y="318.64" width="28.33" height="31.08" transform="translate(222.56 668.36) rotate(180)"/><rect class="cls-28" x="105.54" y="444.63" width="28.33" height="31.08" transform="translate(239.41 920.34) rotate(180)"/><rect class="cls-29" x="142.3" y="480.75" width="28.33" height="31.08" transform="translate(312.93 992.57) rotate(180)"/><rect class="cls-30" x="176.76" y="517.7" width="28.33" height="31.08" transform="translate(381.85 1066.49) rotate(180)"/><rect class="cls-31" x="105.54" y="480.75" width="28.33" height="31.08" transform="translate(239.41 992.57) rotate(180)"/><rect class="cls-32" x="72.61" y="511.83" width="28.33" height="31.08" transform="translate(173.55 1054.73) rotate(180)"/><rect class="cls-33" x="51.17" y="402.63" width="28.33" height="31.08" transform="translate(130.67 836.35) rotate(180)"/><rect class="cls-34" x="213.51" y="548.78" width="28.33" height="31.08" transform="translate(455.36 1128.64) rotate(180)"/><rect class="cls-35" x="134.64" y="548.78" width="28.33" height="31.08" transform="translate(297.61 1128.64) rotate(180)"/><rect class="cls-36" x="108.6" y="590.78" width="28.33" height="31.08" transform="translate(245.54 1212.63) rotate(180)"/><rect class="cls-37" x="178.29" y="360.64" width="28.33" height="31.08" transform="translate(384.91 752.35) rotate(180)"/><rect class="cls-38" x="178.29" y="433.71" width="28.33" height="31.08" transform="translate(384.91 898.5) rotate(180)"/><rect class="cls-39" x="107.07" y="396.76" width="28.33" height="31.08" transform="translate(242.48 824.59) rotate(180)"/><rect class="cls-40" x="52.7" y="318.64" width="28.33" height="31.08" transform="translate(133.73 668.36) rotate(180)"/><polygon class="cls-12" points="1233 479 1217 479 1217.1 162.88 1233 145.43 1233 479"/><polygon class="cls-12" points="1247 274 1239 274 1239.05 114.79 1247 106 1247 274"/><polygon class="cls-12" points="1263 231 1255 231 1255.05 71.79 1263 63 1263 231"/><rect class="cls-7" x="1201.67" y="216.5" width="224.33" height="658.5"/><rect class="cls-7" x="1232.8" y="186.65" width="162.07" height="40.94"/><rect class="cls-7" x="1232.8" y="145.7" width="162.07" height="52.88"/><rect class="cls-7" x="1246.87" y="105.61" width="133.92" height="50.33"/><rect class="cls-7" x="1262.65" y="62.96" width="102.36" height="50.33"/><rect class="cls-7" x="1310.42" y="-99.1" width="6.82" height="212.39"/><polyline class="cls-7" points="1283.84 65.52 1313.83 -50.48 1342.37 65.52"/><rect class="cls-41" x="1209.63" y="227.59" width="31.56" height="31.56"/><rect class="cls-42" x="1247.16" y="227.59" width="31.56" height="31.56"/><rect class="cls-43" x="1297.48" y="227.59" width="31.56" height="31.56"/><rect class="cls-44" x="1326.49" y="270.24" width="31.56" height="31.56"/><rect class="cls-45" x="1285.54" y="306.92" width="31.56" height="31.56"/><rect class="cls-46" x="1247.16" y="270.24" width="31.56" height="31.56"/><rect class="cls-47" x="1247.16" y="344.45" width="31.56" height="31.56"/><rect class="cls-48" x="1326.49" y="306.92" width="31.56" height="31.56"/><rect class="cls-49" x="1363.16" y="338.48" width="31.56" height="31.56"/><rect class="cls-50" x="1349.52" y="227.59" width="31.56" height="31.56"/><rect class="cls-51" x="1206.22" y="376.01" width="31.56" height="31.56"/><rect class="cls-52" x="1294.07" y="376.01" width="31.56" height="31.56"/><rect class="cls-53" x="1323.07" y="418.66" width="31.56" height="31.56"/><rect class="cls-54" x="1334.16" y="376.01" width="31.56" height="31.56"/><rect class="cls-55" x="1324.78" y="503.95" width="31.56" height="31.56"/><rect class="cls-56" x="1283.84" y="540.63" width="31.56" height="31.56"/><rect class="cls-57" x="1245.45" y="578.16" width="31.56" height="31.56"/><rect class="cls-58" x="1324.78" y="540.63" width="31.56" height="31.56"/><rect class="cls-59" x="1361.46" y="572.19" width="31.56" height="31.56"/><rect class="cls-60" x="1204.51" y="609.72" width="31.56" height="31.56"/><rect class="cls-61" x="1292.37" y="609.72" width="31.56" height="31.56"/><rect class="cls-62" x="1321.37" y="652.37" width="31.56" height="31.56"/><rect class="cls-63" x="1243.75" y="418.66" width="31.56" height="31.56"/><rect class="cls-64" x="1243.75" y="492.87" width="31.56" height="31.56"/><rect class="cls-65" x="1323.07" y="455.33" width="31.56" height="31.56"/><polygon class="cls-12" points="1202 884 1170 884 1170.19 251.77 1202 216.87 1202 884"/></g></svg>