<svg xmlns="http://www.w3.org/2000/svg" xmlns:xlink="http://www.w3.org/1999/xlink" viewBox="0 0 801.08119 519.95362"><defs><style>.a{fill:none;}.b{fill:url(#a);}.c{clip-path:url(#b);}.d{fill:url(#c);}.e{fill:url(#d);}.f{fill:url(#e);}.g{fill:url(#f);}.h{fill:url(#g);}.i{fill:url(#h);}.j{fill:url(#i);}.k{fill:url(#j);}.l{fill:url(#k);}.m{fill:url(#l);}.n{clip-path:url(#m);}.o{fill:url(#n);}.p{fill:url(#o);}.q{fill:url(#p);}.r{fill:url(#q);}.s{fill:url(#r);}.t{fill:url(#s);}.u{fill:url(#t);}.v{fill:url(#u);}.w{fill:url(#v);}.x{fill:url(#w);}.y{fill:url(#x);}.z{fill:url(#y);}.aa{fill:url(#z);}.ab{fill:url(#aa);}.ac{fill:url(#ab);}.ad{fill:url(#ac);}.ae{fill:url(#ad);}.af{fill:url(#ae);}.ag{fill:url(#af);}.ah{fill:url(#ag);}.ai{fill:url(#ah);}.aj{fill:url(#ai);}.ak{fill:url(#aj);}.al{fill:url(#ak);}.am{fill:url(#al);}.an{fill:url(#am);}.ao{fill:url(#an);}.ap{fill:url(#ao);}.aq{fill:url(#ap);}.ar{fill:url(#aq);}.as{fill:#cfca2e;}</style><linearGradient id="a" x1="403.7" y1="500" x2="403.7" gradientUnits="userSpaceOnUse"><stop offset="0" stop-color="#f5fcff"/><stop offset="0.70112" stop-color="#9cd9ff"/><stop offset="1" stop-color="#99d8ff"/></linearGradient><clipPath id="b" transform="translate(28.7)"><rect class="a" width="750" height="500"/></clipPath><linearGradient id="c" x1="647.28207" y1="285.36461" x2="636.87046" y2="357.91031" gradientUnits="userSpaceOnUse"><stop offset="0" stop-color="#bdbd21"/><stop offset="1" stop-color="#4a833e"/></linearGradient><linearGradient id="d" x1="642.19714" y1="452.18159" x2="402.02887" y2="414.45583" gradientUnits="userSpaceOnUse"><stop offset="0" stop-color="#bdbd21"/><stop offset="1" stop-color="#7bb233"/></linearGradient><linearGradient id="e" x1="74.2493" y1="368.92545" x2="384.49582" y2="368.92545" gradientUnits="userSpaceOnUse"><stop offset="0" stop-color="#bdbd21"/><stop offset="1" stop-color="#e4d96f" stop-opacity="0.1"/></linearGradient><linearGradient id="f" x1="689.98314" y1="273.61143" x2="690.48311" y2="369.61152" gradientUnits="userSpaceOnUse"><stop offset="0" stop-color="#274f3e"/><stop offset="1" stop-color="#4a833e"/></linearGradient><linearGradient id="g" x1="651.42148" y1="299.07236" x2="661.92987" y2="398.42412" xlink:href="#f"/><linearGradient id="h" x1="689.98315" y1="273.61143" x2="690.48313" y2="369.61152" gradientTransform="matrix(-1, 0, 0, 1, 760, 0)" gradientUnits="userSpaceOnUse"><stop offset="0" stop-color="#7bb233"/><stop offset="1" stop-color="#e4d96f" stop-opacity="0.1"/></linearGradient><linearGradient id="i" x1="110.0909" y1="289.98405" x2="102.59092" y2="356.98401" gradientUnits="userSpaceOnUse"><stop offset="0" stop-color="#6a702f"/><stop offset="1" stop-color="#4a833e"/></linearGradient><linearGradient id="j" x1="650.77828" y1="348.19601" x2="650.79867" y2="348.38883" xlink:href="#f"/><linearGradient id="k" x1="652.193" y1="346.66839" x2="652.37948" y2="348.43148" xlink:href="#f"/><linearGradient id="l" x1="0" y1="418.5" x2="750.00028" y2="418.5" xlink:href="#c"/><clipPath id="m" transform="translate(28.7)"><path class="a" d="M749.78908,360.6063s-80.95579-27.9396-233.54889,43.8663c0,0-112.2149,34.24-184.8339,13.1524-10.89469-3.1637-23.02409-6.9181-36.21879-10.875C220.4317,384.3318,111.4833,352.1245,0,337L.1728,500H749.99988Z"/></clipPath><linearGradient id="n" x1="518.20303" y1="452.04914" x2="387.43269" y2="599.46313" gradientTransform="matrix(1, 0, 0, 1, 0, 0)" xlink:href="#h"/><linearGradient id="o" x1="466.14106" y1="406.38242" x2="335.56492" y2="553.57749" gradientTransform="matrix(1, 0, 0, 1, 0, 0)" xlink:href="#h"/><linearGradient id="p" x1="427.10807" y1="372.06625" x2="296.41233" y2="519.39614" gradientTransform="matrix(1, 0, 0, 1, 0, 0)" xlink:href="#h"/><linearGradient id="q" x1="392.56721" y1="341.79208" x2="261.8562" y2="489.13917" gradientTransform="matrix(1, 0, 0, 1, 0, 0)" xlink:href="#h"/><linearGradient id="r" x1="337.05776" y1="293.23935" x2="206.32769" y2="440.60795" gradientTransform="matrix(1, 0, 0, 1, 0, 0)" xlink:href="#h"/><linearGradient id="s" x1="280.68921" y1="244.27521" x2="150.11617" y2="391.46679" gradientTransform="matrix(1, 0, 0, 1, 0, 0)" xlink:href="#h"/><linearGradient id="t" x1="244.63807" y1="213.16055" x2="114.13729" y2="360.27068" gradientTransform="matrix(1, 0, 0, 1, 0, 0)" xlink:href="#h"/><linearGradient id="u" x1="-0.00012" y1="438.64981" x2="749.99538" y2="438.64981" xlink:href="#i"/><linearGradient id="v" x1="287.48481" y1="446.67106" x2="277.48484" y2="488.00441" xlink:href="#f"/><linearGradient id="w" x1="534.67171" y1="423.5228" x2="560.67164" y2="513.02271" gradientUnits="userSpaceOnUse"><stop offset="0" stop-color="#bdbd21" stop-opacity="0.3"/><stop offset="1" stop-color="#4a833e"/></linearGradient><linearGradient id="x" x1="29.2199" y1="409.88628" x2="27.21991" y2="468.55296" xlink:href="#f"/><linearGradient id="y" x1="212.08595" y1="524.06894" x2="212.08595" y2="448.25734" xlink:href="#f"/><linearGradient id="z" x1="109.18561" y1="436.47363" x2="109.18561" y2="506.69346" xlink:href="#f"/><linearGradient id="aa" x1="690.48674" y1="436.47365" x2="690.48674" y2="506.69335" xlink:href="#f"/><linearGradient id="ab" x1="95.38528" y1="436.47361" x2="95.38528" y2="506.69321" xlink:href="#f"/><linearGradient id="ac" x1="24.2777" y1="436.47361" x2="24.2777" y2="506.69321" xlink:href="#f"/><linearGradient id="ad" x1="41.925" y1="436.47364" x2="41.925" y2="506.69349" xlink:href="#f"/><linearGradient id="ae" x1="660.85589" y1="436.47361" x2="660.85589" y2="506.69321" xlink:href="#f"/><linearGradient id="af" x1="643.20859" y1="436.47364" x2="643.20859" y2="506.69349" xlink:href="#f"/><linearGradient id="ag" x1="716.63531" y1="436.47364" x2="716.63531" y2="506.69337" xlink:href="#f"/><linearGradient id="ah" x1="724.49183" y1="436.34992" x2="724.49183" y2="506.02463" xlink:href="#f"/><linearGradient id="ai" x1="713.26524" y1="436.47361" x2="713.26524" y2="506.69337" xlink:href="#f"/><linearGradient id="aj" x1="170.25159" y1="436.47365" x2="170.25159" y2="506.69335" xlink:href="#f"/><linearGradient id="ak" x1="144.10301" y1="436.47364" x2="144.10301" y2="506.69337" xlink:href="#f"/><linearGradient id="al" x1="136.24649" y1="436.47364" x2="136.24649" y2="506.69337" xlink:href="#f"/><linearGradient id="am" x1="77.58242" y1="436.47363" x2="77.58242" y2="506.69337" xlink:href="#f"/><linearGradient id="an" x1="147.47305" y1="436.47361" x2="147.47305" y2="506.69337" xlink:href="#f"/><linearGradient id="ao" x1="626.31648" y1="436.4737" x2="626.31648" y2="506.69329" xlink:href="#f"/><linearGradient id="ap" x1="598.65042" y1="436.47367" x2="598.65042" y2="506.69317" xlink:href="#f"/><linearGradient id="aq" x1="566.84346" y1="436.4736" x2="566.84346" y2="506.69343" xlink:href="#f"/></defs><rect class="b" x="28.70231" width="749.99538" height="500"/><g class="c"><path class="d" d="M534.75379,342.9742a13.1828,13.1828,0,0,1,11.7138-3.1433,4.717,4.717,0,1,1,7.9672-5.0053,39.42227,39.42227,0,0,1,11.5664,1.7947,7.599,7.599,0,0,1,7.8392-5.2647q.78945-2.21385,1.5787-4.4275c2.3032,1.0951,4.712,2.2143,7.2618,2.1674s5.2658-1.6493,5.6863-4.1647l5.499,1.3068a4.77143,4.77143,0,0,1,7.1116-5.9771,6.10279,6.10279,0,0,1,.9125-4.4541c1.8791-1.0093,2.8594,3.0575,4.9844,3.2417,1.3467.1167,2.1834-1.3581,2.9095-2.4983s2.3956-2.166,3.2834-1.1467c-.7918-2.9186-.3739-7.4458,2.6412-7.2135-2.1201-2.6959-.2567-7.1772,3.0007-8.2507,3.2573-1.0735,6.9682.7314,8.8977,3.5668a4.72735,4.72735,0,0,1,8.638,3.8388c2.3573-.4427,5.5207-.4577,6.3236,1.8024.4559,1.2832-.1056,2.9134.7911,3.9383,1.38311,1.5808,4.1875-.251,6.0368.7452,1.4114.7603,1.6795,2.8733,3.1277,3.5611,1.3953.6626,3.1045-.4991,3.5999-1.9621a8.30912,8.30912,0,0,0-.2241-4.5635c1.2932,1.393,3.82381.0449,4.322-1.7894s-.2185-3.7459-.5824-5.6115c-.36379-1.8656-.188-4.1593,1.4315-5.1542,2.9313-1.8008,7.809,2.1746,9.7471-.6678.7554-1.1078.40361-2.602.6501-3.92.6174-3.3017,5.0189-4.6486,8.1241-3.3676,3.1051,1.2809,5.14441,4.2282,7.0052,7.0246,1.9994-.7177,2.9843-2.9597,3.43521-5.0356s.63279-4.3152,1.88859-6.0285c1.4906-2.0336,3.0045-1.3678,4.988-1.2848,2.0031.0838,3.7487-1.0502,6.03041-.6946,1.95849.3052,4.36059.5355,5.53179-1.0635.9196-1.2554.5644-3.0396,1.1525-4.4804.7984-1.9557,3.0594-2.7929,5.0775-3.4169a12.98608,12.98608,0,0,1,.3166-4.1639,4.39547,4.39547,0,0,1,2.6678-3.022,6.25488,6.25488,0,0,0,1.91681-.6162,3.43715,3.43715,0,0,0,.87168-1.1796c1.67532-3.0381,4.2499-5.7538,7.5705-6.7592s7.3999.111,9.1143,3.1272a20.41866,20.41866,0,0,1,6.6224-3.5604,9.29867,9.29867,0,0,1,6.67812.7853c2.01058,1.1071,3.59828,3.3758,4.68768,5.3601a7.0836,7.0836,0,0,1,.812,3.6552c-.04468,1.2607-1.293,2.6914-1.293,3.6645v59.5399c-4.8851-.3852-9.7665.4601-14.66668.4601H650.94949c.5172,1.9164-1.7584,3.2453-3.6368,3.8872a346.97466,346.97466,0,0,1-74.5939,16.8952,293.549,293.549,0,0,1-38.5799,1.6825c-4.3156-.1015-11.8202,1.4811-10.2296-4.9021C525.03819,345.6988,530.04539,341.9047,534.75379,342.9742Z" transform="translate(28.7)"/><path class="e" d="M749.99988,500l-.3363-179.6326c-1.2907.1593-7.0424.3027-28.68-.2072-34.25669-.7966-177.65679,35.8501-240.59349,32.6634-62.9366-3.1867-61.3433-38.24-165.70669-44.6134-14.5471-.8922-31.1656.462-48.9791,3.4735-61.2158,10.277-136.62831,39.897-191.455,64.1157C30.608,395.0947,0,410.9803,0,410.9803V500Z" transform="translate(28.7)"/><path class="f" d="M381.52379,417.2898c-2.374,2.5812-5.8157,3.8241-9.1776,4.8119-21.3029,6.1662-44.1831,4.6525-65.85249-.1115-21.6693-4.7481-42.4942-12.6352-63.6855-19.2156A549.23123,549.23123,0,0,0,93.1941,378.1894c-6.3893-.1593-12.9379-.223-18.9448-2.39,54.82669-24.2187,130.2392-53.8387,191.4551-64.1157a293.31882,293.31882,0,0,1,38.7817,4.2223c23.23079,4.2383,46.07919,12.3165,65.10369,26.2741,4.3338,3.1708,8.9066,8.1897,6.9788,13.1928-1.2748,3.2982-4.89159,4.9712-8.23759,6.1184a89.42143,89.42143,0,0,1-50.8433,1.9279c-21.8606-5.6404-42.5739-19.6936-64.9443-16.7459-2.2625.2868-4.78.956-5.8953,2.9477-1.211,2.1828-.0797,5.0668,1.8801,6.6124,1.9439,1.5614,4.4932,2.0872,6.947,2.5652,39.4191,7.4727,81.7698,9.0182,115.30959,31.0541,4.6844,3.0751,9.27321,6.692,11.87021,11.6791C385.23629,406.503,385.316,413.1631,381.52379,417.2898Z" transform="translate(28.7)"/><path class="g" d="M759.11438,338.4759a8.95545,8.95545,0,0,0,3.8451-.0012,18.757,18.757,0,0,1-2.7838-5.7667,17.60178,17.60178,0,0,0,9.9775-.3302,32.87907,32.87907,0,0,1-17.4309-13.4362,12.84462,12.84462,0,0,0,9.8174,1.6415,23.56281,23.56281,0,0,1-13.466-10.6471q1.9488-.2811,3.8978-.5622-1.7274-2.9853-3.4551-5.9707a8.47382,8.47382,0,0,0,6.19162-.4104,44.04328,44.04328,0,0,1-18.13322-30.9466c.0824,15.1249-6.662,30.4714-17.5043,41.0169a21.80456,21.80456,0,0,0,12.5102-2.8038,24.27213,24.27213,0,0,1-9.2853,13.9733q1.52655-.1287,3.0532-.2574a24.32311,24.32311,0,0,1-6.5642,3.8552,15.0029,15.0029,0,0,0,9.33362.3667,36.22075,36.22075,0,0,1-13.28941,17.2066,26.252,26.252,0,0,0,7.977-.9091,19.45747,19.45747,0,0,1-5.10949,8.0562.53482.53482,0,0,1,.60379.0305c.6373,2.2884-3.87959,1.9852-5.24519,1.6068a7.11879,7.11879,0,0,1-4.8886-4.4162,11.1345,11.1345,0,0,0,7.9065-.6136c-5.65559-1.6393-8.026-8.1935-9.5771-13.8738a18.31122,18.31122,0,0,0,13.55339-.0933,4.668,4.668,0,0,1-3.42288-1.1428q1.57394-.2154,3.14768-.4308a13.93768,13.93768,0,0,1-7.78489-9.1581q1.5852-.231,3.1704-.4621-2.25555-3.0867-4.5108-6.1736,2.0196.0786,4.0394.1571a35.92536,35.92536,0,0,1-8.6576-16.5203q2.9658-.2541,5.9312-.5082a110.99839,110.99839,0,0,1-17.6403-21.3243,59.63369,59.63369,0,0,1-7.6174,23.3772q3.001-.7569,6.002-1.5138A39.229,39.229,0,0,1,679.843,323.3935a4.59279,4.59279,0,0,0,3.88729-.6974q-1.791,1.8039-3.5819,3.6078a31.17236,31.17236,0,0,0,9.2201-.3149,28.1124,28.1124,0,0,1-11.628,17.025,9.61,9.61,0,0,0,5.653-.3188,5.42567,5.42567,0,0,1-1.5609,3.9178,3.9792,3.9792,0,0,0,2.3879-.131,21.00882,21.00882,0,0,1-19.2232,12.631,27.1092,27.1092,0,0,0,10.1205-7.2257,11.07146,11.07146,0,0,1-8.3933-2.7938,32.83437,32.83437,0,0,1-5.8046-6.98,16.68342,16.68342,0,0,0,5.8869.4422,25.65647,25.65647,0,0,1-9.4193-13.1215,10.37177,10.37177,0,0,1-5.0809,10.9833c1.543-2.0024-.4124-4.7657-2.2502-6.5017q1.99335-.0342,3.987-.0685a11.40414,11.40414,0,0,1-4.4192-6.0355,9.75812,9.75812,0,0,0,5.2089-.2926c-6.9022-7.1683-10.4575-16.8297-13.83109-26.1916a31.38216,31.38216,0,0,1-11.68321,29.6159,29.2183,29.2183,0,0,0,5.2544-.1251c-1.8886,7.2178-7.41419,12.8257-12.7225,18.0682a19.22774,19.22774,0,0,0,9.7216-3.4081,14.02825,14.02825,0,0,1-4.1797,3.8225q1.27-.09585,2.53941-.1915a22.23756,22.23756,0,0,1-9.64421,5.5593,26.39607,26.39607,0,0,0,12.737-1.0459,25.3916,25.3916,0,0,1-13.8482,16.6676,13.74422,13.74422,0,0,0,6.98841-.117,22.5705,22.5705,0,0,1-17.57271,8.8868l.6601,6.0659c.4141-.0612.82761-.1378,1.215-.1795q3.68295-.3972,7.3653-.8016l140.626-15.3033c1.1598-.1262,12.2714-2.3535,12.9656-1.411q-2.76765-3.75855-5.5357-7.5171a20.58547,20.58547,0,0,0,6.4926,1.6395A37.23353,37.23353,0,0,1,759.11438,338.4759Z" transform="translate(28.7)"/><path class="h" d="M736.26,381.91q2.76,3.765,5.53,7.52c-.69-.94-11.8,1.29-12.96,1.41L588.2,406.15c-2.45.26-4.91.53-7.36.8-.39.04-.8.12-1.22.18l-.66-6.07a22.52352,22.52352,0,0,0,17.57-8.89,13.7606,13.7606,0,0,1-6.98.12,25.37665,25.37665,0,0,0,13.84-16.67,26.32912,26.32912,0,0,1-12.73,1.05,22.29189,22.29189,0,0,0,9.64-5.56c-.85.06-1.69.13-2.54.19a13.87871,13.87871,0,0,0,4.18-3.82,19.30413,19.30413,0,0,1-9.72,3.41c5.31-5.25,10.83-10.85,12.72-18.07a28.773,28.773,0,0,1-5.25.12,31.37016,31.37016,0,0,0,11.68-29.61c3.37,9.36,6.93,19.02,13.83,26.19a9.71349,9.71349,0,0,1-5.21.29,11.46777,11.46777,0,0,0,4.42,6.04c-1.33.02-2.66.04-3.98.07,1.83,1.73,3.79,4.5,2.25,6.5a10.38092,10.38092,0,0,0,5.08-10.99,25.58913,25.58913,0,0,0,9.42,13.13,16.68819,16.68819,0,0,1-5.89-.45,32.55051,32.55051,0,0,0,5.8,6.98,12.68062,12.68062,0,0,0,1.76,1.24l4.12-7.68a13.45883,13.45883,0,0,1-2.43-.59c1.15-.39,2.3-.82,3.43-1.28q2.235-.885,4.4-1.94c-.92.01-1.85.02-2.77.03a14.82861,14.82861,0,0,0,5.91-6.02,15.585,15.585,0,0,1-3.75.86,16.08025,16.08025,0,0,1-6.43-.61,23.68483,23.68483,0,0,0,7.47-4.44,14.39807,14.39807,0,0,0,1.99-2.33c.08-.1.15-.2.22-.3a20.04111,20.04111,0,0,0,1.98-2.06c.48-.56.89-1.05,1.05-1.21a5.2167,5.2167,0,0,0-.67.49l.05-.09a4.49467,4.49467,0,0,1-3.13.22c1.74-1.9,4.07-2.94,5.35-5.32a18.80709,18.80709,0,0,1-7.21-.11,29.40719,29.40719,0,0,0,14.06-12.87,14.76819,14.76819,0,0,1-9.94-.46,17.86515,17.86515,0,0,0,7.17-5.43,27.04821,27.04821,0,0,1-7.63,1.28,30.98871,30.98871,0,0,0,9.07-9.28c2.34-3.7,3.08-7.54,4.52-11.54,1.12,1.11,1.35,2.89,2.18,4.22a18.65844,18.65844,0,0,0,3.7,4.32,18.01106,18.01106,0,0,0,10.05,4.34,11.79812,11.79812,0,0,1-3.84-.24,5.35,5.35,0,0,0,1.77,2.25,7.937,7.937,0,0,1-4.02.16,20.23538,20.23538,0,0,0,3.07,4.37,6.84027,6.84027,0,0,0,4.74,2.17,11.46584,11.46584,0,0,1-5.22,1.11,10.21848,10.21848,0,0,0,3.98,5.44,26.06034,26.06034,0,0,0,6.12,3.09,8.82632,8.82632,0,0,1-6.76,2.11c.03,0,3.15,4.22,3.32,4.52-.79.55-1.73.32-2.65.37a73.921,73.921,0,0,0,4.41,6.12c-1.06.15-2.12.31-3.17.46a13.9348,13.9348,0,0,0,7.78,9.16c-1.05.14-2.1.28-3.14.43a4.64424,4.64424,0,0,0,3.42,1.14,18.314,18.314,0,0,1-13.56.09c1.56,5.68,3.93,12.24,9.58,13.88a11.12,11.12,0,0,1-7.9.61,7.1207,7.1207,0,0,0,4.88,4.42c1.37.38,5.89.68,5.25-1.61-.15-.1-.45-.18-.6-.03a19.40741,19.40741,0,0,0,5.1-8.06,26.1569,26.1569,0,0,1-7.97.91,36.2369,36.2369,0,0,0,13.29-17.2,15.06874,15.06874,0,0,1-9.34-.37,24.49352,24.49352,0,0,0,6.57-3.85c-1.02.08-2.04.17-3.06.25a24.22461,24.22461,0,0,0,9.29-13.97c-.23.99-4.8,2.04-5.69,2.26-1.97.47-4.58,1-6.54.46,4.61-2.72,8.76-4.72,11.98-9.29a9.301,9.301,0,0,1-7.37.7,10.13655,10.13655,0,0,0,2.34-1.08c-.64-.51-1.27-1.03-1.91-1.54a14.83154,14.83154,0,0,0,6.5-6.09,28.41066,28.41066,0,0,0,2.7-9.04c.9-5.14,1.68-10.31,2.36-15.48,0,.82,1.34,2.96,1.57,3.81.43,1.59.65,3.22.95,4.84a21.6645,21.6645,0,0,0,3.15,8.34c3.63,5.76,7.45,10.86,13.09,14.84a8.40293,8.40293,0,0,1-6.19.41l3.45,5.97-3.9.57a23.56976,23.56976,0,0,0,13.47,10.64,12.80347,12.80347,0,0,1-9.82-1.64,32.93282,32.93282,0,0,0,17.43,13.44,17.65948,17.65948,0,0,1-9.98.33,18.75264,18.75264,0,0,0,2.79,5.76,9.08611,9.08611,0,0,1-3.85.01,37.25343,37.25343,0,0,0,13.27,23.07A20.265,20.265,0,0,1,736.26,381.91Z" transform="translate(28.7)"/><path class="i" d="M.8856,338.4759a8.95545,8.95545,0,0,1-3.8451-.0012A18.757,18.757,0,0,0-.1757,332.708a17.60178,17.60178,0,0,1-9.9775-.3302A32.87907,32.87907,0,0,0,7.2777,318.9416a12.84462,12.84462,0,0,1-9.8174,1.6415,23.56281,23.56281,0,0,0,13.466-10.6471q-1.9488-.2811-3.8978-.5622,1.7274-2.9853,3.4551-5.9707a8.47376,8.47376,0,0,1-6.1916-.4104,44.04333,44.04333,0,0,0,18.1332-30.9466c-.0824,15.1249,6.662,30.4714,17.5043,41.0169a21.8046,21.8046,0,0,1-12.5102-2.8038,24.27213,24.27213,0,0,0,9.2853,13.9733q-1.52655-.1287-3.0532-.2574a24.32341,24.32341,0,0,0,6.5642,3.8552,15.00284,15.00284,0,0,1-9.3336.3667,36.22054,36.22054,0,0,0,13.2894,17.2066,26.25207,26.25207,0,0,1-7.977-.9091,19.45739,19.45739,0,0,0,5.1095,8.0562.53483.53483,0,0,0-.6038.0305c-.6373,2.2884,3.8796,1.9852,5.2452,1.6068a7.11876,7.11876,0,0,0,4.8886-4.4162,11.1345,11.1345,0,0,1-7.9065-.6136c5.6556-1.6393,8.026-8.1935,9.5771-13.8738a18.31125,18.31125,0,0,1-13.5534-.0933,4.66811,4.66811,0,0,0,3.4229-1.1428q-1.574-.2154-3.1477-.4308a13.93764,13.93764,0,0,0,7.7849-9.1581q-1.5852-.231-3.1704-.4621,2.25555-3.0867,4.5108-6.1736-2.0196.0786-4.0394.1571a35.92536,35.92536,0,0,0,8.6576-16.5203q-2.9658-.2541-5.9312-.5082A110.99839,110.99839,0,0,0,64.6789,279.628a59.63369,59.63369,0,0,0,7.6174,23.3772q-3.00105-.7569-6.002-1.5138A39.22893,39.22893,0,0,0,80.157,323.3935a4.59281,4.59281,0,0,1-3.8873-.6974q1.791,1.8039,3.5819,3.6078a31.17236,31.17236,0,0,1-9.2201-.3149,28.1124,28.1124,0,0,0,11.628,17.025,9.61,9.61,0,0,1-5.653-.3188,5.42567,5.42567,0,0,0,1.5609,3.9178,3.9792,3.9792,0,0,1-2.3879-.131,21.00882,21.00882,0,0,0,19.2232,12.631,27.1092,27.1092,0,0,1-10.1205-7.2257,11.07144,11.07144,0,0,0,8.3933-2.7938,32.83437,32.83437,0,0,0,5.8046-6.98,16.68342,16.68342,0,0,1-5.8869.4422,25.65647,25.65647,0,0,0,9.4193-13.1215,10.37177,10.37177,0,0,0,5.0809,10.9833c-1.543-2.0024.4124-4.7657,2.2502-6.5017q-1.99335-.0342-3.987-.0685a11.40409,11.40409,0,0,0,4.4192-6.0355,9.75813,9.75813,0,0,1-5.2089-.2926c6.9022-7.1683,10.4575-16.8297,13.83106-26.1916a31.3823,31.3823,0,0,0,11.68326,29.6159,29.219,29.219,0,0,1-5.25447-.1251c1.88863,7.2178,7.41425,12.8257,12.72255,18.0682a19.22764,19.22764,0,0,1-9.72156-3.4081,14.028,14.028,0,0,0,4.17964,3.8225q-1.27-.09585-2.53935-.1915a22.237,22.237,0,0,0,9.64417,5.5593,26.39622,26.39622,0,0,1-12.737-1.0459,25.3917,25.3917,0,0,0,13.84823,16.6676,13.744,13.744,0,0,1-6.98835-.117,22.57029,22.57029,0,0,0,17.57265,8.8868l-.6601,6.0659c-.4141-.0612-.8276-.1378-1.215-.1795q-3.683-.3972-7.3653-.8016L1.5413,368.8418c-1.1598-.1262-12.2714-2.3535-12.9656-1.411q2.76765-3.75855,5.5357-7.5171a20.58534,20.58534,0,0,1-6.4926,1.6395A37.23353,37.23353,0,0,0,.8856,338.4759Z" transform="translate(28.7)"/><path class="j" d="M23.74,381.91q-2.76,3.765-5.53,7.52c.69-.94,11.8,1.29,12.96,1.41L171.8,406.15c2.45.26,4.91.53,7.36.8.39.04.8.12,1.22.18l.66-6.07a22.52352,22.52352,0,0,1-17.57-8.89,13.7606,13.7606,0,0,0,6.98.12,25.37665,25.37665,0,0,1-13.84-16.67,26.32912,26.32912,0,0,0,12.73,1.05,22.29189,22.29189,0,0,1-9.64-5.56c.85.06,1.69.13,2.54.19a13.87871,13.87871,0,0,1-4.18-3.82,19.30413,19.30413,0,0,0,9.72,3.41c-5.31-5.25-10.83-10.85-12.72-18.07a28.773,28.773,0,0,0,5.25.12,31.37016,31.37016,0,0,1-11.68-29.61c-3.37,9.36-6.93,19.02-13.83,26.19a9.71353,9.71353,0,0,0,5.21.29,11.46777,11.46777,0,0,1-4.42,6.04c1.33.02,2.66.04,3.98.07-1.83,1.73-3.79,4.5-2.25,6.5a10.381,10.381,0,0,1-5.08-10.99,25.589,25.589,0,0,1-9.42,13.13,16.68836,16.68836,0,0,0,5.89-.45,32.55073,32.55073,0,0,1-5.8,6.98,12.679,12.679,0,0,1-1.76,1.24l-4.12-7.68a13.46036,13.46036,0,0,0,2.43-.59c-1.15-.39-2.3-.82-3.43-1.28q-2.235-.885-4.4-1.94c.92.01,1.85.02,2.77.03a14.82861,14.82861,0,0,1-5.91-6.02,15.585,15.585,0,0,0,3.75.86,16.08016,16.08016,0,0,0,6.43-.61,23.68485,23.68485,0,0,1-7.47-4.44,14.39807,14.39807,0,0,1-1.99-2.33c-.08-.1-.15-.2-.22-.3a20.04111,20.04111,0,0,1-1.98-2.06c-.48-.56-.89-1.05-1.05-1.21a5.2167,5.2167,0,0,1,.67.49l-.05-.09a4.49467,4.49467,0,0,0,3.13.22c-1.74-1.9-4.07-2.94-5.35-5.32a18.80709,18.80709,0,0,0,7.21-.11,29.40719,29.40719,0,0,1-14.06-12.87,14.76819,14.76819,0,0,0,9.94-.46,17.86515,17.86515,0,0,1-7.17-5.43,27.04821,27.04821,0,0,0,7.63,1.28,30.98871,30.98871,0,0,1-9.07-9.28c-2.34-3.7-3.08-7.54-4.52-11.54-1.12,1.11-1.35,2.89-2.18,4.22a18.65844,18.65844,0,0,1-3.7,4.32,18.01106,18.01106,0,0,1-10.05,4.34,11.79812,11.79812,0,0,0,3.84-.24,5.35,5.35,0,0,1-1.77,2.25,7.937,7.937,0,0,0,4.02.16,20.23538,20.23538,0,0,1-3.07,4.37,6.84027,6.84027,0,0,1-4.74,2.17,11.46584,11.46584,0,0,0,5.22,1.11,10.21848,10.21848,0,0,1-3.98,5.44,26.06034,26.06034,0,0,1-6.12,3.09,8.82632,8.82632,0,0,0,6.76,2.11c-.03,0-3.15,4.22-3.32,4.52.79.55,1.73.32,2.65.37A73.921,73.921,0,0,1,73.47,346c1.06.15,2.12.31,3.17.46a13.9348,13.9348,0,0,1-7.78,9.16c1.05.14,2.1.28,3.14.43a4.64424,4.64424,0,0,1-3.42,1.14,18.314,18.314,0,0,0,13.56.09c-1.56,5.68-3.93,12.24-9.58,13.88a11.12,11.12,0,0,0,7.9.61,7.1207,7.1207,0,0,1-4.88,4.42c-1.37.38-5.89.68-5.25-1.61.15-.1.45-.18.6-.03a19.40741,19.40741,0,0,1-5.1-8.06,26.1569,26.1569,0,0,0,7.97.91,36.2369,36.2369,0,0,1-13.29-17.2,15.06874,15.06874,0,0,0,9.34-.37,24.49352,24.49352,0,0,1-6.57-3.85c1.02.08,2.04.17,3.06.25a24.22461,24.22461,0,0,1-9.29-13.97c.23.99,4.8,2.04,5.69,2.26,1.97.47,4.58,1,6.54.46-4.61-2.72-8.76-4.72-11.98-9.29a9.301,9.301,0,0,0,7.37.7,10.13655,10.13655,0,0,1-2.34-1.08c.64-.51,1.27-1.03,1.91-1.54a14.83154,14.83154,0,0,1-6.5-6.09,28.41066,28.41066,0,0,1-2.7-9.04c-.9-5.14-1.68-10.31-2.36-15.48,0,.82-1.34,2.96-1.57,3.81-.43,1.59-.65,3.22-.95,4.84a21.6645,21.6645,0,0,1-3.15,8.34c-3.63,5.76-7.45,10.86-13.09,14.84a8.40293,8.40293,0,0,0,6.19.41l-3.45,5.97,3.9.57a23.56976,23.56976,0,0,1-13.47,10.64,12.80347,12.80347,0,0,0,9.82-1.64,32.93282,32.93282,0,0,1-17.43,13.44,17.65948,17.65948,0,0,0,9.98.33,18.75264,18.75264,0,0,1-2.79,5.76,9.08611,9.08611,0,0,0,3.85.01,37.25343,37.25343,0,0,1-13.27,23.07A20.265,20.265,0,0,0,23.74,381.91Z" transform="translate(28.7)"/><path class="k" d="M651.01,348.03c-.07.1-.14.2-.22.3-.08-.01-.17-.02-.25-.03A.92758.92758,0,0,0,651.01,348.03Z" transform="translate(28.7)"/><path class="l" d="M653.37,345.25l-.38.72a20.04111,20.04111,0,0,1-1.98,2.06A15.97982,15.97982,0,0,1,653.37,345.25Z" transform="translate(28.7)"/><path class="m" d="M750.00028,500l-.2112-139.3937s-81.38549-27.9681-233.54889,43.8663c0,0-113.1267,34.391-185.6234,12.881S124.50608,354.6792,0,337V500Z" transform="translate(28.7)"/><g class="n"><path class="o" d="M598.549,381.4541c-45.053,20.2442-86.567,47.1788-129.69411,71.1055a1072.15652,1072.15652,0,0,1-134.04,62.6697c16.3573,3.8066,33.7833,7.3372,49.6966,2.0255a93.14679,93.14679,0,0,0,14.2172-6.596q109.2339-58.3536,218.468-116.7073c18.5434-9.906,37.1757-19.7689,56.6909-27.745,17.9962-7.3552,40.77941-16.4031,60.62-15.5103-.0537.2884-.1575.9912-.1952,1.287-11.4178.9279-23.08849-.2607-34.62779.8337a264.191,264.191,0,0,0-34.4009,5.6571A361.6652,361.6652,0,0,0,598.549,381.4541Z" transform="translate(28.7)"/><path class="p" d="M430.82759,442.978c-8.47759,4.5865-17.2139,8.6956-25.8357,13.0172a575.49547,575.49547,0,0,0-92.51659,57.9426l7.5642,3.8223c7.20729-9.6024,17.591-16.3674,27.7525-22.9292,14.64119-9.4546,29.33369-18.9379,45.10139-26.4597,8.15461-3.8899,16.567-7.2405,24.7564-11.0597,8.5363-3.981,16.8163-8.4645,25.0906-12.9451q23.07615-12.496,46.1524-24.992,11.8266-6.40425,23.6531-12.8085c5.134-2.7801,19.5023-7.4404,22.4509-12.2695,5.3564-8.7725-15.00579-5.5369-19.2471-3.5315-14.35069,6.7854-27.6935,15.9111-40.8609,24.6273C460.44739,424.9518,446.103,434.7138,430.82759,442.978Z" transform="translate(28.7)"/><path class="q" d="M363.23339,458.6182c-33.8529,12.4119-68.74739,25.5711-94.43909,50.4616-1.2576,1.2183-2.6055,2.5242-4.3461,2.8361a8.7877,8.7877,0,0,1-3.5713-.3531l-16.0001-3.8532c22.2102-24.6497,54.0867-38.7044,85.78939-49.5393,31.7027-10.835,64.6202-19.3333,93.6182-35.9069,2.736-1.5638,24.5517-15.8506,25.8562-7.5599.7126,4.5287-22.1043,15.9081-25.8608,17.9727C404.89559,443.3293,384,451.0042,363.23339,458.6182Z" transform="translate(28.7)"/><path class="r" d="M329.90169,433.6667a342.71337,342.71337,0,0,0-83.98439,33.1274c-17.2732,9.6231-34.1872,21.2587-44.443,37.9214a7.25329,7.25329,0,0,1-2.6785,2.9876,7.11452,7.11452,0,0,1-3.2236.4662q-6.7203-.074-13.4406-.148c3.6583-10.3765,11.3374-18.9093,19.5296-26.4063,20.8219-19.055,45.9736-33.188,72.3892-43.6754,26.4157-10.4874,54.15279-17.4411,82.01809-23.3244,9.2123-1.945,21.3607-5.965,30.83051-4.7197,2.12649.2796,6.823,1.4937,7.52619,4.0041,1.0452,3.731-3.2476,4.0934-6.3329,5.1737C369.19619,425.6898,349.30039,428.8443,329.90169,433.6667Z" transform="translate(28.7)"/><path class="s" d="M258.367,417.7668c-32.1451,6.5016-63.8085,16.057-93.0392,30.6723-29.2306,14.6154-56.0235,34.4266-76.469,59.559q-5.77425-2.6217-11.5485-5.2433c3.1427-8.9858,9.6403-16.4804,16.7404-22.9548,11.753-10.7176,25.42724-19.2033,39.33391-27.073,37.01849-20.9486,76.54429-38.069,118.12679-47.8272,9.0411-2.1217,66.3083-17.5708,68.8208-6.7141C322.8201,408.936,267.0727,416.006,258.367,417.7668Z" transform="translate(28.7)"/><path class="t" d="M82.5702,438.0289A392.33119,392.33119,0,0,0-8.2011,511.9271c-4.5208-4.1555-5.3683-11.1222-3.5445-16.9239,1.8239-5.8016,5.8675-10.6624,10.0705-15.1261,21.0922-22.4002,48.2048-38.6075,76.3666-51.5781,28.1618-12.9705,57.64316-22.9667,86.3067-34.838,23.3029-9.6512,47.1162-20.7654,72.414-20.144,1.9571.0483,3.4768.3181,4.6032,1.8391-5.8412,5.4486-22.2535,7.3226-30.2486,9.8543-10.6221,3.3636-21.1979,6.8699-31.6948,10.592a607.89526,607.89526,0,0,0-61.5508,25.3571C103.6397,426.2209,92.9609,431.8885,82.5702,438.0289Z" transform="translate(28.7)"/><path class="u" d="M125.55271,379.1317A591.70261,591.70261,0,0,0-28.2585,478.9198c-.6811-7.5243-1.1744-15.7726,3.3056-21.9235a31.306,31.306,0,0,1,6.5715-6.1388c49.227-37.5612,106.1137-64.0843,162.4918-90.3038,5.3509-2.4886,11.0326-5.191,17.0728-5.3647,6.4652-.1859,10.6618,2.3484,4.4803,6.6002C154.3916,369.5422,138.1154,373.5201,125.55271,379.1317Z" transform="translate(28.7)"/></g><path class="v" d="M749.99538,500,749.66,379.9131s-35.87-15.61-146.58,29.47c-74.19,30.21-192.95,51.23-305.53,65.44C176.4599,490.1053,62.515,497.5087,18.8132,500Z" transform="translate(28.7)"/><path class="w" d="M248.5,460.5993a2.39952,2.39952,0,0,1,2.6868,1.2116q-.12945-1.4652-.259-2.9303a2.44039,2.44039,0,0,1,1.7359,1.8992,3.58067,3.58067,0,0,0-.6579-1.6051,2.49812,2.49812,0,0,1,1.4822,1.1919q-.4638-1.35555-.9275-2.711a22.7,22.7,0,0,1,3.233,2.1583,14.04156,14.04156,0,0,1-1.0006-6.5302,2.93305,2.93305,0,0,1,1.0394-2.318c1.0289-.657,2.3977.0346,3.2572.9015a8.53809,8.53809,0,0,1,2.3348,4.5366,1.58169,1.58169,0,0,1,.3263-2.0216c.6353-.3977,1.6635.4397,1.2041,1.0319q.705-.32625,1.4099-.6525a2.10925,2.10925,0,0,1,.3849,1.2335,1.54107,1.54107,0,0,1,2.7378.5579q.6411-.0639,1.2824-.1279a5.88156,5.88156,0,0,1,.5944,2.0861,6.8349,6.8349,0,0,1,2.5269-2.3746,2.35089,2.35089,0,0,1,3.0447.8654,3.90922,3.90922,0,0,0-.7877-2.0833,2.347,2.347,0,0,1-.3518-2.1404c.3371-.675,1.6013-.7099,1.6925.039a10.41713,10.41713,0,0,1,.6711-4.8489,3.79455,3.79455,0,0,1,2.147-2.413c1.0654-.3275,2.4628.5257,2.2674,1.623-.0788-3.2153-.0203-6.8035,2.2138-9.1172a7.11115,7.11115,0,0,1,4.0088-1.9985,3.19661,3.19661,0,0,1,1.8369.1419,3.56027,3.56027,0,0,1,1.5976,2.1278,17.125,17.125,0,0,1,.9777,7.9027q.397-.8514.794-1.7027a.869.869,0,0,1,.4386-.5138c.3309-.1094.6447.1997.8334.4927a5.63477,5.63477,0,0,1,.8861,3.2533,3.741,3.741,0,0,1,2.1789-.7801c.7829.0641,1.5344.8887,1.2129,1.6054q.5166-.1623,1.0333-.3245a5.05755,5.05755,0,0,1-.4967,3.5365q.9798-.1791,1.9596-.3581a10.34993,10.34993,0,0,1-.7479,4.8828q.93525-.4626,1.8705-.925a1.89407,1.89407,0,0,1-.7325,2.2342,12.6598,12.6598,0,0,1,4.1442-4.8019.8569.8569,0,0,1,.632-.2129c.2549.0546.4039.3148.5083.5536a7.8518,7.8518,0,0,1,.0496,6.0984,8.41433,8.41433,0,0,1,6.1138-4.0511,7.72144,7.72144,0,0,1-2.4532,6.122,7.28622,7.28622,0,0,1,4.7026-1.0845,7.94329,7.94329,0,0,1-6.9496,8.4955,1.38341,1.38341,0,1,1,.6302,2.6891,1.79741,1.79741,0,0,1,1.0231,2.5756q1.81905-.38325,3.6383-.7663a3.81168,3.81168,0,0,1-.3999,3.3015,3.08272,3.08272,0,0,1,1.8265-.427c.625.1192,1.1655.8335.863,1.3933a1.53645,1.53645,0,0,1-.5408.5026q-1.78455,1.1844-3.569,2.3689a3.70978,3.70978,0,0,1,2.8486,5.3473,4.65419,4.65419,0,0,1-3.5671,2.0129,11.44858,11.44858,0,0,1-4.1833-.5716c-4.5408-1.2836-8.8456-3.2699-13.2437-4.9799-6.9331-2.6956-14.1036-4.7044-21.256-6.7204-3.55-1.0006-7.1006-2.0015-10.6243-3.092-1.7604-.5447-3.5144-1.1104-5.2571-1.7093-1.3173-.4527-3.7856-.8499-4.7201-1.9533C250.082,468.0493,248.603,460.5716,248.5,460.5993Z" transform="translate(28.7)"/><path class="x" d="M747.21948,426.5073a40.30553,40.30553,0,0,0-4.8788-25.2944,37.19991,37.19991,0,0,1,1.9046,15.0242,17.45246,17.45246,0,0,1-4.32028-8.4768,26.60229,26.60229,0,0,0-1.49662,7.7263,25.53454,25.53454,0,0,1-.4706-11.9571,26.90422,26.90422,0,0,0-3.9742,9.8599,17.1006,17.1006,0,0,1,2.3765-15.7097c-5.4955,6.4723-6.3703,15.5595-7.0017,24.0266A56.07112,56.07112,0,0,0,724.74,403.7057a69.09932,69.09932,0,0,1,2.26938,18.4726,78.59474,78.59474,0,0,1-2.182-13.461,94.169,94.169,0,0,0-1.4938,13.4405,29.28035,29.28035,0,0,1-1.1899-14.6624,33.62178,33.62178,0,0,0-5.08168,15.5833c-1.97011-2.347-1.93511-5.7456-1.57761-8.7889a63.70272,63.70272,0,0,1,2.4358-11.4738,17.81385,17.81385,0,0,0-4.7594,8.8016q-.9615-5.7273-1.9229-11.4547a29.01908,29.01908,0,0,1-.663,9.6831,83.812,83.812,0,0,0-5.7967-10.3768,31.527,31.527,0,0,1,3.6191,21.4956,51.74461,51.74461,0,0,1-2.7912-14.0019q-.8802,6.0906-1.7603,12.1814a20.59623,20.59623,0,0,1-.6063-12.4735,20.11143,20.11143,0,0,1-2.4482,6.3956q-.8115-1.7946-1.623-3.5894-.1515,1.9452-.3031,3.8905-1.986-3.9864-3.9718-7.9728a24.645,24.645,0,0,1,1.7343,11.8133q-2.078-2.9382-4.1558-5.8765a18.19021,18.19021,0,0,1,.7229,4.9082,22.499,22.499,0,0,1-2.0363-12.7387,20.74669,20.74669,0,0,0-3.0263,15.3897,43.0372,43.0372,0,0,1-3.5216-7.1459q.31065,2.96775.6211,5.9353-1.05135-1.4793-2.1028-2.9588.0345,1.52175.0689,3.0434a17.12867,17.12867,0,0,1-2.2077-9.1917,30.83236,30.83236,0,0,0-2.4568,8.5729l-6.5022-9.4428a19.807,19.807,0,0,1,2.1812,9.3194,16.2821,16.2821,0,0,0-10.5956-8.6152,17.21359,17.21359,0,0,1,7.29,10.3569,17.96784,17.96784,0,0,0-7.7786-3.5315,12.79672,12.79672,0,0,1,1.1905,4.5054,19.0906,19.0906,0,0,1-4.9671-7.4142q-1.1634,4.274-2.3269,8.5478a20.69,20.69,0,0,1-2.4907-5.6169q-1.3026,2.74425-2.6052,5.4883-.38353-1.3668-.7673-2.7337c.3249.1824.0482.7493-.3242.762a1.31686,1.31686,0,0,1-.9246-.5602q-1.51545-1.66185-3.031-3.3235a11.96468,11.96468,0,0,1,1.4266,5.0818,15.02287,15.02287,0,0,0-7.2405-5.7646,13.83317,13.83317,0,0,1,2.6458,8.8604,35.23818,35.23818,0,0,0-7.7389-7.7075,33.48022,33.48022,0,0,1-1.64359,6.867,8.7896,8.7896,0,0,1-2.32971-3.5486q-.8922,1.7319-1.7844,3.4639a36.003,36.003,0,0,0-4.13-8.7489,22.0329,22.0329,0,0,1,1.1102,9.2784c-2.7209-3.6699-7.1346-5.8358-11.5735-6.9162a83.23681,83.23681,0,0,1,4.0602,8.8322,4.265,4.265,0,0,1-2.4583-1.8193q.0771,1.7883.1541,3.5767a15.45235,15.45235,0,0,1-5.6755-10.2788,45.10457,45.10457,0,0,0,.65991,11.5739c-.53.1536-.96931-.4177-1.20851-.915a19.934,19.934,0,0,1-1.6406-5.0345,40.96586,40.96586,0,0,0,.4944,7.9547,52.84439,52.84439,0,0,0-5.6615-9.9609,37.464,37.464,0,0,1,3.3377,10.8754l-4.5543-5.5548a15.422,15.422,0,0,1,1.9263,6.4923,24.65931,24.65931,0,0,1-2.8574-10.7488,32.06073,32.06073,0,0,0-.0455,10.398q-1.84575-3.0045-3.6915-6.0091a21.898,21.898,0,0,1,1.6952,6.5045q-1.18875-1.30665-2.3776-2.6131a3.49019,3.49019,0,0,1-.1069,3.2644,19.66984,19.66984,0,0,1-1.6155-7.4315,25.03531,25.03531,0,0,0-.342,8.2628,6.36052,6.36052,0,0,1-2.1124-3.1675q.02535,1.7745.0506,3.5489-1.8867-2.84235-3.77349-5.6849a15.2075,15.2075,0,0,1,2.44929,7.0107q-1.3923-1.57995-2.7846-3.1598a5.06916,5.06916,0,0,1-.2653,3.1193,8.60986,8.60986,0,0,1-1.3043-6.4306c-2.2197,1.8501-2.36709,5.1476-2.3366,8.037q-1.037-1.5927-2.074-3.1854a8.25064,8.25064,0,0,1,.7447,3.2902,9.89968,9.89968,0,0,1-1.9639-6.2728c-1.1438,1.0745-1.2448,2.8263-1.2691,4.3954a10.54829,10.54829,0,0,0-2.2817-3.9094c.264,2.375,1.5718,4.5992,1.4742,6.9869a9.28663,9.28663,0,0,0-4.1016-5.0846,4.95316,4.95316,0,0,1,1.4132,2.8601,10.93884,10.93884,0,0,1,.19971,3.3226,14.83906,14.83906,0,0,1-2.26211-3.3855q-.13515,2.50965-.0958,5.0247a10.34469,10.34469,0,0,0-3.3282-4.7079,9.30936,9.30936,0,0,1,1.3513,4.053q-.4386-.5271-.8773-1.0543a1.29221,1.29221,0,0,1,.115.8216c-1.3311-1.4113-1.62189-3.4811-1.8486-5.4078a15.47539,15.47539,0,0,0,.3146,5.8366l-.7015-.715-.0033,1.4726q-1.86314-1.9821-3.7262-3.9642a9.23755,9.23755,0,0,1,2.0855,3.7572,12.80713,12.80713,0,0,1-1.7441-1.5204l.6075,1.3671a14.56844,14.56844,0,0,1-2.30379-5.3772,12.741,12.741,0,0,0,.11669,6.6726,4.6554,4.6554,0,0,1-.8654-.8843q.11385.6441.2278,1.2882-1.4322-2.07615-2.75809-4.223a28.10653,28.10653,0,0,0,.36589,4.6711q-1.68434-1.3179-3.3687-2.6359c1.45681,1.442,3.0175,3.1252,2.9836,5.1748a18.93469,18.93469,0,0,0-3.8687-4.8714,13.25882,13.25882,0,0,1,.7696,4.0576q-.5694-.6309-1.1388-1.2619l-.3534,2.6449a9.54943,9.54943,0,0,1-1.7573-5.8101,14.86341,14.86341,0,0,0-1.0806,5.8304l-.6914-.7754q.19035.951.38081,1.9022a3.63519,3.63519,0,0,0-.77921-.6816q.08055.373.161.7463-.7146-.381-1.4292-.7621.21015.47775.4202.9555a8.82626,8.82626,0,0,1-1.9605-3.4299q.26175,1.63515.5236,3.2703l-.5151-.2951q.16365.7899.32721,1.5798l-.64051-.5499q.0405.2829.0809.566a1.2281,1.2281,0,0,1-.6273-.2934,1.28536,1.28536,0,0,1-.4033.9414,8.58988,8.58988,0,0,1-1.3347-4.8994,7.11882,7.11882,0,0,0-.507,5.5294l-.7645-.7312.1758.975q-.51225-.28935-1.0246-.5787a.72971.72971,0,0,1,.3238.6483,1.9672,1.9672,0,0,1-1.0938-1.7932,6.4542,6.4542,0,0,0-.31379-2.1901,14.00056,14.00056,0,0,0-.18041,3.973q-.3552-.44355-.7104-.8869.11595.4893.232.9788a11.79742,11.79742,0,0,0-5.18519-4.0002,8.216,8.216,0,0,1,3.49959,5.2191,3.89316,3.89316,0,0,1-1.8794-2.1475,12.12209,12.12209,0,0,1,.3971,1.5962,7.185,7.185,0,0,1-1.36529-3.112,34.96506,34.96506,0,0,0-.41071,4.4481,4.5226,4.5226,0,0,1-1.5457-3.1589c-.134-1.198-.0005-2.409-.03959-3.6138a14.8535,14.8535,0,0,0-.97891,6.0712,2.6156,2.6156,0,0,0,.59291,2.0454,7.22,7.22,0,0,1-2.87341-1.7436,12.86942,12.86942,0,0,0-.5777,2.6782l-.5081-.3623a5.758,5.758,0,0,1-.616,1.4965,2.18934,2.18934,0,0,1-.6727-.5457,2.27815,2.27815,0,0,1-.0783.9497,5.61482,5.61482,0,0,1-1.5023-4.5861,14.60962,14.60962,0,0,0-.9922,5.6839,4.25972,4.25972,0,0,1-1.2584-.8045q.14145.7437.283,1.4873l-.59-.1839a3.5228,3.5228,0,0,0-.0902.7166,11.27032,11.27032,0,0,0-2.7398-2.5849,7.17013,7.17013,0,0,1,1.3698,3.9321,32.56346,32.56346,0,0,1-2.726-2.5783,5.893,5.893,0,0,1,.3997,2.0589l-.2066-.2486q-.04155.37335-.0829.7468c-1.3498-1.0573-1.69189-2.9254-1.9388-4.6222a19.99727,19.99727,0,0,0-.6052,5.5322,10.53139,10.53139,0,0,1-1.8805-2.5651,15.22022,15.22022,0,0,0,.8571,3.4839,2.65,2.65,0,0,0-.9067-.7164l.27121.744a10.20436,10.20436,0,0,0-4.43551-3.7607,13.3963,13.3963,0,0,1,3.5528,5.6447,14.50071,14.50071,0,0,1-1.8179-1.585,2.41249,2.41249,0,0,1,.2912,1.0951,11.51851,11.51851,0,0,1-1.7579-3.5887,12.29481,12.29481,0,0,0-.2956,4.479,11.10939,11.10939,0,0,1-2.3275-5.4996,17.8874,17.8874,0,0,0-.0462,6.5021,33.33592,33.33592,0,0,0-5.5328-5.3291c.3425,1.2721,1.5799,2.0822,2.2311,3.2274a7.67928,7.67928,0,0,1,.7491,2.6482,5.99355,5.99355,0,0,0-1.33279-1.8482q.25484.9102.50949,1.8204a2.30641,2.30641,0,0,0-.564-.7732l-.48,1.3172-.428-.3915q-.1428.4302-.28549.8603a6.152,6.152,0,0,1-1.67431-4.9085,9.03214,9.03214,0,0,0-.2174,5.8073q-.9789-1.46985-1.9577-2.9396a12.44064,12.44064,0,0,1,1.2426,4.4733,13.52482,13.52482,0,0,0-3.78919-3.6011,9.16214,9.16214,0,0,1,2.45389,4.2627,5.87538,5.87538,0,0,1-1.8832-1.6223q.1653.64185.3307,1.2837a6.349,6.349,0,0,1-1.21039-4.906,17.48572,17.48572,0,0,0-1.03251,6.0472l-2.2332-1.9344q.0312,1.04505.0623,2.09a7.93952,7.93952,0,0,0-2.815-2.5153,9.21786,9.21786,0,0,1,2.1027,4.2044q-.798-.75975-1.5959-1.5194a2.87139,2.87139,0,0,1,.1034,1.2357,9.29787,9.29787,0,0,1-1.9947-4.0817,11.01974,11.01974,0,0,0,.5873,4.018q-.39375-.1947-.78739-.3895-.00827.66825-.01631,1.3365-.42225-.3717-.8444-.7435.01275.405.0254.8101a13.85257,13.85257,0,0,0-5.1825-3.2945,9.34279,9.34279,0,0,1,3.3025,5.2126l-1.3923-1.4106a2.60272,2.60272,0,0,0,.1064,1.2453q-.48675-.5565-.9734-1.113.1143.59745.2288,1.1948a7.964,7.964,0,0,1-1.5176-6.2887,16.445,16.445,0,0,0-.6052,7.8269q-1.2027-1.9275-2.4053-3.8548a22.77272,22.77272,0,0,1,1.2463,4.3171,13.31718,13.31718,0,0,0-3.5301-3.7074,8.91617,8.91617,0,0,1,1.8019,3.3983l-1.5175-.9532q.0987,1.1604.19731,2.3207-1.70386-2.23395-3.40771-4.468a16.18824,16.18824,0,0,1,1.6662,5.1992,11.31778,11.31778,0,0,1-2.0413-1.5047l.1107,1.4169a3.147,3.147,0,0,0-.7771-.8658q.01605.5733.0319,1.1465c-1.44969-1.1861-1.3751-3.3852-1.172-5.2472a21.58251,21.58251,0,0,0-1.5638,6.8541l-1.0557-1.6635q-.0741.64365-.1483,1.2872-.67483-.8331-1.3498-1.6662.0732.6432.1462,1.2866-1.4241-1.9329-2.84829-3.8658.676,2.84595,1.35209,5.6918-.5289-.4161-1.0578-.832-.23715.6663-.4744,1.3328l-.84989-.8064a1.89887,1.89887,0,0,0-.46261.6742,8.74183,8.74183,0,0,1-.8452-4.1475,16.591,16.591,0,0,0-1.994,5.8172,12.37828,12.37828,0,0,1-1.7726-4.4567q-.30525,2.08275-.6104,4.1654a4.77112,4.77112,0,0,0-.8738-1.0764q.05115.7656.1025,1.5312-1.0746-.7443-2.1493-1.4885a.65354.65354,0,0,0-.185.796,8.14947,8.14947,0,0,1-1.618,2.3151,12.98183,12.98183,0,0,0-1.5224-2.8843,10.15516,10.15516,0,0,1,.3109,3.6998c-1.4233-.985-1.5443-3.0058-1.52409-4.7366a9.20319,9.20319,0,0,0-2.00641,4.5399,6.2658,6.2658,0,0,1-.5882-2.2733q-.25785.8112-.5158,1.6225a10.43553,10.43553,0,0,0-2.06-3.0242,22.80236,22.80236,0,0,1,.0845,4.184q-.2223-.23505-.4446-.47a2.72587,2.72587,0,0,1-.6393.944l-.6463-.6052a12.93071,12.93071,0,0,1,.3414-5.8592,16.68578,16.68578,0,0,0-2.9996,6.3213,15.75411,15.75411,0,0,0-1.1949-1.9769q-.3423.8184-.6845,1.6369-.34694-.348-.6941-.6958a2.36957,2.36957,0,0,1-1.9707,1.3721,14.32122,14.32122,0,0,0-2.1719-3.6613,18.5309,18.5309,0,0,1-.2167,3.8731q-1.3626-1.053-2.7251-2.106-.09945.6582-.199,1.3165-1.01955-.48735-2.0391-.9748-.024.9228-.0478,1.8455a10.48494,10.48494,0,0,0-2.2232-1.664q-.003,1.18065-.0059,2.3613a10.64949,10.64949,0,0,1-.5707-5.9368,15.75344,15.75344,0,0,0-2.1242,6.4638,10.95863,10.95863,0,0,0-1.4213-2.2929q-.29205,1.91865-.5842,3.8371-.56055-.68925-1.1212-1.3786-.13828.62925-.2767,1.2584a9.2015,9.2015,0,0,1-.55449-6.3892,12.29333,12.29333,0,0,0-2.01331,7.0581,11.86233,11.86233,0,0,0-2.7389-4.185,30.53348,30.53348,0,0,1,1.2214,4.7439q-2.10855-2.546-4.21719-5.092a16.09868,16.09868,0,0,0,1.49529,5.7444,4.44713,4.44713,0,0,1-2.391-3.5297,13.11925,13.11925,0,0,1,.3776-4.4172,9.93251,9.93251,0,0,0-2.2235,6.779q-.815-1.98585-1.6298-3.9717-.0162,1.3065-.0323,2.6131l-2.4417-2.3061a18.49307,18.49307,0,0,1,2.15741,5.353,12.20541,12.20541,0,0,0-3.457-3.8353l-.07111,1.5792a15.62585,15.62585,0,0,1-.7392-5.6452,39.124,39.124,0,0,0-2.0638,7.7908q-.88155-1.4973-1.7632-2.9945l.0255,2.0902a9.5374,9.5374,0,0,0-3.4248-3.9142l.2271,4.373a5.62609,5.62609,0,0,1-1.1076-1.3162,10.24844,10.24844,0,0,1-1.0393,3.1288q-.74955-.83415-1.4992-1.6683-.30525.701-.6106,1.4019-.8496-1.58625-1.6993-3.1725a5.68479,5.68479,0,0,1-1.7699,2.7573,10.658,10.658,0,0,1-1.531-2.1402,5.12807,5.12807,0,0,1-.6452,2.0589q-1.43055-2.0625-2.7085-4.2256a12.86319,12.86319,0,0,1-2.6391,5.672q-1.11555-.96975-2.231-1.9394c.09721.6412-.5757,1.1567-1.2159,1.2601s-1.3026-.0418-1.9407.0741a6.23119,6.23119,0,0,0-2.0375,1.0149,10.79347,10.79347,0,0,1-6.6553,1.5224c-6.2417.81-12.5107,1.5336-18.787,2.0052-3.82639.2876-7.732.4632-11.3259,1.8077-.36549.1367-.6713.0787-.7216.4657H749.99538l.0049-73.25Z" transform="translate(28.7)"/><path class="y" d="M7.2322,394.2001a1.80152,1.80152,0,0,1,1.6654-.3085,1.75793,1.75793,0,0,1,.7216,1.0131,14.75991,14.75991,0,0,1,.0825,10.0851,2.25194,2.25194,0,0,1,3.1197-1.0002,3.667,3.667,0,0,1,1.7097,3.1196,10.81427,10.81427,0,0,1-.6942,3.6375,1.17266,1.17266,0,0,1,1.334-.7598,19.71824,19.71824,0,0,1,.085,7.3184,2.52312,2.52312,0,0,1,2.9222,1.4093,7.35354,7.35354,0,0,1,.5301,3.4759,3.24584,3.24584,0,0,1,2.7448-1.0435,1.71016,1.71016,0,0,1,1.3086,2.2754,1.68284,1.68284,0,0,1,3.0221,1.4653l.6405-2.1108a9.48265,9.48265,0,0,1,2.6061,2.7271c-.157-.6652.8531-1.1301,1.4014-.722a1.61878,1.61878,0,0,1,.3421,1.8753,1.10147,1.10147,0,0,1,1.8655,1.1515,6.47615,6.47615,0,0,1,.1101-2.9932,2.21885,2.21885,0,0,1,2.2989-1.5609c1.4182.2721,1.7811,2.1051,1.8316,3.5483q-.69615-3.7032-1.1677-7.4438a.6834.6834,0,0,1,.8766-.9303,12.28087,12.28087,0,0,1,4.0456.9602,4.43744,4.43744,0,0,1,2.5538,3.1047,8.87407,8.87407,0,0,1,1.4573-5.715c.8156-1.2136,2.2596-2.2951,3.6429-1.8215a3.69565,3.69565,0,0,1,1.9868,2.5933,14.58926,14.58926,0,0,1,.4453,6.8815,5.458,5.458,0,0,1,5.5441-2.386,1.89248,1.89248,0,0,1,1.1544.592,2.19405,2.19405,0,0,1,.3128,1.4297,23.86821,23.86821,0,0,1-.8384,5.718,5.11323,5.11323,0,0,1,3.8005-.7971,3.9581,3.9581,0,0,1-.6881,1.8073c.8054-.2211,1.4571.8743,1.1758,1.6607-.6592,1.8436-3.0805,1.6454-4.6293,1.9454q-3.57525.6924-7.1298,1.4862-7.10775,1.5894-14.1159,3.5874a252.63146,252.63146,0,0,0-27.4952,9.583q-4.7094,1.953-9.3372,4.0956c-2.8469-9.2247-2.6917-19.0701-2.5107-28.7223C-3.8377,413.8331-3.0051,400.2205,7.2322,394.2001Z" transform="translate(28.7)"/><path class="z" d="M424.17189,500c-13.2472-.8245-26.0163-2.0297-36.99189-3.7769-22.79-3.62-54.27-11.67-89.63-21.4-42.5-11.69-90.59-25.81-135.83-37.55C78.87,415.7631,0,446.8331,0,446.8331V500Z" transform="translate(28.7)"/><path class="aa" d="M113.3143,500c-3.4246-12.0814-1.4489-36.7249.3036-60.8496-6.1991,19.8756-10.5257,39.9724-8.2491,60.8496Z" transform="translate(28.7)"/><path class="ab" d="M695.522,500c-4.20741-14.4724-1.81731-44.2919.30349-73.4847-7.4858,24.0009-12.70649,48.2692-9.9139,73.4847Z" transform="translate(28.7)"/><path class="ac" d="M96.9111,500h5.8415c-.1253-8.3885-8.4129-20.6413-10.6355-26.5825-2.3119-6.18-1.5027-21.5507-1.5027-21.5507-4.2771,12.7561-2.7743,22.5015.9247,30.1076C94.5803,488.2278,96.3702,497.0558,96.9111,500Z" transform="translate(28.7)"/><path class="ad" d="M9.8016,500c5.0323-25.2451,17.0995-41.8334,38.581-46.8368C10.2106,455.2644,1.4238,493.3185.1728,500Z" transform="translate(28.7)"/><path class="ae" d="M25.6571,500c2.6789-22.2632,19.5934-37.3955,43.653-48.9487C40.082,453.4343,23.6918,472.1211,14.5399,500Z" transform="translate(28.7)"/><path class="af" d="M675.332,500h9.62879c-1.2511-6.6815-10.03779-44.7356-48.20979-46.8368C658.23239,458.1666,670.29959,474.7549,675.332,500Z" transform="translate(28.7)"/><path class="ag" d="M659.47639,500h11.1173c-9.1519-27.8789-25.5422-46.5657-54.7702-48.9487C639.88309,462.6045,656.79749,477.7368,659.47639,500Z" transform="translate(28.7)"/><path class="ah" d="M709.34089,500c-6.4274-28.0503,9.78719-53.8592,28.10719-79.4597C710.81129,441.7532,695.62479,467.6976,695.82449,500Z" transform="translate(28.7)"/><path class="ai" d="M726.85618,500h9.046c2.4832-47.8494-9.417-65.5745-23.15079-79.4597C728.00678,435.5497,727.07528,491.8168,726.85618,500Z" transform="translate(28.7)"/><path class="aj" d="M722.80808,500c-.6496-26.608-8.149-52.2212-19.08569-77.3353,7.2659,26.5818,11.2955,52.4128,11.4087,77.3353Z" transform="translate(28.7)"/><path class="ak" d="M165.2164,500h9.6104c2.7926-25.2155-2.4282-49.4838-9.914-73.4847C167.0336,455.7081,169.4237,485.5276,165.2164,500Z" transform="translate(28.7)"/><path class="al" d="M151.3975,500h13.5163c.1998-32.3024-14.9868-58.2468-41.62352-79.4597C141.6103,446.1408,157.8248,471.9497,151.3975,500Z" transform="translate(28.7)"/><path class="am" d="M133.86273,500c-.21661-8.1832-1.13122-64.4503,14.12417-79.4597C134.25317,434.4255,122.353,452.1506,124.83618,500Z" transform="translate(28.7)"/><path class="an" d="M79.3682,500h6.7255c1.7563-35.2889-7.0676-48.4186-17.2468-58.7102C80.0493,452.3116,79.538,493.0947,79.3682,500Z" transform="translate(28.7)"/><path class="ao" d="M145.6072,500c.1133-24.9225,4.1428-50.7535,11.4087-77.3353C146.0793,447.7788,138.5798,473.392,137.9302,500Z" transform="translate(28.7)"/><path class="ap" d="M625.403,500h8.29069c1.2274-14.5057-3.3041-26.7621-14.949-36.2405C626.11959,476.2691,628.74179,488.3829,625.403,500Z" transform="translate(28.7)"/><path class="aq" d="M603.87779,500c-5.9186-22.6143.2613-57.4186.2613-57.4186-14.2418,25.1605-10.8762,51.9996-10.0006,57.4186Z" transform="translate(28.7)"/><path class="ar" d="M566.55739,500h9.4451c.6747-35.5555-18.3356-45.7342-18.3356-45.7342C569.53609,468.5089,567.18929,494.6171,566.55739,500Z" transform="translate(28.7)"/><path class="as" d="M481.08329,396.7526a.4977.4977,0,0,0,0,.9948A.4977.4977,0,0,0,481.08329,396.7526Z" transform="translate(28.7)"/><path class="as" d="M484.375,396.6693a.4977.4977,0,0,0,0,.9948A.4977.4977,0,0,0,484.375,396.6693Z" transform="translate(28.7)"/><path class="as" d="M484.92529,393.7418a.42117.42117,0,0,0-.419-.1385c-.3349-.3269-.99529.1253-.75429.6425a2.059,2.059,0,0,0,.98229,1.1311.5055.5055,0,0,0,.73071-.5617A2.01076,2.01076,0,0,0,484.92529,393.7418Z" transform="translate(28.7)"/><path class="as" d="M481.88059,393.9416q-.2922-.1026-.5844-.2053c-.60519-.2126-.8654.7481-.2644.9593q.2922.1026.5843.2053C482.22139,395.1135,482.48159,394.1528,481.88059,393.9416Z" transform="translate(28.7)"/><path class="as" d="M482.08589,396.9583V397a.4977.4977,0,0,0,.9948,0v-.0417A.4977.4977,0,0,0,482.08589,396.9583Z" transform="translate(28.7)"/><path class="as" d="M478.5,396.3359a.4977.4977,0,0,0,0,.9948A.4977.4977,0,0,0,478.5,396.3359Z" transform="translate(28.7)"/><path class="as" d="M478.852,399.1602a.78021.78021,0,0,1-.01981-.3267c.0331-.6398-.9618-.638-.9948,0a2.16868,2.16868,0,0,0,.0553.5911C478.02919,400.0498,478.98849,399.7853,478.852,399.1602Z" transform="translate(28.7)"/><path class="as" d="M475.21449,394.1069l-.1248-.0425c-.6073-.2069-.868.7537-.2644.9593l.12471.0425C475.55729,395.273,475.81809,394.3125,475.21449,394.1069Z" transform="translate(28.7)"/><path class="as" d="M478.625,393.7526a.4977.4977,0,0,0,0,.9948A.4977.4977,0,0,0,478.625,393.7526Z" transform="translate(28.7)"/><path class="as" d="M472.45829,397.1693a.4977.4977,0,0,0,0,.9948A.4977.4977,0,0,0,472.45829,397.1693Z" transform="translate(28.7)"/><path class="as" d="M492,398.3359a.4977.4977,0,0,0,0,.9948A.4977.4977,0,0,0,492,398.3359Z" transform="translate(28.7)"/><path class="as" d="M494.81529,390.9119a2.3935,2.3935,0,0,1-.43629.4293c-.48971.4274.21339,1.0948.70349.7034q.19065-.16635.3812-.3328a.44893.44893,0,0,0,.1354-.2065c.0245-.0312.05091-.0589.0752-.0913C496.05849,390.9017,495.19519,390.4053,494.81529,390.9119Z" transform="translate(28.7)"/><path class="as" d="M491.15989,388.9596a1.51632,1.51632,0,0,1-.2674.4329c-.4261.4757.2752,1.1815.7034.7034a2.38614,2.38614,0,0,0,.423-.6342C492.27659,388.8818,491.41969,388.3751,491.15989,388.9596Z" transform="translate(28.7)"/><path class="as" d="M489.79169,392.5026a.4977.4977,0,0,0,0,.9948A.4977.4977,0,0,0,489.79169,392.5026Z" transform="translate(28.7)"/><path class="as" d="M553,354.2526h-1.21861a.4977.4977,0,0,0,0,.9948H553A.4977.4977,0,0,0,553,354.2526Z" transform="translate(28.7)"/><path class="as" d="M557.625,354.5026a.4977.4977,0,0,0,0,.9948A.4977.4977,0,0,0,557.625,354.5026Z" transform="translate(28.7)"/><path class="as" d="M557.33579,352.1483l-.0625.0625a.49766.49766,0,0,0,.7034.7034l.0625-.0625A.49766.49766,0,0,0,557.33579,352.1483Z" transform="translate(28.7)"/><path class="as" d="M556.25,353.3151a.4977.4977,0,0,0,0,.9948A.4977.4977,0,0,0,556.25,353.3151Z" transform="translate(28.7)"/><path class="as" d="M554.83579,353.8983l-.0625.0625a.49766.49766,0,0,0,.7034.7034l.0625-.0625A.49766.49766,0,0,0,554.83579,353.8983Z" transform="translate(28.7)"/><path class="as" d="M553.56249,352.4401q-.2322.00555-.4644.0113c-.3419.0083-.6662.4301-.4295.7484a.90406.90406,0,0,0,.96041.3952.38183.38183,0,0,0,.35219-.4298A.48117.48117,0,0,0,553.56249,352.4401Z" transform="translate(28.7)"/><path class="as" d="M561.36039,354.7876c-.0057.0027-.0109.0019-.0165.0048a1.51747,1.51747,0,0,0-.5216.4674.50167.50167,0,0,0,.56171.7307,1.44061,1.44061,0,0,0,.758-.6174C562.45419,354.8614,561.72969,354.4027,561.36039,354.7876Z" transform="translate(28.7)"/><path class="as" d="M560.68739,353.4394l-.2117-.0118c-.6259-.1132-.8945.8453-.2645.9592a2.39819,2.39819,0,0,0,.4762.0474A.4977.4977,0,0,0,560.68739,353.4394Z" transform="translate(28.7)"/><path class="as" d="M562.89619,351.7823a.42881.42881,0,0,0-.5685-.2064c-.44569-.0698-.8826.4717-.45869.8051a2.09528,2.09528,0,0,0,.38469.2579.5041.5041,0,0,0,.7484-.4295A.75.75,0,0,0,562.89619,351.7823Z" transform="translate(28.7)"/><path class="as" d="M559.782,351.5419l-.21871.1562c-.5167.3687-.0205,1.2319.5021.8589l.2188-.1562C560.80079,352.032,560.30459,351.1689,559.782,351.5419Z" transform="translate(28.7)"/><path class="as" d="M565.00009,350.6681a.38169.38169,0,0,0-.3832.3574.88814.88814,0,0,0,.0305.5185c.1379.3456.7147.5541.9091.1188a1.68088,1.68088,0,0,0,.14-.4057A.5308.5308,0,0,0,565.00009,350.6681Z" transform="translate(28.7)"/><path class="as" d="M565.03079,353.3836a.38568.38568,0,0,1-.3193.1357c-.6311.0929-.3628,1.0516.26451.9593a1.13091,1.13091,0,0,0,.55689-.236C566.03289,353.8572,565.538,352.9927,565.03079,353.3836Z" transform="translate(28.7)"/><path class="as" d="M557.03129,356.7838H556.75a.4977.4977,0,0,0,0,.9948h.28129A.4977.4977,0,0,0,557.03129,356.7838Z" transform="translate(28.7)"/><path class="as" d="M552.80079,356.6624a.92384.92384,0,0,0-.7376-.3415.4463.4463,0,0,0-.4784.4699.441.441,0,0,0,.2831.6888,1.80193,1.80193,0,0,0,.58111.0319A.50556.50556,0,0,0,552.80079,356.6624Z" transform="translate(28.7)"/><path class="as" d="M548.07029,354.9561l-.0935-.0319c-.6074-.2069-.868.7537-.2645.9593l.0936.0318C548.41319,356.1222,548.674,355.1617,548.07029,354.9561Z" transform="translate(28.7)"/><path class="as" d="M547.75,353.7213a.4977.4977,0,0,0,0,.9948A.4977.4977,0,0,0,547.75,353.7213Z" transform="translate(28.7)"/><path class="as" d="M543.84379,354.4401a.4977.4977,0,0,0,0,.9948A.4977.4977,0,0,0,543.84379,354.4401Z" transform="translate(28.7)"/><path class="as" d="M541.90629,355.9401h-.0625a.4977.4977,0,0,0,0,.9948h.0625A.4977.4977,0,0,0,541.90629,355.9401Z" transform="translate(28.7)"/><path class="as" d="M540.46879,353.4401a.4977.4977,0,0,0,0,.9948A.4977.4977,0,0,0,540.46879,353.4401Z" transform="translate(28.7)"/><path class="as" d="M541.02919,358.0067a1.01633,1.01633,0,0,0-.30319-.3884c-.46311-.3668-1.09721.2136-.77621.6164a.40518.40518,0,0,0,.1708.3343.64356.64356,0,0,0,.4791.1861A.50493.50493,0,0,0,541.02919,358.0067Z" transform="translate(28.7)"/><path class="as" d="M566.46839,357.3171a1.66133,1.66133,0,0,0-.4458.043c-.62659.1288-.3613,1.0879.2645.9592l.1813-.0074C567.10849,358.3389,567.10719,357.3441,566.46839,357.3171Z" transform="translate(28.7)"/><path class="as" d="M571.09549,353.7513c-.4781.3615.0029,1.1743.5297.8319a.86937.86937,0,0,0,.4363-.7397C572.12469,353.2429,571.24989,353.2209,571.09549,353.7513Z" transform="translate(28.7)"/><path class="as" d="M575.61789,348.9268a.38879.38879,0,0,0-.4613-.3649.705.705,0,0,0-.7041.7549.50521.50521,0,0,0,.6296.4796,1.15984,1.15984,0,0,0,.4856-.2595A.3985.3985,0,0,0,575.61789,348.9268Z" transform="translate(28.7)"/><path class="as" d="M570.338,350.3733q-.50011.0777-1.00021.1553c-.6307.0979-.36279,1.0567.2644.9593q.50025-.0777,1.0002-.1553C571.23309,351.2346,570.96529,350.2759,570.338,350.3733Z" transform="translate(28.7)"/><path class="as" d="M572.25259,348v.0625a.4977.4977,0,0,0,.9948,0V348A.4977.4977,0,0,0,572.25259,348Z" transform="translate(28.7)"/><path class="as" d="M578.76609,346.5477a.47077.47077,0,0,0-.04809-.0449c-.10561-.4817-.86911-.636-.94851-.0734-.0609.4308-.136.9857.4731,1.0362A.5854.5854,0,0,0,578.76609,346.5477Z" transform="translate(28.7)"/><path class="as" d="M579.72669,350.374l-.0312.0625c-.28549.5709.5723,1.0753.859.502l.0313-.0625C580.87119,350.3051,580.01339,349.8007,579.72669,350.374Z" transform="translate(28.7)"/><path class="as" d="M577.06249,352.2904l-.25-.001a.4977.4977,0,0,0,0,.9948l.25.001A.4977.4977,0,0,0,577.06249,352.2904Z" transform="translate(28.7)"/><path class="as" d="M568.71959,353.3544a1.35068,1.35068,0,0,1-.44659.1917c-.62191.1507-.35851,1.1102.26449.9592a2.19606,2.19606,0,0,0,.6842-.2919C569.75889,353.8688,569.26059,353.0073,568.71959,353.3544Z" transform="translate(28.7)"/><path class="as" d="M569.157,347.7425c-.37941-.2221-.80391.1099-1.12931.2923a2.73428,2.73428,0,0,0-.5729.9947c.4978.6991,1.5874.2783,1.9158-.4108A.67236.67236,0,0,0,569.157,347.7425Z" transform="translate(28.7)"/><path class="as" d="M389.48519,340.7914c-.1599-1.0914-.9708-2.1035-2.1176-1.7539a.57689.57689,0,0,0-.16759.0476c-.00791.0032-.01491.003-.02281.0065l-.0073.005a.55579.55579,0,0,0-.0912.0637.38105.38105,0,0,0-.1102.1243.39563.39563,0,0,0,.0239.4628,5.42609,5.42609,0,0,0,1.7621,1.6057A.50414.50414,0,0,0,389.48519,340.7914Z" transform="translate(28.7)"/><path class="as" d="M383.16929,338.5v.0833a.4977.4977,0,0,0,.9948,0V338.5A.4977.4977,0,0,0,383.16929,338.5Z" transform="translate(28.7)"/><path class="as" d="M393.68509,339.8149l-.0834-.0833a.4977.4977,0,0,0-.7034.7035l.0833.0833A.49774.49774,0,0,0,393.68509,339.8149Z" transform="translate(28.7)"/><path class="as" d="M386.791,334.3795a.37956.37956,0,0,0-.43571.0733c-.0521-.0518-.113-.0859-.1624-.144-.4151-.4887-1.1158.2179-.7035.7034a3.05078,3.05078,0,0,0,1.594.9865.50312.50312,0,0,0,.6119-.6118A1.38812,1.38812,0,0,0,386.791,334.3795Z" transform="translate(28.7)"/><path class="as" d="M379.66309,335.0797l-.16609-.0846c-.56921-.2901-1.07321.5679-.50211.8589l.166.0846C379.73019,336.2286,380.23429,335.3707,379.66309,335.0797Z" transform="translate(28.7)"/><path class="as" d="M392.16769,336.9872q-.3333-.1668-.66669-.3334c-.57091-.2855-1.07531.5723-.502.859l.66659.3333C392.23659,338.1317,392.741,337.2738,392.16769,336.9872Z" transform="translate(28.7)"/><path class="as" d="M386.09009,341.2523a.42261.42261,0,0,1-.0062-.2516c.0788-.6338-.9167-.628-.9947,0a1.35253,1.35253,0,0,0,.142.7537C385.48969,342.3386,386.34709,341.833,386.09009,341.2523Z" transform="translate(28.7)"/><path class="as" d="M383.66169,335.8304q-.20745-.1266-.4146-.2534c-.5478-.3348-1.04809.5252-.50209.859l.41449.2534C383.70729,337.0242,384.20759,336.1641,383.66169,335.8304Z" transform="translate(28.7)"/><path class="as" d="M379.47469,337.8936c-.3978-.1707-.93769.2372-.6382.6779a1.44184,1.44184,0,0,1,.2434.6038c.089.504.8325.4421.9592,0a3.24744,3.24744,0,0,0,.125-.8419A.48176.48176,0,0,0,379.47469,337.8936Z" transform="translate(28.7)"/><path class="as" d="M394.43429,344.7331a.52512.52512,0,0,0-.7104.0398.51018.51018,0,0,0-.4553.6096,4.64218,4.64218,0,0,0,.3881,1.1171.42686.42686,0,0,0,.2.2014.38158.38158,0,0,0,.2449.4556.78878.78878,0,0,0,1.1507-.7814A2.19259,2.19259,0,0,0,394.43429,344.7331Z" transform="translate(28.7)"/><path class="as" d="M399.55139,344.2585l-.8317-.1743c-.62469-.1309-.89169.8278-.2645.9593q.4158.08715.8317.1742C399.91159,345.3486,400.17859,344.3899,399.55139,344.2585Z" transform="translate(28.7)"/><path class="as" d="M395.16929,343.1666v.1667a.4977.4977,0,0,0,.9948,0v-.1667A.4977.4977,0,0,0,395.16929,343.1666Z" transform="translate(28.7)"/><path class="as" d="M390.64149,344.4527l-.0849-.2495c-.2053-.6026-1.1665-.3438-.9593.2645l.085.2495C389.88759,345.3198,390.84879,345.0611,390.64149,344.4527Z" transform="translate(28.7)"/><path class="as" d="M382.63389,344.3656a.61519.61519,0,1,0,.306,1.1654A.678.678,0,0,0,382.63389,344.3656Z" transform="translate(28.7)"/><path class="as" d="M382.58729,341.316l-.2508-.1653c-.5361-.3534-1.035.5077-.5021.8589l.2508.1654C382.62129,342.5284,383.12019,341.6672,382.58729,341.316Z" transform="translate(28.7)"/><path class="as" d="M376.22729,338.5583a4.80673,4.80673,0,0,0-.9067-.8c-.3807-.2637-.74.1119-.7173.4776a.50628.50628,0,0,0,.1509.6866,3.65391,3.65391,0,0,0,.9891.4671A.50155.50155,0,0,0,376.22729,338.5583Z" transform="translate(28.7)"/><path class="as" d="M375.44129,331.5758c-.26629-.5484-1.0458-.1161-.8798.422a.51557.51557,0,0,0-.2883.551,2.01551,2.01551,0,0,0,.3046.7853.50216.50216,0,0,0,.859,0A1.89828,1.89828,0,0,0,375.44129,331.5758Z" transform="translate(28.7)"/><path class="as" d="M379.97339,331.411c-.5561-.2024-.811.5936-.3786.8898a.5018.5018,0,0,0,.0253.1214c.2435.5744,1.0443.962,1.4401.2787C381.47739,331.9807,380.47839,331.5949,379.97339,331.411Z" transform="translate(28.7)"/><path class="as" d="M370.34229,332.9491q-.04305.2499-.086.4996c-.1076.6261.8508.8951.9593.2644q.043-.24975.0859-.4995C371.40919,332.5874,370.45069,332.3184,370.34229,332.9491Z" transform="translate(28.7)"/><path class="as" d="M372.14629,330.0344c-.105-.63-1.0638-.3628-.95929.2645l.08339.5c.105.63,1.0638.3628.9592-.2645Z" transform="translate(28.7)"/><path class="as" d="M376.58329,329.0026a.4977.4977,0,0,0,0,.9948A.4977.4977,0,0,0,376.58329,329.0026Z" transform="translate(28.7)"/><path class="as" d="M409.30109,345.5126q-.5436-.15975-1.0874-.3194a.49784.49784,0,0,0-.2644.9593l1.0874.3194A.49784.49784,0,0,0,409.30109,345.5126Z" transform="translate(28.7)"/><path class="as" d="M402.25,347.8359a.4977.4977,0,0,0,0,.9948A.4977.4977,0,0,0,402.25,347.8359Z" transform="translate(28.7)"/><path class="as" d="M401.55859,340.5366a.53078.53078,0,0,0-.9329-.1096.5015.5015,0,0,0-.3106.8415l.257.259a.50215.50215,0,0,0,.6028.0778A.89883.89883,0,0,0,401.55859,340.5366Z" transform="translate(28.7)"/><path class="as" d="M16.4517,346.6971a2.32462,2.32462,0,0,0-1.9118-.4051c-.5569.1103-.4085.8743.0694.9589a.46519.46519,0,0,0,.3424.4786,1.86178,1.86178,0,0,0,1.5-.1735A.50456.50456,0,0,0,16.4517,346.6971Z" transform="translate(28.7)"/><path class="as" d="M15.9167,349.9193q-.66675.04155-1.3333.0833c-.636.0398-.6405,1.0348,0,.9948q.6666-.0417,1.3333-.0833C16.5526,350.8743,16.5571,349.8792,15.9167,349.9193Z" transform="translate(28.7)"/><path class="as" d="M9.4167,349.5859h-.25a.4977.4977,0,0,0,0,.9948h.25A.4977.4977,0,0,0,9.4167,349.5859Z" transform="translate(28.7)"/><path class="as" d="M22.2963,350.9541a.43812.43812,0,0,0-.3454.0274c-.4501-.2041-.9796.3972-.5584.7934a1.87577,1.87577,0,0,0,.9651.506.50514.50514,0,0,0,.6119-.6118A.89734.89734,0,0,0,22.2963,350.9541Z" transform="translate(28.7)"/><path class="as" d="M18.5,348.8359H18a.4977.4977,0,0,0,0,.9948h.5A.4977.4977,0,0,0,18.5,348.8359Z" transform="translate(28.7)"/><path class="as" d="M12.8687,348.306a2.37386,2.37386,0,0,0-.9087-.4221.50959.50959,0,0,0-.5949.6457.52.52,0,0,0,.0939.9326,1.432,1.432,0,0,0,1.5104-.375A.5063.5063,0,0,0,12.8687,348.306Z" transform="translate(28.7)"/><path class="as" d="M10.7978,352.528q-.33225-.04905-.6645-.0982c-.6262-.0925-.8965.8659-.2645.9593l.6645.0981C11.1595,353.5798,11.4298,352.6214,10.7978,352.528Z" transform="translate(28.7)"/><path class="as" d="M5.8228,346.5728a.38041.38041,0,0,1-.5423-.1c-.4197-.485-1.1206.2212-.7035.7035a1.37692,1.37692,0,0,0,1.9492.0999C7.0175,346.8646,6.3106,346.1641,5.8228,346.5728Z" transform="translate(28.7)"/><path class="as" d="M2.0994,349.3229a.53272.53272,0,0,0-.4329.8608.55842.55842,0,0,0,.8477.001A.53114.53114,0,0,0,2.0994,349.3229Z" transform="translate(28.7)"/><path class="as" d="M29.3358,353.8254l-.1676.0049c-.6348-.0735-.6295.9219,0,.9948a1.12239,1.12239,0,0,0,.6696-.1407C30.4117,354.4005,29.9082,353.5422,29.3358,353.8254Z" transform="translate(28.7)"/><path class="as" d="M23.6658,348.3581a.38814.38814,0,0,0-.4552.3267.51338.51338,0,0,0-.1319.9174c.4845.3032,1.6077.8467,1.9764.1114C25.449,348.9282,24.2386,348.4254,23.6658,348.3581Z" transform="translate(28.7)"/><path class="as" d="M18.0992,352.1514l-.4176-.3321c-.4961-.3946-1.2045.3048-.7035.7034q.20895.16605.4177.3322C17.8918,353.2494,18.6003,352.55,18.0992,352.1514Z" transform="translate(28.7)"/><path class="as" d="M5.6638,350.7834a2.46625,2.46625,0,0,1-.7422-.2205c-.5761-.2708-1.0816.5865-.5021.859a4.01846,4.01846,0,0,0,1.2443.3563C6.2972,351.8584,6.2914,350.8629,5.6638,350.7834Z" transform="translate(28.7)"/><path class="as" d="M33.3334,352.1693h-1a.4977.4977,0,0,0,0,.9948h1A.4977.4977,0,0,0,33.3334,352.1693Z" transform="translate(28.7)"/><path class="as" d="M29.7548,351.8463a.46471.46471,0,0,0-.5704-.3348.51309.51309,0,0,0-.5232.8316C29.0875,352.8186,29.9531,352.5568,29.7548,351.8463Z" transform="translate(28.7)"/><path class="as" d="M24.8334,352.9193a.4977.4977,0,0,0,0,.9948A.4977.4977,0,0,0,24.8334,352.9193Z" transform="translate(28.7)"/><path class="as" d="M19.1667,355.5859a.4977.4977,0,0,0,0,.9948A.4977.4977,0,0,0,19.1667,355.5859Z" transform="translate(28.7)"/><path class="as" d="M43.0861,358.9529a1.05684,1.05684,0,0,0-1.2568-.3012c-.9446.5865-.0619,1.8835.8225,1.9121.1285.5632,1.0427.5534.9758-.0601A2.51483,2.51483,0,0,0,43.0861,358.9529Z" transform="translate(28.7)"/><path class="as" d="M35.0489,358.937q-.2916-.0417-.5833-.0833c-.6262-.0895-.8967.869-.2645.9592l.5834.0834C35.4106,359.9857,35.6812,359.0273,35.0489,358.937Z" transform="translate(28.7)"/><path class="as" d="M27.9064,357.4363a.49986.49986,0,0,0-.8136.1975l-.008-.0049c-.5406-.3464-1.0401.5142-.5021.859a1.0229,1.0229,0,0,0,1.3168.0377A.75357.75357,0,0,0,27.9064,357.4363Z" transform="translate(28.7)"/><path class="as" d="M36.501,356.9038l-.25-.1666c-.5341-.3562-1.0327.5051-.502.8589q.12495.0834.25.1667C36.5331,358.1189,37.0318,357.2576,36.501,356.9038Z" transform="translate(28.7)"/><path class="as" d="M43.3334,354.6693H42.75a.4977.4977,0,0,0,0,.9948h.5834A.4977.4977,0,0,0,43.3334,354.6693Z" transform="translate(28.7)"/><path class="as" d="M12.2531,355.9243a.48536.48536,0,0,0-.8495.0218c-.4803-.3476-1.1355.3185-.6629.7264a1.07517,1.07517,0,0,0,1.2272.3081A.76159.76159,0,0,0,12.2531,355.9243Z" transform="translate(28.7)"/><path class="as" d="M18.8334,361.0859a.4977.4977,0,0,0,0,.9948A.4977.4977,0,0,0,18.8334,361.0859Z" transform="translate(28.7)"/><path class="as" d="M23.5,363.1693a.4977.4977,0,0,0,0,.9948A.4977.4977,0,0,0,23.5,363.1693Z" transform="translate(28.7)"/><path class="as" d="M27.0096,362.4685c-.4676-.2401-1.2622-.6135-1.7606-.2618a.64753.64753,0,0,0,.2053,1.1588.47185.47185,0,0,0,.541-.2418c.009.0026.0184.0034.0273.0062a2.579,2.579,0,0,1,.485.1976C27.076,363.6194,27.58,362.7614,27.0096,362.4685Z" transform="translate(28.7)"/><path class="as" d="M39.75,364.1693a.4977.4977,0,0,0,0,.9948A.4977.4977,0,0,0,39.75,364.1693Z" transform="translate(28.7)"/><path class="as" d="M52.75,362.7526H52.5a.4977.4977,0,0,0,0,.9948h.25A.4977.4977,0,0,0,52.75,362.7526Z" transform="translate(28.7)"/></g></svg>