<svg id="Layer_1" data-name="Layer 1" xmlns="http://www.w3.org/2000/svg" xmlns:xlink="http://www.w3.org/1999/xlink" viewBox="0 0 1366 768"><defs><style>.cls-1{fill:url(#linear-gradient);}.cls-2{fill:#818182;}.cls-3{fill:#7b8faf;}.cls-4{fill:#5b606b;}.cls-5{fill:#efefef;opacity:0.22;}.cls-5,.cls-6{stroke:#fff;stroke-miterlimit:10;stroke-width:13px;}.cls-6{fill:none;opacity:0.27;}.cls-7{fill:#343947;}.cls-8{fill:url(#linear-gradient-2);}.cls-9{fill:url(#linear-gradient-3);}.cls-10{fill:url(#linear-gradient-4);}.cls-11{fill:#3f4551;}.cls-12{fill:#292d35;}.cls-13{fill:url(#linear-gradient-5);}.cls-14{fill:url(#linear-gradient-6);}.cls-15{fill:url(#linear-gradient-7);}.cls-16{fill:url(#linear-gradient-8);}.cls-17{fill:url(#linear-gradient-9);}.cls-18{fill:url(#linear-gradient-10);}.cls-19{fill:url(#linear-gradient-11);}.cls-20{fill:url(#linear-gradient-12);}.cls-21{fill:url(#linear-gradient-13);}.cls-22{fill:url(#linear-gradient-14);}.cls-23{fill:url(#linear-gradient-15);}.cls-24{fill:url(#linear-gradient-16);}.cls-25{fill:url(#linear-gradient-17);}.cls-26{fill:url(#linear-gradient-18);}.cls-27{fill:url(#linear-gradient-19);}.cls-28{fill:url(#linear-gradient-20);}.cls-29{fill:url(#linear-gradient-21);}.cls-30{fill:url(#linear-gradient-22);}.cls-31{fill:url(#linear-gradient-23);}.cls-32{fill:url(#linear-gradient-24);}.cls-33{fill:url(#linear-gradient-25);}.cls-34{fill:url(#linear-gradient-26);}.cls-35{fill:url(#linear-gradient-27);}.cls-36{fill:url(#linear-gradient-28);}.cls-37{fill:url(#linear-gradient-29);}.cls-38{fill:url(#linear-gradient-30);}.cls-39{fill:url(#linear-gradient-31);}.cls-40{fill:url(#linear-gradient-32);}.cls-41{fill:url(#linear-gradient-33);}.cls-42{fill:url(#linear-gradient-34);}.cls-43{fill:url(#linear-gradient-35);}.cls-44{fill:url(#linear-gradient-36);}.cls-45{fill:url(#linear-gradient-37);}.cls-46{fill:url(#linear-gradient-38);}.cls-47{fill:url(#linear-gradient-39);}.cls-48{fill:url(#linear-gradient-40);}.cls-49{fill:url(#linear-gradient-41);}.cls-50{fill:url(#linear-gradient-42);}.cls-51{fill:url(#linear-gradient-43);}.cls-52{fill:url(#linear-gradient-44);}.cls-53{fill:url(#linear-gradient-45);}.cls-54{fill:url(#linear-gradient-46);}.cls-55{fill:url(#linear-gradient-47);}.cls-56{fill:url(#linear-gradient-48);}.cls-57{fill:url(#linear-gradient-49);}.cls-58{fill:url(#linear-gradient-50);}.cls-59{fill:url(#linear-gradient-51);}.cls-60{fill:url(#linear-gradient-52);}.cls-61{fill:url(#linear-gradient-53);}.cls-62{fill:url(#linear-gradient-54);}.cls-63{fill:url(#linear-gradient-55);}.cls-64{fill:url(#linear-gradient-56);}.cls-65{fill:url(#linear-gradient-57);}.cls-66{fill:#5b5b5b;}.cls-67{fill:#3f3f3f;}.cls-68{fill:#303030;}.cls-69{fill:#3f465b;}.cls-70{fill:#c4c4c4;}.cls-71{fill:url(#linear-gradient-58);}.cls-72{fill:url(#linear-gradient-59);}.cls-73{fill:url(#linear-gradient-60);}.cls-74{fill:url(#linear-gradient-61);}.cls-75{fill:url(#linear-gradient-62);}.cls-76{fill:url(#linear-gradient-63);}.cls-77{fill:url(#linear-gradient-64);}.cls-78{fill:url(#linear-gradient-65);}.cls-79{fill:url(#linear-gradient-66);}.cls-80{fill:url(#linear-gradient-67);}.cls-81{fill:url(#linear-gradient-68);}.cls-82{fill:url(#linear-gradient-69);}.cls-83{fill:url(#linear-gradient-70);}.cls-84{fill:url(#linear-gradient-71);}.cls-85{fill:#aeafaf;}.cls-86{fill:#9e9e9e;}.cls-87{fill:url(#linear-gradient-72);}.cls-88{fill:url(#linear-gradient-73);}.cls-89{fill:url(#linear-gradient-74);}.cls-90{fill:url(#linear-gradient-75);}.cls-91{fill:url(#linear-gradient-76);}.cls-92{fill:url(#linear-gradient-77);}.cls-93{fill:url(#linear-gradient-78);}.cls-94{fill:url(#linear-gradient-79);}.cls-95{fill:url(#linear-gradient-80);}.cls-96{fill:url(#linear-gradient-81);}.cls-97{fill:url(#linear-gradient-82);}.cls-98{fill:url(#linear-gradient-83);}.cls-99{fill:url(#linear-gradient-84);}.cls-100{fill:url(#linear-gradient-85);}.cls-101{fill:url(#linear-gradient-86);}.cls-102{fill:url(#linear-gradient-87);}.cls-103{fill:url(#linear-gradient-88);}.cls-104{fill:url(#linear-gradient-89);}</style><linearGradient id="linear-gradient" x1="680" y1="-4" x2="680" y2="764" gradientUnits="userSpaceOnUse"><stop offset="0" stop-color="#2b5782"/><stop offset="0.53" stop-color="#5e9cad"/><stop offset="1" stop-color="#fff"/></linearGradient><linearGradient id="linear-gradient-2" x1="566.63" y1="746.37" x2="598.19" y2="746.37" gradientUnits="userSpaceOnUse"><stop offset="0" stop-color="#f2f2f2" stop-opacity="0.2"/><stop offset="1" stop-color="#fff" stop-opacity="0.4"/></linearGradient><linearGradient id="linear-gradient-3" x1="604.16" y1="746.37" x2="635.72" y2="746.37" xlink:href="#linear-gradient-2"/><linearGradient id="linear-gradient-4" x1="706.52" y1="746.37" x2="738.08" y2="746.37" xlink:href="#linear-gradient-2"/><linearGradient id="linear-gradient-5" x1="1571.75" y1="188.03" x2="1600.08" y2="188.03" gradientTransform="matrix(1, 0, 0, -1, -1362.83, 376.07)" xlink:href="#linear-gradient-2"/><linearGradient id="linear-gradient-6" x1="1605.44" y1="188.03" x2="1633.77" y2="188.03" gradientTransform="matrix(1, 0, 0, -1, -1430.21, 376.07)" xlink:href="#linear-gradient-2"/><linearGradient id="linear-gradient-7" x1="1650.62" y1="188.03" x2="1678.96" y2="188.03" gradientTransform="matrix(1, 0, 0, -1, -1520.58, 376.07)" xlink:href="#linear-gradient-2"/><linearGradient id="linear-gradient-8" x1="1676.66" y1="230.03" x2="1704.99" y2="230.03" gradientTransform="matrix(1, 0, 0, -1, -1572.65, 460.06)" xlink:href="#linear-gradient-2"/><linearGradient id="linear-gradient-9" x1="1639.9" y1="266.15" x2="1668.23" y2="266.15" gradientTransform="matrix(1, 0, 0, -1, -1499.14, 532.29)" xlink:href="#linear-gradient-2"/><linearGradient id="linear-gradient-10" x1="1605.44" y1="230.03" x2="1633.77" y2="230.03" gradientTransform="matrix(1, 0, 0, -1, -1430.21, 460.06)" xlink:href="#linear-gradient-2"/><linearGradient id="linear-gradient-11" x1="1605.44" y1="303.1" x2="1633.77" y2="303.1" gradientTransform="matrix(1, 0, 0, -1, -1430.21, 606.21)" xlink:href="#linear-gradient-2"/><linearGradient id="linear-gradient-12" x1="1676.66" y1="266.15" x2="1704.99" y2="266.15" gradientTransform="matrix(1, 0, 0, -1, -1572.65, 532.29)" xlink:href="#linear-gradient-2"/><linearGradient id="linear-gradient-13" x1="1709.59" y1="297.22" x2="1737.92" y2="297.22" gradientTransform="matrix(1, 0, 0, -1, -1638.51, 594.45)" xlink:href="#linear-gradient-2"/><linearGradient id="linear-gradient-14" x1="1697.33" y1="188.03" x2="1725.67" y2="188.03" gradientTransform="matrix(1, 0, 0, -1, -1614, 376.07)" xlink:href="#linear-gradient-2"/><linearGradient id="linear-gradient-15" x1="1731.03" y1="188.03" x2="1759.36" y2="188.03" gradientTransform="matrix(1, 0, 0, -1, -1681.39, 376.07)" xlink:href="#linear-gradient-2"/><linearGradient id="linear-gradient-16" x1="1568.68" y1="334.18" x2="1597.02" y2="334.18" gradientTransform="matrix(1, 0, 0, -1, -1356.7, 668.36)" xlink:href="#linear-gradient-2"/><linearGradient id="linear-gradient-17" x1="1647.56" y1="334.18" x2="1675.89" y2="334.18" gradientTransform="matrix(1, 0, 0, -1, -1514.45, 668.36)" xlink:href="#linear-gradient-2"/><linearGradient id="linear-gradient-18" x1="1673.6" y1="376.18" x2="1701.93" y2="376.18" gradientTransform="matrix(1, 0, 0, -1, -1566.52, 752.35)" xlink:href="#linear-gradient-2"/><linearGradient id="linear-gradient-19" x1="1683.55" y1="334.18" x2="1711.88" y2="334.18" gradientTransform="matrix(1, 0, 0, -1, -1586.43, 668.36)" xlink:href="#linear-gradient-2"/><linearGradient id="linear-gradient-20" x1="1675.13" y1="460.17" x2="1703.46" y2="460.17" gradientTransform="matrix(1, 0, 0, -1, -1569.59, 920.34)" xlink:href="#linear-gradient-2"/><linearGradient id="linear-gradient-21" x1="1638.37" y1="496.29" x2="1666.7" y2="496.29" gradientTransform="matrix(1, 0, 0, -1, -1496.07, 992.57)" xlink:href="#linear-gradient-2"/><linearGradient id="linear-gradient-22" x1="1603.91" y1="533.24" x2="1632.24" y2="533.24" gradientTransform="matrix(1, 0, 0, -1, -1427.15, 1066.49)" xlink:href="#linear-gradient-2"/><linearGradient id="linear-gradient-23" x1="1675.13" y1="496.29" x2="1703.46" y2="496.29" gradientTransform="matrix(1, 0, 0, -1, -1569.59, 992.57)" xlink:href="#linear-gradient-2"/><linearGradient id="linear-gradient-24" x1="1708.06" y1="527.36" x2="1736.39" y2="527.36" gradientTransform="matrix(1, 0, 0, -1, -1635.45, 1054.73)" xlink:href="#linear-gradient-2"/><linearGradient id="linear-gradient-25" x1="1729.5" y1="418.17" x2="1757.83" y2="418.17" gradientTransform="matrix(1, 0, 0, -1, -1678.33, 836.35)" xlink:href="#linear-gradient-2"/><linearGradient id="linear-gradient-26" x1="1567.15" y1="564.32" x2="1595.49" y2="564.32" gradientTransform="matrix(1, 0, 0, -1, -1353.64, 1128.64)" xlink:href="#linear-gradient-2"/><linearGradient id="linear-gradient-27" x1="1646.03" y1="564.32" x2="1674.36" y2="564.32" gradientTransform="matrix(1, 0, 0, -1, -1511.39, 1128.64)" xlink:href="#linear-gradient-2"/><linearGradient id="linear-gradient-28" x1="1672.06" y1="606.32" x2="1700.4" y2="606.32" gradientTransform="matrix(1, 0, 0, -1, -1563.46, 1212.63)" xlink:href="#linear-gradient-2"/><linearGradient id="linear-gradient-29" x1="1602.38" y1="376.18" x2="1630.71" y2="376.18" gradientTransform="matrix(1, 0, 0, -1, -1424.09, 752.35)" xlink:href="#linear-gradient-2"/><linearGradient id="linear-gradient-30" x1="1602.38" y1="449.25" x2="1630.71" y2="449.25" gradientTransform="matrix(1, 0, 0, -1, -1424.09, 898.5)" xlink:href="#linear-gradient-2"/><linearGradient id="linear-gradient-31" x1="1673.6" y1="412.29" x2="1701.93" y2="412.29" gradientTransform="matrix(1, 0, 0, -1, -1566.52, 824.59)" xlink:href="#linear-gradient-2"/><linearGradient id="linear-gradient-32" x1="1727.97" y1="334.18" x2="1756.3" y2="334.18" gradientTransform="matrix(1, 0, 0, -1, -1675.27, 668.36)" xlink:href="#linear-gradient-2"/><linearGradient id="linear-gradient-33" x1="1209.63" y1="243.37" x2="1241.19" y2="243.37" xlink:href="#linear-gradient-2"/><linearGradient id="linear-gradient-34" x1="1247.16" y1="243.37" x2="1278.72" y2="243.37" xlink:href="#linear-gradient-2"/><linearGradient id="linear-gradient-35" x1="1297.48" y1="243.37" x2="1329.04" y2="243.37" xlink:href="#linear-gradient-2"/><linearGradient id="linear-gradient-36" x1="1326.49" y1="286.02" x2="1358.05" y2="286.02" xlink:href="#linear-gradient-2"/><linearGradient id="linear-gradient-37" x1="1285.54" y1="322.7" x2="1317.1" y2="322.7" xlink:href="#linear-gradient-2"/><linearGradient id="linear-gradient-38" x1="1247.16" y1="286.02" x2="1278.72" y2="286.02" xlink:href="#linear-gradient-2"/><linearGradient id="linear-gradient-39" x1="1247.16" y1="360.23" x2="1278.72" y2="360.23" xlink:href="#linear-gradient-2"/><linearGradient id="linear-gradient-40" x1="1326.49" y1="322.7" x2="1358.05" y2="322.7" xlink:href="#linear-gradient-2"/><linearGradient id="linear-gradient-41" x1="1363.16" y1="354.26" x2="1394.72" y2="354.26" xlink:href="#linear-gradient-2"/><linearGradient id="linear-gradient-42" x1="1349.52" y1="243.37" x2="1381.08" y2="243.37" xlink:href="#linear-gradient-2"/><linearGradient id="linear-gradient-43" x1="1206.22" y1="391.79" x2="1237.78" y2="391.79" xlink:href="#linear-gradient-2"/><linearGradient id="linear-gradient-44" x1="1294.07" y1="391.79" x2="1325.63" y2="391.79" xlink:href="#linear-gradient-2"/><linearGradient id="linear-gradient-45" x1="1323.07" y1="434.44" x2="1354.63" y2="434.44" xlink:href="#linear-gradient-2"/><linearGradient id="linear-gradient-46" x1="1334.16" y1="391.79" x2="1365.72" y2="391.79" xlink:href="#linear-gradient-2"/><linearGradient id="linear-gradient-47" x1="1324.78" y1="519.73" x2="1356.34" y2="519.73" xlink:href="#linear-gradient-2"/><linearGradient id="linear-gradient-48" x1="1283.84" y1="556.41" x2="1315.4" y2="556.41" xlink:href="#linear-gradient-2"/><linearGradient id="linear-gradient-49" x1="1245.45" y1="593.94" x2="1277.01" y2="593.94" xlink:href="#linear-gradient-2"/><linearGradient id="linear-gradient-50" x1="1324.78" y1="556.41" x2="1356.34" y2="556.41" xlink:href="#linear-gradient-2"/><linearGradient id="linear-gradient-51" x1="1361.46" y1="587.97" x2="1393.02" y2="587.97" xlink:href="#linear-gradient-2"/><linearGradient id="linear-gradient-52" x1="1204.51" y1="625.5" x2="1236.07" y2="625.5" xlink:href="#linear-gradient-2"/><linearGradient id="linear-gradient-53" x1="1292.37" y1="625.5" x2="1323.93" y2="625.5" xlink:href="#linear-gradient-2"/><linearGradient id="linear-gradient-54" x1="1321.37" y1="668.15" x2="1352.93" y2="668.15" xlink:href="#linear-gradient-2"/><linearGradient id="linear-gradient-55" x1="1243.75" y1="434.44" x2="1275.31" y2="434.44" xlink:href="#linear-gradient-2"/><linearGradient id="linear-gradient-56" x1="1243.75" y1="508.65" x2="1275.31" y2="508.65" xlink:href="#linear-gradient-2"/><linearGradient id="linear-gradient-57" x1="1323.07" y1="471.11" x2="1354.63" y2="471.11" xlink:href="#linear-gradient-2"/><linearGradient id="linear-gradient-58" x1="-811.69" y1="7119.89" x2="-661.81" y2="7182.75" gradientTransform="matrix(0.71, 0.71, 0.39, -0.39, -1040.68, 3911.82)" gradientUnits="userSpaceOnUse"><stop offset="0.16" stop-color="#4d4d4d"/><stop offset="0.37" stop-color="#aaa"/><stop offset="0.58" stop-color="#f9f9f9"/><stop offset="0.67" stop-color="#999"/><stop offset="0.77" stop-color="#fff"/><stop offset="1" stop-color="#fff"/></linearGradient><linearGradient id="linear-gradient-59" x1="-1530.05" y1="5936.62" x2="-1369.36" y2="6004" gradientTransform="matrix(-0.71, 0.71, -0.37, -0.37, 2425.99, 3852.8)" xlink:href="#linear-gradient-58"/><linearGradient id="linear-gradient-60" x1="-1153.32" y1="8303.98" x2="-974.59" y2="8378.93" gradientTransform="matrix(-0.87, 0.5, -0.2, -0.35, 1987.2, 3960.54)" xlink:href="#linear-gradient-58"/><linearGradient id="linear-gradient-61" x1="-142.41" y1="9271.48" x2="21.69" y2="9340.29" gradientTransform="matrix(0.87, 0.5, 0.22, -0.38, -741.51, 4043.58)" xlink:href="#linear-gradient-58"/><linearGradient id="linear-gradient-62" x1="277.84" y1="573.42" x2="475.95" y2="656.5" gradientTransform="matrix(0.97, 0.24, -0.24, 0.98, 988.24, -159.11)" gradientUnits="userSpaceOnUse"><stop offset="0"/><stop offset="0.36" stop-color="#4d4d4d"/><stop offset="0.52" stop-color="#b3b3b3"/><stop offset="0.64" stop-color="#fff"/><stop offset="0.75" stop-color="#999"/><stop offset="1" stop-color="#fff"/></linearGradient><linearGradient id="linear-gradient-63" x1="1485.4" y1="572.13" x2="1659.68" y2="645.21" gradientTransform="translate(-402.19 229.47) rotate(-10.73)" gradientUnits="userSpaceOnUse"><stop offset="0"/><stop offset="0.28" stop-color="#4d4d4d"/><stop offset="0.37" stop-color="#aaa"/><stop offset="0.58" stop-color="#f9f9f9"/><stop offset="0.67" stop-color="#999"/><stop offset="0.77" stop-color="#fff"/><stop offset="1" stop-color="#fff"/></linearGradient><linearGradient id="linear-gradient-64" x1="-841.09" y1="7045.79" x2="-652.93" y2="7124.69" gradientTransform="matrix(1, 0, 0, -0.55, 1937.78, 4523.5)" xlink:href="#linear-gradient-58"/><linearGradient id="linear-gradient-65" x1="-1511.79" y1="5943.53" x2="-1323.64" y2="6022.44" gradientTransform="translate(2628.25 -2522.82) scale(1 0.53)" xlink:href="#linear-gradient-58"/><linearGradient id="linear-gradient-66" x1="-1133.17" y1="8319.38" x2="-945.02" y2="8398.29" gradientTransform="translate(2252.52 -2833.92) scale(1 0.4)" xlink:href="#linear-gradient-58"/><linearGradient id="linear-gradient-67" x1="-175.5" y1="9219.48" x2="12.65" y2="9298.38" gradientTransform="matrix(1, 0, 0, -0.43, 1274.82, 4538.15)" xlink:href="#linear-gradient-58"/><linearGradient id="linear-gradient-68" x1="255.12" y1="619.13" x2="443.27" y2="698.04" gradientTransform="translate(822.44 -114.76) scale(1 1.02)" xlink:href="#linear-gradient-62"/><linearGradient id="linear-gradient-69" x1="1454.33" y1="584.58" x2="1642.49" y2="663.48" gradientTransform="translate(-313.3 -69.04)" xlink:href="#linear-gradient-63"/><linearGradient id="linear-gradient-70" x1="1197.57" y1="407.63" x2="1280.19" y2="442.28" gradientTransform="translate(-10.94 2.72) rotate(-0.19)" xlink:href="#linear-gradient-62"/><linearGradient id="linear-gradient-71" x1="1092.54" y1="371.56" x2="1216.54" y2="423.56" gradientTransform="translate(1174.65 -821.61) rotate(72.07)" gradientUnits="userSpaceOnUse"><stop offset="0.02" stop-color="#fff"/><stop offset="0.25" stop-color="#f4f4f4"/><stop offset="0.43" stop-color="#b3b3b3"/><stop offset="0.61" stop-color="#999"/></linearGradient><linearGradient id="linear-gradient-72" x1="517.67" y1="5608.01" x2="564.67" y2="5608.01" gradientTransform="translate(345.37 5979.15) rotate(-166.09)" gradientUnits="userSpaceOnUse"><stop offset="0" stop-color="#4d4d4d"/><stop offset="0.53" stop-color="#b3b3b3"/><stop offset="1" stop-color="#fff"/></linearGradient><linearGradient id="linear-gradient-73" x1="1110.44" y1="378.83" x2="1254.4" y2="439.2" gradientUnits="userSpaceOnUse"><stop offset="0.21" stop-color="#fff"/><stop offset="0.31" stop-color="#b3b3b3"/><stop offset="0.49" stop-color="#fff"/><stop offset="0.61" stop-color="#999"/><stop offset="0.82" stop-color="#2a2a28"/><stop offset="1"/></linearGradient><linearGradient id="linear-gradient-74" x1="-899.37" y1="6960.68" x2="-749.49" y2="7023.54" gradientTransform="matrix(-0.71, 0.71, -0.39, -0.39, 2296.68, 3911.82)" xlink:href="#linear-gradient-58"/><linearGradient id="linear-gradient-75" x1="-1442.37" y1="6103.33" x2="-1281.68" y2="6170.71" gradientTransform="matrix(0.71, 0.71, 0.37, -0.37, -1169.99, 3852.8)" xlink:href="#linear-gradient-58"/><linearGradient id="linear-gradient-76" x1="-1045.93" y1="8458.12" x2="-867.2" y2="8533.07" gradientTransform="matrix(0.87, 0.5, 0.2, -0.35, -731.2, 3960.54)" xlink:href="#linear-gradient-58"/><linearGradient id="linear-gradient-77" x1="-249.8" y1="9128.34" x2="-85.7" y2="9197.15" gradientTransform="matrix(-0.87, 0.5, -0.22, -0.38, 1997.51, 4043.58)" xlink:href="#linear-gradient-58"/><linearGradient id="linear-gradient-78" x1="157.48" y1="602.95" x2="355.59" y2="686.03" gradientTransform="matrix(-0.97, 0.24, 0.24, 0.98, 267.76, -159.11)" xlink:href="#linear-gradient-62"/><linearGradient id="linear-gradient-79" x1="1363.57" y1="549.04" x2="1537.85" y2="622.12" gradientTransform="matrix(-0.98, -0.19, -0.19, 0.98, 1658.19, 229.47)" xlink:href="#linear-gradient-63"/><linearGradient id="linear-gradient-80" x1="-928.77" y1="6886.58" x2="-740.62" y2="6965.48" gradientTransform="translate(1031.62 -3191.14) scale(1 0.55)" xlink:href="#linear-gradient-58"/><linearGradient id="linear-gradient-81" x1="-1424.11" y1="6110.24" x2="-1235.95" y2="6189.14" gradientTransform="matrix(1, 0, 0, -0.53, 1507.19, 3856.71)" xlink:href="#linear-gradient-58"/><linearGradient id="linear-gradient-82" x1="-1025.79" y1="8473.51" x2="-837.63" y2="8552.42" gradientTransform="matrix(1, 0, 0, -0.4, 1105.98, 3951.45)" xlink:href="#linear-gradient-58"/><linearGradient id="linear-gradient-83" x1="-282.89" y1="9076.34" x2="-94.73" y2="9155.24" gradientTransform="translate(383.12 -3419.45) scale(1 0.43)" xlink:href="#linear-gradient-58"/><linearGradient id="linear-gradient-84" x1="134.76" y1="648.5" x2="322.91" y2="727.41" gradientTransform="matrix(1, 0, 0, -1.02, -12.77, 1249.1)" xlink:href="#linear-gradient-62"/><linearGradient id="linear-gradient-85" x1="1332.5" y1="561.48" x2="1520.66" y2="640.39" gradientTransform="matrix(1, 0, 0, -1, -1273.99, 1152.69)" xlink:href="#linear-gradient-63"/><linearGradient id="linear-gradient-86" x1="1073.57" y1="407.22" x2="1156.19" y2="441.87" gradientTransform="matrix(-1, 0, 0, 1, 1266.94, 2.72)" xlink:href="#linear-gradient-62"/><linearGradient id="linear-gradient-87" x1="968.54" y1="371.56" x2="1092.54" y2="423.56" gradientTransform="matrix(-0.95, -0.31, -0.31, 0.95, 1328.14, 335.68)" xlink:href="#linear-gradient-71"/><linearGradient id="linear-gradient-88" x1="638.03" y1="5578.19" x2="685.03" y2="5578.19" gradientTransform="matrix(0.97, -0.24, -0.24, -0.97, 910.63, 5979.15)" xlink:href="#linear-gradient-72"/><linearGradient id="linear-gradient-89" x1="986.44" y1="378.83" x2="1130.4" y2="439.2" gradientTransform="matrix(-1, 0, 0, 1, 1256, 0)" xlink:href="#linear-gradient-73"/></defs><rect class="cls-1" x="-3" y="-4" width="1366" height="768"/><rect class="cls-2" x="246" y="462" width="837" height="386"/><rect class="cls-3" x="395.88" y="255.19" width="80.65" height="24.88"/><rect class="cls-3" x="402.88" y="236.33" width="66.64" height="23.68"/><rect class="cls-3" x="410.74" y="216.26" width="50.94" height="23.68"/><rect class="cls-3" x="434.51" y="140" width="3.4" height="99.94"/><polyline class="cls-3" points="421.28 217.46 436.2 162.88 450.4 217.46"/><rect class="cls-3" x="184.24" y="326.56" width="131.23" height="358.73"/><rect class="cls-3" x="107.29" y="371.12" width="131.23" height="358.73"/><rect class="cls-3" x="90.58" y="326.56" width="56.67" height="358.73"/><rect class="cls-3" x="39.88" y="354.76" width="56.67" height="358.73"/><rect class="cls-3" x="-15" y="263.39" width="56.67" height="358.73"/><rect class="cls-3" x="699.63" y="425.27" width="131.23" height="358.73"/><rect class="cls-3" x="312.49" y="371.12" width="87.69" height="366.07"/><rect class="cls-3" x="787.31" y="373.94" width="87.69" height="366.07"/><rect class="cls-3" x="864.86" y="260" width="87.69" height="366.07"/><rect class="cls-3" x="896.48" y="323.17" width="87.69" height="366.07"/><rect class="cls-3" x="1113.61" y="254.93" width="87.69" height="366.07"/><rect class="cls-3" x="1198.31" y="340.66" width="87.69" height="366.07"/><rect class="cls-3" x="982.97" y="292.72" width="67.41" height="366.07"/><rect class="cls-3" x="1047.99" y="216.01" width="67.41" height="366.07"/><rect class="cls-3" x="721.7" y="317.53" width="87.69" height="366.07"/><rect class="cls-3" x="396" y="269.03" width="80.53" height="366.07"/><rect class="cls-3" x="400.17" y="329.38" width="131.23" height="358.73"/><rect class="cls-3" x="528.43" y="373.94" width="87.69" height="366.07"/><rect class="cls-3" x="611.94" y="271.85" width="87.69" height="366.07"/><rect class="cls-4" x="603.11" y="437.89" width="218.78" height="601" transform="translate(-25.89 1450.89) rotate(-90)"/><rect class="cls-4" x="595.67" y="468.23" width="127.33" height="373.77"/><rect class="cls-4" x="508.67" y="439.23" width="127.33" height="373.77"/><rect class="cls-4" x="398.67" y="380.23" width="127.33" height="373.77"/><rect class="cls-4" x="348.67" y="436.23" width="127.33" height="373.77"/><rect class="cls-4" x="230.67" y="281.23" width="127.33" height="373.77"/><rect class="cls-4" x="154.67" y="319.23" width="127.33" height="373.77"/><rect class="cls-4" x="90.67" y="338.23" width="127.33" height="373.77"/><rect class="cls-4" x="-23.33" y="396.23" width="127.33" height="373.77"/><rect class="cls-4" x="705.67" y="398.23" width="127.33" height="373.77"/><rect class="cls-4" x="773.67" y="467.23" width="127.33" height="373.77"/><rect class="cls-4" x="826.67" y="439.23" width="127.33" height="373.77"/><rect class="cls-4" x="873.67" y="200" width="127.33" height="493"/><rect class="cls-4" x="993.67" y="523" width="127.33" height="493"/><rect class="cls-4" x="1025.67" y="418" width="127.33" height="493"/><rect class="cls-4" x="1116.67" y="354" width="127.33" height="493"/><rect class="cls-4" x="1142.67" y="327" width="127.33" height="493"/><rect class="cls-5" x="308.5" y="26.74" width="780" height="599.93"/><rect class="cls-6" x="308.5" y="26.74" width="780" height="599.93"/><rect class="cls-7" x="558.67" y="702" width="224.33" height="676"/><rect class="cls-8" x="566.63" y="730.59" width="31.56" height="31.56"/><rect class="cls-9" x="604.16" y="730.59" width="31.56" height="31.56"/><rect class="cls-10" x="706.52" y="730.59" width="31.56" height="31.56"/><polygon class="cls-11" points="783 702 558 702 600.75 659 740.25 659 783 702"/><polygon class="cls-12" points="244 810 276 810 275.81 177.77 244 142.87 244 810"/><rect class="cls-7" x="43" y="144.34" width="201.4" height="665.66" transform="translate(287.4 954.34) rotate(180)"/><rect class="cls-13" x="208.92" y="172.49" width="28.33" height="31.08" transform="translate(446.17 376.07) rotate(180)"/><rect class="cls-14" x="175.23" y="172.49" width="28.33" height="31.08" transform="translate(378.79 376.07) rotate(180)"/><rect class="cls-15" x="130.04" y="172.49" width="28.33" height="31.08" transform="translate(288.42 376.07) rotate(180)"/><rect class="cls-16" x="104.01" y="214.49" width="28.33" height="31.08" transform="translate(236.35 460.06) rotate(180)"/><rect class="cls-17" x="140.77" y="250.61" width="28.33" height="31.08" transform="translate(309.86 532.29) rotate(180)"/><rect class="cls-18" x="175.23" y="214.49" width="28.33" height="31.08" transform="translate(378.79 460.06) rotate(180)"/><rect class="cls-19" x="175.23" y="287.56" width="28.33" height="31.08" transform="translate(378.79 606.21) rotate(180)"/><rect class="cls-20" x="104.01" y="250.61" width="28.33" height="31.08" transform="translate(236.35 532.29) rotate(180)"/><rect class="cls-21" x="71.08" y="281.68" width="28.33" height="31.08" transform="translate(170.49 594.45) rotate(180)"/><rect class="cls-22" x="83.33" y="172.49" width="28.33" height="31.08" transform="translate(195 376.07) rotate(180)"/><rect class="cls-23" x="49.64" y="172.49" width="28.33" height="31.08" transform="translate(127.61 376.07) rotate(180)"/><rect class="cls-24" x="211.98" y="318.64" width="28.33" height="31.08" transform="translate(452.3 668.36) rotate(180)"/><rect class="cls-25" x="133.11" y="318.64" width="28.33" height="31.08" transform="translate(294.55 668.36) rotate(180)"/><rect class="cls-26" x="107.07" y="360.64" width="28.33" height="31.08" transform="translate(242.48 752.35) rotate(180)"/><rect class="cls-27" x="97.12" y="318.64" width="28.33" height="31.08" transform="translate(222.56 668.36) rotate(180)"/><rect class="cls-28" x="105.54" y="444.63" width="28.33" height="31.08" transform="translate(239.41 920.34) rotate(180)"/><rect class="cls-29" x="142.3" y="480.75" width="28.33" height="31.08" transform="translate(312.93 992.57) rotate(180)"/><rect class="cls-30" x="176.76" y="517.7" width="28.33" height="31.08" transform="translate(381.85 1066.49) rotate(180)"/><rect class="cls-31" x="105.54" y="480.75" width="28.33" height="31.08" transform="translate(239.41 992.57) rotate(180)"/><rect class="cls-32" x="72.61" y="511.83" width="28.33" height="31.08" transform="translate(173.55 1054.73) rotate(180)"/><rect class="cls-33" x="51.17" y="402.63" width="28.33" height="31.08" transform="translate(130.67 836.35) rotate(180)"/><rect class="cls-34" x="213.51" y="548.78" width="28.33" height="31.08" transform="translate(455.36 1128.64) rotate(180)"/><rect class="cls-35" x="134.64" y="548.78" width="28.33" height="31.08" transform="translate(297.61 1128.64) rotate(180)"/><rect class="cls-36" x="108.6" y="590.78" width="28.33" height="31.08" transform="translate(245.54 1212.63) rotate(180)"/><rect class="cls-37" x="178.29" y="360.64" width="28.33" height="31.08" transform="translate(384.91 752.35) rotate(180)"/><rect class="cls-38" x="178.29" y="433.71" width="28.33" height="31.08" transform="translate(384.91 898.5) rotate(180)"/><rect class="cls-39" x="107.07" y="396.76" width="28.33" height="31.08" transform="translate(242.48 824.59) rotate(180)"/><rect class="cls-40" x="52.7" y="318.64" width="28.33" height="31.08" transform="translate(133.73 668.36) rotate(180)"/><polygon class="cls-12" points="1233 479 1217 479 1217.1 162.88 1233 145.43 1233 479"/><polygon class="cls-12" points="1247 274 1239 274 1239.05 114.79 1247 106 1247 274"/><polygon class="cls-12" points="1263 231 1255 231 1255.05 71.79 1263 63 1263 231"/><rect class="cls-7" x="1201.67" y="216.5" width="224.33" height="658.5"/><rect class="cls-7" x="1232.8" y="186.65" width="162.07" height="40.94"/><rect class="cls-7" x="1232.8" y="145.7" width="162.07" height="52.88"/><rect class="cls-7" x="1246.87" y="105.61" width="133.92" height="50.33"/><rect class="cls-7" x="1262.65" y="62.96" width="102.36" height="50.33"/><rect class="cls-7" x="1310.42" y="-99.1" width="6.82" height="212.39"/><polyline class="cls-7" points="1283.84 65.52 1313.83 -50.48 1342.37 65.52"/><rect class="cls-41" x="1209.63" y="227.59" width="31.56" height="31.56"/><rect class="cls-42" x="1247.16" y="227.59" width="31.56" height="31.56"/><rect class="cls-43" x="1297.48" y="227.59" width="31.56" height="31.56"/><rect class="cls-44" x="1326.49" y="270.24" width="31.56" height="31.56"/><rect class="cls-45" x="1285.54" y="306.92" width="31.56" height="31.56"/><rect class="cls-46" x="1247.16" y="270.24" width="31.56" height="31.56"/><rect class="cls-47" x="1247.16" y="344.45" width="31.56" height="31.56"/><rect class="cls-48" x="1326.49" y="306.92" width="31.56" height="31.56"/><rect class="cls-49" x="1363.16" y="338.48" width="31.56" height="31.56"/><rect class="cls-50" x="1349.52" y="227.59" width="31.56" height="31.56"/><rect class="cls-51" x="1206.22" y="376.01" width="31.56" height="31.56"/><rect class="cls-52" x="1294.07" y="376.01" width="31.56" height="31.56"/><rect class="cls-53" x="1323.07" y="418.66" width="31.56" height="31.56"/><rect class="cls-54" x="1334.16" y="376.01" width="31.56" height="31.56"/><rect class="cls-55" x="1324.78" y="503.95" width="31.56" height="31.56"/><rect class="cls-56" x="1283.84" y="540.63" width="31.56" height="31.56"/><rect class="cls-57" x="1245.45" y="578.16" width="31.56" height="31.56"/><rect class="cls-58" x="1324.78" y="540.63" width="31.56" height="31.56"/><rect class="cls-59" x="1361.46" y="572.19" width="31.56" height="31.56"/><rect class="cls-60" x="1204.51" y="609.72" width="31.56" height="31.56"/><rect class="cls-61" x="1292.37" y="609.72" width="31.56" height="31.56"/><rect class="cls-62" x="1321.37" y="652.37" width="31.56" height="31.56"/><rect class="cls-63" x="1243.75" y="418.66" width="31.56" height="31.56"/><rect class="cls-64" x="1243.75" y="492.87" width="31.56" height="31.56"/><rect class="cls-65" x="1323.07" y="455.33" width="31.56" height="31.56"/><polygon class="cls-12" points="1202 884 1170 884 1170.19 251.77 1202 216.87 1202 884"/><polygon class="cls-66" points="1423 841 935 838.28 1066 612 1423 612 1423 841"/><rect class="cls-67" x="1066" y="528" width="326" height="84"/><polygon class="cls-68" points="1066 612 935 839.31 935.13 753.34 1066.12 527.71 1066 612"/><rect class="cls-69" x="935" y="753" width="473" height="158"/><polygon class="cls-70" points="1283 694 1102 694 1137 632.55 1301.46 632.55 1283 694"/><polygon class="cls-71" points="1257.73 562.75 1262.05 567.18 1183.28 645.72 1179.06 641.98 1257.73 562.75"/><polygon class="cls-72" points="1195.07 564.58 1191.13 568.86 1272 646.43 1276.03 642.82 1195.07 564.58"/><polygon class="cls-73" points="1212.83 476.86 1207.31 480.49 1256.08 566.02 1261.36 562.99 1212.83 476.86"/><polygon class="cls-74" points="1238.45 474.03 1244.27 477.74 1198.12 568.75 1192.7 565.62 1238.45 474.03"/><polygon class="cls-75" points="1178.3 647.01 1183.76 648.36 1225.43 416.88 1218.57 414.9 1178.3 647.01"/><polygon class="cls-76" points="1271.89 651.08 1277.38 650.23 1234.07 416.87 1227.23 418.4 1271.89 651.08"/><rect class="cls-77" x="1183.42" y="552.12" width="7" height="140.44" transform="translate(787.7 -657) rotate(45)"/><rect class="cls-78" x="1203.19" y="556.05" width="7" height="134.12" transform="translate(2500.55 210.45) rotate(135)"/><rect class="cls-79" x="1206.07" y="476.48" width="7" height="102.57" transform="translate(2520.98 380.03) rotate(150)"/><rect class="cls-80" x="1186.04" y="473.13" width="7" height="110.45" transform="translate(423.54 -523.99) rotate(30)"/><rect class="cls-81" x="1164.29" y="422.81" width="7" height="258.9" transform="translate(167.08 -264.62) rotate(13.91)"/><rect class="cls-82" x="1227.76" y="425.87" width="7" height="255" transform="translate(-81.51 238.96) rotate(-10.73)"/><path class="cls-83" d="M1209.74,405.83l36.12,1.29s9.16,7.82,7,15.09S1240,435,1240,435l-38,.52Z"/><ellipse class="cls-84" cx="1152" cy="396.5" rx="128.5" ry="33" transform="translate(420.15 1370.52) rotate(-72.07)"/><rect class="cls-85" x="1102" y="694" width="181" height="24"/><polygon class="cls-86" points="1301.46 648.36 1283 718 1283 694 1301.46 632.55 1301.46 648.36"/><circle class="cls-87" cx="1168.68" cy="405.57" r="23.5"/><path class="cls-88" d="M1192,274c.65-.5,9.53,9.85,12,13,16.3,20.82,36.43,89.45,4,156-26.31,54-72.15,75.69-86,76-1.54,0-10.92,0-11-1,0-.54,2.76-.9,7-3a39,39,0,0,0,5-3,120.09,120.09,0,0,0,20-17c4.91-5.46,9.31-12.06,20-36,4.14-9.27,9.35-21.45,15-36,5.38-16.33,9.31-30.08,12-40,0,0,15.53-57.37,10-88a63.38,63.38,0,0,0-2-8C1195.31,279,1191.57,274.33,1192,274Z"/><polygon class="cls-66" points="-43 841 445 838.28 314 612 -43 612 -43 841"/><rect class="cls-67" x="-12" y="528" width="326" height="84" transform="translate(302 1140) rotate(180)"/><polygon class="cls-68" points="314 612 445 839.31 444.87 753.34 313.88 527.71 314 612"/><rect class="cls-69" x="-28" y="753" width="473" height="158" transform="translate(417 1664) rotate(180)"/><polygon class="cls-70" points="97 694 278 694 243 632.55 78.54 632.55 97 694"/><polygon class="cls-89" points="122.27 562.75 117.95 567.18 196.72 645.72 200.94 641.98 122.27 562.75"/><polygon class="cls-90" points="184.93 564.58 188.87 568.86 108 646.43 103.97 642.82 184.93 564.58"/><polygon class="cls-91" points="167.17 476.86 172.69 480.49 123.92 566.02 118.64 562.99 167.17 476.86"/><polygon class="cls-92" points="141.55 474.03 135.73 477.74 181.88 568.75 187.3 565.62 141.55 474.03"/><polygon class="cls-93" points="201.7 647.01 196.24 648.36 154.57 416.88 161.43 414.9 201.7 647.01"/><polygon class="cls-94" points="108.11 651.08 102.62 650.23 145.93 416.87 152.77 418.4 108.11 651.08"/><rect class="cls-95" x="189.58" y="552.12" width="7" height="140.44" transform="translate(769.66 925.87) rotate(135)"/><rect class="cls-96" x="169.81" y="556.05" width="7" height="134.12" transform="translate(491.36 59.95) rotate(45)"/><rect class="cls-97" x="166.93" y="476.48" width="7" height="102.57" transform="translate(286.71 -14.51) rotate(30)"/><rect class="cls-98" x="186.96" y="473.13" width="7" height="110.45" transform="translate(619.57 890.69) rotate(150)"/><rect class="cls-99" x="208.71" y="422.81" width="7" height="258.9" transform="translate(551 1037.29) rotate(166.09)"/><rect class="cls-100" x="145.24" y="425.87" width="7" height="255" transform="translate(191.84 1124.76) rotate(-169.27)"/><path class="cls-101" d="M170.26,405.83l-36.12,1.29s-9.16,7.82-7,15.09S140,435,140,435l38,.52Z"/><ellipse class="cls-102" cx="228" cy="396.5" rx="33" ry="128.5" transform="translate(-110.98 89.43) rotate(-17.93)"/><rect class="cls-85" x="97" y="694" width="181" height="24" transform="translate(375 1412) rotate(180)"/><polygon class="cls-86" points="78.54 648.36 97 718 97 694 78.54 632.55 78.54 648.36"/><circle class="cls-103" cx="211.32" cy="405.57" r="23.5"/><path class="cls-104" d="M188,274c-.65-.5-9.53,9.85-12,13-16.3,20.82-36.43,89.45-4,156,26.31,54,72.15,75.69,86,76,1.54,0,10.92,0,11-1,0-.54-2.76-.9-7-3a39,39,0,0,1-5-3,120.09,120.09,0,0,1-20-17c-4.91-5.46-9.31-12.06-20-36-4.14-9.27-9.35-21.45-15-36-5.38-16.33-9.31-30.08-12-40,0,0-15.53-57.37-10-88a63.38,63.38,0,0,1,2-8C184.69,279,188.43,274.33,188,274Z"/></svg>