<svg id="Layer_1" data-name="Layer 1" xmlns="http://www.w3.org/2000/svg" viewBox="0 0 1309.33 708.32"><defs><style>.cls-1{fill:#818182;}.cls-2{fill:#7b8faf;}.cls-3{fill:#5b606b;}</style></defs><rect class="cls-1" x="269.33" y="322" width="837" height="386"/><rect class="cls-2" x="419.21" y="115.19" width="80.65" height="24.88"/><rect class="cls-2" x="426.22" y="96.33" width="66.64" height="23.68"/><rect class="cls-2" x="434.07" y="76.26" width="50.94" height="23.68"/><rect class="cls-2" x="457.84" width="3.4" height="99.94"/><polyline class="cls-2" points="444.61 77.46 459.54 22.88 473.74 77.46"/><rect class="cls-2" x="207.57" y="186.56" width="131.23" height="358.73"/><rect class="cls-2" x="130.62" y="231.12" width="131.23" height="358.73"/><rect class="cls-2" x="113.92" y="186.56" width="56.67" height="358.73"/><rect class="cls-2" x="63.21" y="214.76" width="56.67" height="358.73"/><rect class="cls-2" x="8.33" y="123.39" width="56.67" height="358.73"/><rect class="cls-2" x="722.96" y="285.27" width="131.23" height="358.73"/><rect class="cls-2" x="335.82" y="231.12" width="87.69" height="366.07"/><rect class="cls-2" x="810.65" y="233.94" width="87.69" height="366.07"/><rect class="cls-2" x="888.19" y="120" width="87.69" height="366.07"/><rect class="cls-2" x="919.81" y="183.17" width="87.69" height="366.07"/><rect class="cls-2" x="1136.94" y="114.93" width="87.69" height="366.07"/><rect class="cls-2" x="1221.65" y="200.66" width="87.69" height="366.07"/><rect class="cls-2" x="1006.3" y="152.72" width="67.41" height="366.07"/><rect class="cls-2" x="1071.32" y="76.01" width="67.41" height="366.07"/><rect class="cls-2" x="745.03" y="177.53" width="87.69" height="366.07"/><rect class="cls-2" x="419.33" y="129.03" width="80.53" height="366.07"/><rect class="cls-2" x="423.51" y="189.38" width="131.23" height="358.73"/><rect class="cls-2" x="551.76" y="233.94" width="87.69" height="366.07"/><rect class="cls-2" x="635.27" y="131.85" width="87.69" height="366.07"/><rect class="cls-3" x="626.44" y="297.89" width="218.78" height="601" transform="translate(137.44 1334.22) rotate(-90)"/><rect class="cls-3" x="619" y="328.23" width="127.33" height="373.77"/><rect class="cls-3" x="532" y="299.23" width="127.33" height="373.77"/><rect class="cls-3" x="422" y="240.23" width="127.33" height="373.77"/><rect class="cls-3" x="372" y="296.23" width="127.33" height="373.77"/><rect class="cls-3" x="254" y="141.23" width="127.33" height="373.77"/><rect class="cls-3" x="178" y="179.23" width="127.33" height="373.77"/><rect class="cls-3" x="114" y="198.23" width="127.33" height="373.77"/><rect class="cls-3" y="256.23" width="127.33" height="373.77"/><rect class="cls-3" x="729" y="258.23" width="127.33" height="373.77"/><rect class="cls-3" x="797" y="327.23" width="127.33" height="373.77"/><rect class="cls-3" x="850" y="299.23" width="127.33" height="373.77"/><rect class="cls-3" x="897" y="60" width="127.33" height="493"/><rect class="cls-3" x="1017" y="383" width="127.33" height="324.32"/><rect class="cls-3" x="1049" y="278" width="127.33" height="430.32"/><rect class="cls-3" x="1140" y="214" width="127.33" height="493"/><rect class="cls-3" x="1166" y="187" width="127.33" height="493"/><rect class="cls-3" x="4.66" y="423.32" width="1304" height="284"/></svg>