<svg id="Layer_1" data-name="Layer 1" xmlns="http://www.w3.org/2000/svg" xmlns:xlink="http://www.w3.org/1999/xlink" viewBox="0 0 1366 768"><defs><style>.cls-1{fill:#5b5b5b;}.cls-2{fill:#3f3f3f;}.cls-3{fill:#303030;}.cls-4{fill:#3f465b;}.cls-5{fill:#c4c4c4;}.cls-6{fill:url(#linear-gradient);}.cls-7{fill:url(#linear-gradient-2);}.cls-8{fill:url(#linear-gradient-3);}.cls-9{fill:url(#linear-gradient-4);}.cls-10{fill:url(#linear-gradient-5);}.cls-11{fill:url(#linear-gradient-6);}.cls-12{fill:url(#linear-gradient-7);}.cls-13{fill:url(#linear-gradient-8);}.cls-14{fill:url(#linear-gradient-9);}.cls-15{fill:url(#linear-gradient-10);}.cls-16{fill:url(#linear-gradient-11);}.cls-17{fill:url(#linear-gradient-12);}.cls-18{fill:url(#linear-gradient-13);}.cls-19{fill:url(#linear-gradient-14);}.cls-20{fill:#aeafaf;}.cls-21{fill:#9e9e9e;}.cls-22{fill:url(#linear-gradient-15);}.cls-23{fill:url(#linear-gradient-16);}.cls-24{fill:url(#linear-gradient-17);}.cls-25{fill:url(#linear-gradient-18);}.cls-26{fill:url(#linear-gradient-19);}.cls-27{fill:url(#linear-gradient-20);}.cls-28{fill:url(#linear-gradient-21);}.cls-29{fill:url(#linear-gradient-22);}.cls-30{fill:url(#linear-gradient-23);}.cls-31{fill:url(#linear-gradient-24);}.cls-32{fill:url(#linear-gradient-25);}.cls-33{fill:url(#linear-gradient-26);}.cls-34{fill:url(#linear-gradient-27);}.cls-35{fill:url(#linear-gradient-28);}.cls-36{fill:url(#linear-gradient-29);}.cls-37{fill:url(#linear-gradient-30);}.cls-38{fill:url(#linear-gradient-31);}.cls-39{fill:url(#linear-gradient-32);}</style><linearGradient id="linear-gradient" x1="1369.1" y1="-252.18" x2="1518.99" y2="-189.33" gradientTransform="matrix(0.71, 0.71, 0.39, -0.39, 281.14, -521.11)" gradientUnits="userSpaceOnUse"><stop offset="0.16" stop-color="#4d4d4d"/><stop offset="0.37" stop-color="#aaa"/><stop offset="0.58" stop-color="#f9f9f9"/><stop offset="0.67" stop-color="#999"/><stop offset="0.77" stop-color="#fff"/><stop offset="1" stop-color="#fff"/></linearGradient><linearGradient id="linear-gradient-2" x1="1845.76" y1="619.55" x2="2006.44" y2="686.93" gradientTransform="matrix(-0.71, 0.71, -0.37, -0.37, 2828.6, -531.7)" xlink:href="#linear-gradient"/><linearGradient id="linear-gradient-3" x1="1788.47" y1="682.61" x2="1967.2" y2="757.56" gradientTransform="matrix(-0.87, 0.5, -0.2, -0.35, 2995.02, -185.32)" xlink:href="#linear-gradient"/><linearGradient id="linear-gradient-4" x1="1335.8" y1="45.79" x2="1499.9" y2="114.61" gradientTransform="matrix(0.87, 0.5, 0.22, -0.38, -30.62, -176.25)" xlink:href="#linear-gradient"/><linearGradient id="linear-gradient-5" x1="955.51" y1="649" x2="1153.62" y2="732.08" gradientTransform="matrix(0.97, 0.24, -0.24, 0.98, 341.81, -416.13)" gradientUnits="userSpaceOnUse"><stop offset="0"/><stop offset="0.36" stop-color="#4d4d4d"/><stop offset="0.52" stop-color="#b3b3b3"/><stop offset="0.64" stop-color="#fff"/><stop offset="0.75" stop-color="#999"/><stop offset="1" stop-color="#fff"/></linearGradient><linearGradient id="linear-gradient-6" x1="982.2" y1="346.78" x2="1156.49" y2="419.87" gradientTransform="translate(127.17 337.17) rotate(-10.73)" gradientUnits="userSpaceOnUse"><stop offset="0"/><stop offset="0.28" stop-color="#4d4d4d"/><stop offset="0.37" stop-color="#aaa"/><stop offset="0.58" stop-color="#f9f9f9"/><stop offset="0.67" stop-color="#999"/><stop offset="0.77" stop-color="#fff"/><stop offset="1" stop-color="#fff"/></linearGradient><linearGradient id="linear-gradient-7" x1="1339.71" y1="-326.29" x2="1527.86" y2="-247.39" gradientTransform="matrix(1, 0, 0, -0.55, -250.01, 443.48)" xlink:href="#linear-gradient"/><linearGradient id="linear-gradient-8" x1="1864.02" y1="626.46" x2="2052.17" y2="705.37" gradientTransform="translate(-754.55 253.71) scale(1 0.53)" xlink:href="#linear-gradient"/><linearGradient id="linear-gradient-9" x1="1808.62" y1="698.01" x2="1996.77" y2="776.91" gradientTransform="translate(-696.27 211.77) scale(1 0.4)" xlink:href="#linear-gradient"/><linearGradient id="linear-gradient-10" x1="1302.71" y1="-6.21" x2="1490.86" y2="72.7" gradientTransform="matrix(1, 0, 0, -0.43, -210.39, 522.05)" xlink:href="#linear-gradient"/><linearGradient id="linear-gradient-11" x1="932.79" y1="678.63" x2="1120.94" y2="757.53" gradientTransform="translate(137.78 -195.16) scale(1 1.02)" xlink:href="#linear-gradient-5"/><linearGradient id="linear-gradient-12" x1="951.14" y1="359.23" x2="1139.29" y2="438.13" gradientTransform="translate(182.89 136.31)" xlink:href="#linear-gradient-6"/><linearGradient id="linear-gradient-13" x1="1181.45" y1="384.81" x2="1264.07" y2="419.46" gradientTransform="translate(-1.75 5.49) rotate(-0.19)" xlink:href="#linear-gradient-5"/><linearGradient id="linear-gradient-14" x1="1085.54" y1="351.56" x2="1209.54" y2="403.56" gradientTransform="translate(1150.78 -828.8) rotate(72.07)" gradientUnits="userSpaceOnUse"><stop offset="0.02" stop-color="#fff"/><stop offset="0.25" stop-color="#f4f4f4"/><stop offset="0.43" stop-color="#b3b3b3"/><stop offset="0.61" stop-color="#999"/></linearGradient><linearGradient id="linear-gradient-15" x1="1516" y1="-22.67" x2="1563" y2="-22.67" gradientTransform="translate(2661.46 733.78) rotate(-166.09)" gradientUnits="userSpaceOnUse"><stop offset="0" stop-color="#4d4d4d"/><stop offset="0.53" stop-color="#b3b3b3"/><stop offset="1" stop-color="#fff"/></linearGradient><linearGradient id="linear-gradient-16" x1="1103.44" y1="358.83" x2="1247.4" y2="419.2" gradientUnits="userSpaceOnUse"><stop offset="0.21" stop-color="#fff"/><stop offset="0.31" stop-color="#b3b3b3"/><stop offset="0.49" stop-color="#fff"/><stop offset="0.61" stop-color="#999"/><stop offset="0.82" stop-color="#2a2a28"/><stop offset="1"/></linearGradient><linearGradient id="linear-gradient-17" x1="2476.43" y1="1758.47" x2="2626.32" y2="1821.33" gradientTransform="matrix(-0.71, 0.71, -0.39, -0.39, 2650.86, -521.11)" xlink:href="#linear-gradient"/><linearGradient id="linear-gradient-18" x1="738.43" y1="-1485.83" x2="899.11" y2="-1418.45" gradientTransform="matrix(0.71, 0.71, 0.37, -0.37, 103.4, -531.7)" xlink:href="#linear-gradient"/><linearGradient id="linear-gradient-19" x1="432.28" y1="-1263.95" x2="611" y2="-1189" gradientTransform="matrix(0.87, 0.5, 0.2, -0.35, -63.02, -185.32)" xlink:href="#linear-gradient"/><linearGradient id="linear-gradient-20" x1="2691.99" y1="1853.48" x2="2856.09" y2="1922.3" gradientTransform="matrix(-0.87, 0.5, -0.22, -0.38, 2962.62, -176.25)" xlink:href="#linear-gradient"/><linearGradient id="linear-gradient-21" x1="2475.55" y1="275.97" x2="2673.67" y2="359.05" gradientTransform="matrix(-0.97, 0.24, 0.24, 0.98, 2590.19, -416.13)" xlink:href="#linear-gradient-5"/><linearGradient id="linear-gradient-22" x1="2520.81" y1="638.39" x2="2695.1" y2="711.48" gradientTransform="matrix(-0.98, -0.19, -0.19, 0.98, 2804.83, 337.17)" xlink:href="#linear-gradient-6"/><linearGradient id="linear-gradient-23" x1="2447.04" y1="1684.37" x2="2635.19" y2="1763.27" gradientTransform="translate(-2351.18 -346.13) scale(1 0.55)" xlink:href="#linear-gradient"/><linearGradient id="linear-gradient-24" x1="756.69" y1="-1478.91" x2="944.84" y2="-1400.01" gradientTransform="matrix(1, 0, 0, -0.53, -680.6, -154.83)" xlink:href="#linear-gradient"/><linearGradient id="linear-gradient-25" x1="452.42" y1="-1248.55" x2="640.58" y2="-1169.64" gradientTransform="matrix(1, 0, 0, -0.4, -379.22, 20.76)" xlink:href="#linear-gradient"/><linearGradient id="linear-gradient-26" x1="2658.9" y1="1801.48" x2="2847.06" y2="1880.39" gradientTransform="translate(-2565.67 -288.35) scale(1 0.43)" xlink:href="#linear-gradient"/><linearGradient id="linear-gradient-27" x1="2452.83" y1="307.71" x2="2640.99" y2="386.62" gradientTransform="matrix(1, 0, 0, -1.02, -2337.85, 883.1)" xlink:href="#linear-gradient-5"/><linearGradient id="linear-gradient-28" x1="2489.75" y1="650.84" x2="2677.9" y2="729.75" gradientTransform="matrix(1, 0, 0, -1, -2438.23, 1222.05)" xlink:href="#linear-gradient-6"/><linearGradient id="linear-gradient-29" x1="2747.44" y1="390.01" x2="2830.06" y2="424.66" gradientTransform="matrix(-1, 0, 0, 1, 2933.75, 5.49)" xlink:href="#linear-gradient-5"/><linearGradient id="linear-gradient-30" x1="2651.54" y1="351.56" x2="2775.54" y2="403.56" gradientTransform="matrix(-0.95, -0.31, -0.31, 0.95, 2916.27, 852.75)" xlink:href="#linear-gradient-14"/><linearGradient id="linear-gradient-31" x1="-4.05" y1="353.91" x2="42.95" y2="353.91" gradientTransform="matrix(0.97, -0.24, -0.24, -0.97, 270.54, 733.78)" xlink:href="#linear-gradient-15"/><linearGradient id="linear-gradient-32" x1="2669.44" y1="358.83" x2="2813.4" y2="419.2" gradientTransform="matrix(-1, 0, 0, 1, 2932, 0)" xlink:href="#linear-gradient-16"/></defs><polygon class="cls-1" points="1416 821 928 818.28 1059 592 1416 592 1416 821"/><rect class="cls-2" x="1059" y="508" width="326" height="84"/><polygon class="cls-3" points="1059 592 928 819.31 928.13 733.34 1059.12 507.71 1059 592"/><rect class="cls-4" x="928" y="733" width="473" height="158"/><polygon class="cls-5" points="1276 674 1095 674 1130 612.55 1294.46 612.55 1276 674"/><polygon class="cls-6" points="1250.73 542.75 1255.05 547.18 1176.28 625.72 1172.06 621.98 1250.73 542.75"/><polygon class="cls-7" points="1188.07 544.58 1184.13 548.86 1265 626.43 1269.03 622.82 1188.07 544.58"/><polygon class="cls-8" points="1205.83 456.86 1200.31 460.49 1249.08 546.02 1254.36 542.99 1205.83 456.86"/><polygon class="cls-9" points="1231.45 454.03 1237.27 457.74 1191.12 548.75 1185.7 545.62 1231.45 454.03"/><polygon class="cls-10" points="1171.3 627.01 1176.76 628.36 1218.43 396.88 1211.57 394.9 1171.3 627.01"/><polygon class="cls-11" points="1264.89 631.08 1270.38 630.23 1227.07 396.87 1220.23 398.4 1264.89 631.08"/><rect class="cls-12" x="1176.42" y="532.12" width="7" height="140.44" transform="translate(771.51 -657.91) rotate(45)"/><rect class="cls-13" x="1196.19" y="536.05" width="7" height="134.12" transform="translate(2474.46 181.26) rotate(135)"/><rect class="cls-14" x="1199.07" y="456.48" width="7" height="102.57" transform="translate(2497.92 346.21) rotate(150)"/><rect class="cls-15" x="1179.04" y="453.13" width="7" height="110.45" transform="matrix(0.87, 0.5, -0.5, 0.87, 412.61, -523.17)"/><rect class="cls-16" x="1157.29" y="402.81" width="7" height="258.9" transform="translate(162.06 -263.52) rotate(13.91)"/><rect class="cls-17" x="1220.76" y="405.87" width="7" height="255" transform="translate(-77.91 237.3) rotate(-10.73)"/><path class="cls-18" d="M1202.74,385.83l36.12,1.29s9.16,7.82,7,15.09S1233,415,1233,415l-38,.52Z"/><ellipse class="cls-19" cx="1145" cy="376.5" rx="128.5" ry="33" transform="translate(434.34 1350.02) rotate(-72.07)"/><rect class="cls-20" x="1095" y="674" width="181" height="24"/><polygon class="cls-21" points="1294.46 628.36 1276 698 1276 674 1294.46 612.55 1294.46 628.36"/><circle class="cls-22" cx="1161.68" cy="385.57" r="23.5"/><path class="cls-23" d="M1185,254c.65-.5,9.53,9.85,12,13,16.3,20.82,36.43,89.45,4,156-26.31,54-72.15,75.69-86,76-1.54,0-10.92,0-11-1,0-.54,2.76-.9,7-3a39,39,0,0,0,5-3,120.09,120.09,0,0,0,20-17c4.91-5.46,9.31-12.06,20-36,4.14-9.27,9.35-21.45,15-36,5.38-16.33,9.31-30.08,12-40,0,0,15.53-57.37,10-88a63.38,63.38,0,0,0-2-8C1188.31,259,1184.57,254.33,1185,254Z"/><polygon class="cls-1" points="-50 821 438 818.28 307 592 -50 592 -50 821"/><rect class="cls-2" x="-19" y="508" width="326" height="84" transform="translate(288 1100) rotate(180)"/><polygon class="cls-3" points="307 592 438 819.31 437.87 733.34 306.88 507.71 307 592"/><rect class="cls-4" x="-35" y="733" width="473" height="158" transform="translate(403 1624) rotate(180)"/><polygon class="cls-5" points="90 674 271 674 236 612.55 71.54 612.55 90 674"/><polygon class="cls-24" points="115.27 542.75 110.95 547.18 189.72 625.72 193.94 621.98 115.27 542.75"/><polygon class="cls-25" points="177.93 544.58 181.87 548.86 101 626.43 96.97 622.82 177.93 544.58"/><polygon class="cls-26" points="160.17 456.86 165.69 460.49 116.92 546.02 111.64 542.99 160.17 456.86"/><polygon class="cls-27" points="134.55 454.03 128.73 457.74 174.88 548.75 180.3 545.62 134.55 454.03"/><polygon class="cls-28" points="194.7 627.01 189.24 628.36 147.57 396.88 154.43 394.9 194.7 627.01"/><polygon class="cls-29" points="101.11 631.08 95.62 630.23 138.93 396.87 145.77 398.4 101.11 631.08"/><rect class="cls-30" x="182.58" y="532.12" width="7" height="140.44" transform="translate(743.57 896.68) rotate(135)"/><rect class="cls-31" x="162.81" y="536.05" width="7" height="134.12" transform="translate(475.17 59.05) rotate(45)"/><rect class="cls-32" x="159.93" y="456.48" width="7" height="102.57" transform="translate(275.78 -13.69) rotate(30)"/><rect class="cls-33" x="179.96" y="453.13" width="7" height="110.45" transform="translate(596.51 856.87) rotate(150)"/><rect class="cls-34" x="201.71" y="402.81" width="7" height="258.9" transform="translate(532.4 999.56) rotate(166.09)"/><rect class="cls-35" x="138.24" y="405.87" width="7" height="255" transform="translate(181.68 1083.81) rotate(-169.27)"/><path class="cls-36" d="M163.26,385.83l-36.12,1.29s-9.16,7.82-7,15.09S133,415,133,415l38,.52Z"/><ellipse class="cls-37" cx="221" cy="376.5" rx="33" ry="128.5" transform="translate(-105.16 86.31) rotate(-17.93)"/><rect class="cls-20" x="90" y="674" width="181" height="24" transform="translate(361 1372) rotate(180)"/><polygon class="cls-21" points="71.54 628.36 90 698 90 674 71.54 612.55 71.54 628.36"/><circle class="cls-38" cx="204.32" cy="385.57" r="23.5"/><path class="cls-39" d="M181,254c-.65-.5-9.53,9.85-12,13-16.3,20.82-36.43,89.45-4,156,26.31,54,72.15,75.69,86,76,1.54,0,10.92,0,11-1,0-.54-2.76-.9-7-3a39,39,0,0,1-5-3,120.09,120.09,0,0,1-20-17c-4.91-5.46-9.31-12.06-20-36-4.14-9.27-9.35-21.45-15-36-5.38-16.33-9.31-30.08-12-40,0,0-15.53-57.37-10-88a63.38,63.38,0,0,1,2-8C177.69,259,181.43,254.33,181,254Z"/></svg>