<svg id="Layer_1" data-name="Layer 1" xmlns="http://www.w3.org/2000/svg" xmlns:xlink="http://www.w3.org/1999/xlink" viewBox="0 0 457 637.19"><defs><style>.cls-1{fill:#5b5b5b;}.cls-2{fill:#3f3f3f;}.cls-3{fill:#303030;}.cls-4{fill:#3f465b;}.cls-5{fill:#c4c4c4;}.cls-6{fill:url(#linear-gradient);}.cls-7{fill:url(#linear-gradient-2);}.cls-8{fill:url(#linear-gradient-3);}.cls-9{fill:url(#linear-gradient-4);}.cls-10{fill:url(#linear-gradient-5);}.cls-11{fill:url(#linear-gradient-6);}.cls-12{fill:url(#linear-gradient-7);}.cls-13{fill:url(#linear-gradient-8);}.cls-14{fill:url(#linear-gradient-9);}.cls-15{fill:url(#linear-gradient-10);}.cls-16{fill:url(#linear-gradient-11);}.cls-17{fill:url(#linear-gradient-12);}.cls-18{fill:url(#linear-gradient-13);}.cls-19{fill:url(#linear-gradient-14);}.cls-20{fill:#aeafaf;}.cls-21{fill:#9e9e9e;}.cls-22{fill:url(#linear-gradient-15);}.cls-23{fill:url(#linear-gradient-16);}</style><linearGradient id="linear-gradient" x1="831.12" y1="-1217.99" x2="981" y2="-1155.13" gradientTransform="matrix(0.71, 0.71, 0.39, -0.39, 109.66, -770.61)" gradientUnits="userSpaceOnUse"><stop offset="0.16" stop-color="#4d4d4d"/><stop offset="0.37" stop-color="#aaa"/><stop offset="0.58" stop-color="#f9f9f9"/><stop offset="0.67" stop-color="#999"/><stop offset="0.77" stop-color="#fff"/><stop offset="1" stop-color="#fff"/></linearGradient><linearGradient id="linear-gradient-2" x1="-984.67" y1="-4680.82" x2="-823.99" y2="-4613.44" gradientTransform="matrix(-0.71, 0.71, -0.37, -0.37, -2072.05, -755.33)" xlink:href="#linear-gradient"/><linearGradient id="linear-gradient-3" x1="-1552.85" y1="-5442.19" x2="-1374.13" y2="-5367.24" gradientTransform="matrix(-0.87, 0.5, -0.2, -0.35, -2058.5, -902.09)" xlink:href="#linear-gradient"/><linearGradient id="linear-gradient-4" x1="802.13" y1="-2005.07" x2="966.22" y2="-1936.25" gradientTransform="matrix(0.87, 0.5, 0.22, -0.38, -52.28, -932.54)" xlink:href="#linear-gradient"/><linearGradient id="linear-gradient-5" x1="274.04" y1="-38.06" x2="472.16" y2="45.02" gradientTransform="matrix(0.97, 0.24, -0.24, 0.98, -91.52, 167.19)" gradientUnits="userSpaceOnUse"><stop offset="0"/><stop offset="0.36" stop-color="#4d4d4d"/><stop offset="0.52" stop-color="#b3b3b3"/><stop offset="0.64" stop-color="#fff"/><stop offset="0.75" stop-color="#999"/><stop offset="1" stop-color="#fff"/></linearGradient><linearGradient id="linear-gradient-6" x1="-201.89" y1="373.43" x2="-27.61" y2="446.52" gradientTransform="translate(357.59 -163.32) rotate(-10.73)" gradientUnits="userSpaceOnUse"><stop offset="0"/><stop offset="0.28" stop-color="#4d4d4d"/><stop offset="0.37" stop-color="#aaa"/><stop offset="0.58" stop-color="#f9f9f9"/><stop offset="0.67" stop-color="#999"/><stop offset="0.77" stop-color="#fff"/><stop offset="1" stop-color="#fff"/></linearGradient><linearGradient id="linear-gradient-7" x1="801.72" y1="-1292.09" x2="989.87" y2="-1213.19" gradientTransform="matrix(1, 0, 0, -0.55, -640.02, -342.23)" xlink:href="#linear-gradient"/><linearGradient id="linear-gradient-8" x1="-966.41" y1="-4673.9" x2="-778.26" y2="-4595" gradientTransform="translate(1147.87 2787.65) scale(1 0.53)" xlink:href="#linear-gradient"/><linearGradient id="linear-gradient-9" x1="-1532.71" y1="-5426.79" x2="-1344.55" y2="-5347.89" gradientTransform="translate(1717.06 2421.66) scale(1 0.4)" xlink:href="#linear-gradient"/><linearGradient id="linear-gradient-10" x1="769.03" y1="-2057.07" x2="957.19" y2="-1978.16" gradientTransform="matrix(1, 0, 0, -0.43, -604.72, -620.09)" xlink:href="#linear-gradient"/><linearGradient id="linear-gradient-11" x1="251.32" y1="-12.9" x2="439.48" y2="66.01" gradientTransform="translate(-108.76 253.13) scale(1 1.02)" xlink:href="#linear-gradient-5"/><linearGradient id="linear-gradient-12" x1="-232.95" y1="385.88" x2="-44.8" y2="464.78" gradientTransform="translate(438.99 -144.16)" xlink:href="#linear-gradient-6"/><linearGradient id="linear-gradient-13" x1="249.38" y1="136.38" x2="332" y2="171.03" gradientTransform="translate(3.14 -2.99) rotate(-0.19)" xlink:href="#linear-gradient-5"/><linearGradient id="linear-gradient-14" x1="157.54" y1="97.75" x2="281.54" y2="149.75" gradientTransform="translate(266.94 -121.54) rotate(72.07)" gradientUnits="userSpaceOnUse"><stop offset="0.02" stop-color="#fff"/><stop offset="0.25" stop-color="#f4f4f4"/><stop offset="0.43" stop-color="#b3b3b3"/><stop offset="0.61" stop-color="#999"/></linearGradient><linearGradient id="linear-gradient-15" x1="-2900.54" y1="-2296.78" x2="-2853.54" y2="-2296.78" gradientTransform="translate(-2006.6 -2789.49) rotate(-166.09)" gradientUnits="userSpaceOnUse"><stop offset="0" stop-color="#4d4d4d"/><stop offset="0.53" stop-color="#b3b3b3"/><stop offset="1" stop-color="#fff"/></linearGradient><linearGradient id="linear-gradient-16" x1="175.44" y1="105.02" x2="319.4" y2="165.39" gradientUnits="userSpaceOnUse"><stop offset="0.21" stop-color="#fff"/><stop offset="0.31" stop-color="#b3b3b3"/><stop offset="0.49" stop-color="#fff"/><stop offset="0.61" stop-color="#999"/><stop offset="0.82" stop-color="#2a2a28"/><stop offset="1"/></linearGradient></defs><polygon class="cls-1" points="457 567.19 0 564.47 122.68 338.19 457 338.19 457 567.19"/><rect class="cls-2" x="131" y="254.19" width="326" height="84"/><polygon class="cls-3" points="131 338.19 0 565.5 0.14 479.53 131.12 253.9 131 338.19"/><rect class="cls-4" y="479.19" width="457" height="158"/><polygon class="cls-5" points="348 420.19 167 420.19 202 358.74 366.46 358.74 348 420.19"/><polygon class="cls-6" points="322.73 288.94 327.05 293.37 248.28 371.91 244.06 368.17 322.73 288.94"/><polygon class="cls-7" points="260.07 290.77 256.13 295.05 337 372.62 341.03 369.01 260.07 290.77"/><polygon class="cls-8" points="277.83 203.05 272.31 206.67 321.08 292.21 326.36 289.18 277.83 203.05"/><polygon class="cls-9" points="303.45 200.22 309.27 203.93 263.12 294.94 257.7 291.81 303.45 200.22"/><polygon class="cls-10" points="243.3 373.2 248.76 374.55 290.43 143.07 283.57 141.09 243.3 373.2"/><polygon class="cls-11" points="336.89 377.27 342.38 376.42 299.07 143.06 292.23 144.59 336.89 377.27"/><rect class="cls-12" x="248.42" y="278.31" width="7" height="140.44" transform="translate(320.23 -76.05) rotate(45)"/><rect class="cls-13" x="268.19" y="282.23" width="7" height="134.12" transform="translate(710.79 404.17) rotate(135)"/><rect class="cls-14" x="271.07" y="202.67" width="7" height="102.57" transform="translate(639.34 336.6) rotate(150)"/><rect class="cls-15" x="251.04" y="199.31" width="7" height="110.45" transform="translate(161.37 -93.17) rotate(30)"/><rect class="cls-16" x="229.29" y="149" width="7" height="258.9" transform="translate(73.79 -47.81) rotate(13.91)"/><rect class="cls-17" x="292.76" y="152.06" width="7" height="255" transform="translate(-46.88 60.06) rotate(-10.73)"/><path class="cls-18" d="M274.74,132l36.12,1.29s9.16,7.82,7,15.09S305,161.19,305,161.19l-38,.52Z"/><ellipse class="cls-19" cx="217" cy="122.69" rx="128.5" ry="33" transform="translate(33.47 291.39) rotate(-72.07)"/><rect class="cls-20" x="167" y="420.19" width="181" height="24"/><polygon class="cls-21" points="366.46 374.55 348 444.19 348 420.19 366.46 358.74 366.46 374.55"/><circle class="cls-22" cx="233.68" cy="131.76" r="23.5"/><path class="cls-23" d="M257,.19c.65-.5,9.53,9.84,12,13,16.3,20.81,36.43,89.45,4,156-26.31,54-72.15,75.69-86,76-1.54,0-10.92,0-11-1,0-.55,2.76-.9,7-3a40.18,40.18,0,0,0,5-3,120.09,120.09,0,0,0,20-17c4.91-5.46,9.31-12.06,20-36,4.14-9.27,9.35-21.45,15-36,5.38-16.33,9.31-30.08,12-40,0,0,15.53-57.37,10-88a63.38,63.38,0,0,0-2-8C260.31,5.17,256.57.52,257,.19Z"/></svg>