<svg xmlns="http://www.w3.org/2000/svg" xmlns:xlink="http://www.w3.org/1999/xlink" viewBox="0 0 488 637.1986"><defs><style>.a{fill:#5b5b5b;}.b{fill:#3f3f3f;}.c{fill:#303030;}.d{fill:#3f465b;}.e{fill:#c4c4c4;}.f{fill:url(#a);}.g{fill:url(#b);}.h{fill:url(#c);}.i{fill:url(#d);}.j{fill:url(#e);}.k{fill:url(#f);}.l{fill:url(#g);}.m{fill:url(#h);}.n{fill:url(#i);}.o{fill:url(#j);}.p{fill:url(#k);}.q{fill:url(#l);}.r{fill:url(#m);}.s{fill:url(#n);}.t{fill:#aeafaf;}.u{fill:#9e9e9e;}.v{fill:url(#o);}.w{fill:url(#p);}</style><linearGradient id="a" x1="2164.61013" y1="-536.1583" x2="2314.50027" y2="-599.01829" gradientTransform="matrix(-0.71, 0.71, 0.39, 0.39, 2002.63267, -1031.21884)" gradientUnits="userSpaceOnUse"><stop offset="0.16" stop-color="#4d4d4d"/><stop offset="0.37" stop-color="#aaa"/><stop offset="0.58" stop-color="#f9f9f9"/><stop offset="0.67" stop-color="#999"/><stop offset="0.77" stop-color="#fff"/><stop offset="1" stop-color="#fff"/></linearGradient><linearGradient id="b" x1="818.12266" y1="1998.69347" x2="978.80265" y2="1931.31347" gradientTransform="translate(286.20348 -1028.3849) rotate(45) scale(1.00409 0.52326)" xlink:href="#a"/><linearGradient id="c" x1="521.10342" y1="1925.86427" x2="699.82342" y2="1850.91431" gradientTransform="matrix(0.87, 0.5, -0.2, 0.35, 41.83972, -716.04091)" xlink:href="#a"/><linearGradient id="d" x1="2317.33876" y1="-534.41431" x2="2481.43886" y2="-603.23438" gradientTransform="matrix(-0.87, 0.5, 0.22, 0.38, 2392.33643, -727.10687)" xlink:href="#a"/><linearGradient id="e" x1="2017.98532" y1="179.96602" x2="2216.1052" y2="96.88603" gradientTransform="matrix(-0.97, 0.24, -0.24, -0.98, 2306.0576, -112.91677)" gradientUnits="userSpaceOnUse"><stop offset="0"/><stop offset="0.36" stop-color="#4d4d4d"/><stop offset="0.52" stop-color="#b3b3b3"/><stop offset="0.64" stop-color="#fff"/><stop offset="0.75" stop-color="#999"/><stop offset="1" stop-color="#fff"/></linearGradient><linearGradient id="f" x1="1989.76173" y1="-76.69388" x2="2164.05177" y2="-149.78384" gradientTransform="translate(2229.82234 543.20325) rotate(-169.02776)" gradientUnits="userSpaceOnUse"><stop offset="0"/><stop offset="0.28" stop-color="#4d4d4d"/><stop offset="0.37" stop-color="#aaa"/><stop offset="0.58" stop-color="#f9f9f9"/><stop offset="0.67" stop-color="#999"/><stop offset="0.77" stop-color="#fff"/><stop offset="1" stop-color="#fff"/></linearGradient><linearGradient id="g" x1="2134.66433" y1="-461.00219" x2="2322.81423" y2="-539.90221" gradientTransform="matrix(-1, 0, 0, 0.55, 2461.77286, 623.08606)" xlink:href="#a"/><linearGradient id="h" x1="831.52969" y1="1979.31895" x2="1019.67972" y2="1900.41892" gradientTransform="matrix(0, 1, -0.53, 0, 1244.42107, -576.36231)" xlink:href="#a"/><linearGradient id="i" x1="545.36926" y1="1916.11881" x2="733.52927" y2="1837.20878" gradientTransform="matrix(0, 1, -0.4, 0, 965.15039, -379.21202)" xlink:href="#a"/><linearGradient id="j" x1="2266.56855" y1="-508.64465" x2="2454.7287" y2="-587.55468" gradientTransform="matrix(-1, 0, 0, 0.43, 2595.05837, 490.40592)" xlink:href="#a"/><linearGradient id="k" x1="1996.75247" y1="152.28727" x2="2184.91238" y2="73.37726" gradientTransform="translate(2341.66945 395.41767) rotate(180) scale(1 1.02)" xlink:href="#e"/><linearGradient id="l" x1="1963.71703" y1="-80.5469" x2="2151.86693" y2="-159.45688" gradientTransform="translate(310.107 2333.51274) rotate(-90)" xlink:href="#f"/><linearGradient id="m" x1="2248.93451" y1="134.5211" x2="2331.55463" y2="99.87111" gradientTransform="translate(2481.75 267.8872) rotate(180)" xlink:href="#e"/><linearGradient id="n" x1="2146.55705" y1="159.48116" x2="2270.55704" y2="107.48117" gradientTransform="translate(2328.6345 934.07592) rotate(-161.92768)" gradientUnits="userSpaceOnUse"><stop offset="0.02" stop-color="#fff"/><stop offset="0.25" stop-color="#f4f4f4"/><stop offset="0.43" stop-color="#b3b3b3"/><stop offset="0.61" stop-color="#999"/></linearGradient><linearGradient id="o" x1="0.8163" y1="533.92617" x2="47.86263" y2="533.92617" gradientTransform="matrix(0.97, -0.24, 0.24, 0.97, 102.67235, -380.32403)" gradientUnits="userSpaceOnUse"><stop offset="0" stop-color="#4d4d4d"/><stop offset="0.53" stop-color="#b3b3b3"/><stop offset="1" stop-color="#fff"/></linearGradient><linearGradient id="p" x1="2167.4413" y1="157.37185" x2="2311.40127" y2="97.00182" gradientTransform="translate(2480 262.3972) rotate(180)" gradientUnits="userSpaceOnUse"><stop offset="0.21" stop-color="#fff"/><stop offset="0.31" stop-color="#b3b3b3"/><stop offset="0.49" stop-color="#fff"/><stop offset="0.61" stop-color="#999"/><stop offset="0.82" stop-color="#2a2a28"/><stop offset="1"/></linearGradient></defs><polygon class="a" points="0 567.199 488 564.479 357 338.199 0 338.199 0 567.199"/><rect class="b" x="31" y="254.1986" width="326" height="84"/><polygon class="c" points="357 338.199 488 565.509 487.87 479.539 356.88 253.909 357 338.199"/><rect class="d" x="15" y="479.1986" width="473" height="158"/><polygon class="e" points="140 420.199 321 420.199 286 358.749 121.54 358.749 140 420.199"/><polygon class="f" points="165.27 288.949 160.95 293.379 239.72 371.919 243.94 368.179 165.27 288.949"/><polygon class="g" points="227.93 290.779 231.87 295.059 151 372.629 146.97 369.019 227.93 290.779"/><polygon class="h" points="210.17 203.059 215.69 206.689 166.92 292.219 161.64 289.189 210.17 203.059"/><polygon class="i" points="184.55 200.229 178.73 203.939 224.88 294.949 230.3 291.819 184.55 200.229"/><polygon class="j" points="244.7 373.209 239.24 374.559 197.57 143.079 204.43 141.099 244.7 373.209"/><polygon class="k" points="151.11 377.279 145.62 376.429 188.93 143.069 195.77 144.599 151.11 377.279"/><rect class="l" x="232.57289" y="278.31833" width="7" height="140.44" transform="translate(-177.30967 269.01326) rotate(-45)"/><rect class="m" x="149.24579" y="345.81068" width="134.11999" height="7" transform="translate(-183.64545 255.26202) rotate(-45)"/><rect class="n" x="162.14703" y="250.46098" width="102.56998" height="7" transform="translate(-113.22065 311.81804) rotate(-60)"/><rect class="o" x="229.95148" y="199.32525" width="7" height="110.45001" transform="translate(-95.99856 150.82901) rotate(-30)"/><rect class="p" x="251.75392" y="148.9894" width="7" height="258.89996" transform="translate(-59.4507 69.52778) rotate(-13.91)"/><rect class="q" x="64.22161" y="276.0751" width="255" height="7" transform="translate(-118.66017 415.89297) rotate(-79.27)"/><path class="r" d="M213.26,132.02859l-36.12,1.29s-9.16,7.82-7,15.09,12.86,12.79,12.86,12.79l38,.52Z"/><ellipse class="s" cx="271.01411" cy="122.68734" rx="33" ry="128.5" transform="translate(-24.60764 89.39152) rotate(-17.93)"/><rect class="t" x="140" y="420.1986" width="181" height="24"/><polygon class="u" points="121.54 374.559 140 444.199 140 420.199 121.54 358.749 121.54 374.559"/><circle class="v" cx="254.32001" cy="131.76861" r="23.5"/><path class="w" d="M231,.1986c-.65-.5-9.53,9.85-12,13-16.3,20.82-36.43,89.45-4,156,26.31,54,72.15,75.69,86,76,1.54,0,10.92,0,11-1,0-.54-2.76-.9-7-3a39.003,39.003,0,0,1-5-3,120.0882,120.0882,0,0,1-20-17c-4.91-5.46-9.31-12.06-20-36-4.14-9.27-9.35-21.45-15-36-5.38-16.33-9.31-30.08-12-40,0,0-15.53-57.37-10-88a63.3802,63.3802,0,0,1,2-8C227.69,5.1986,231.43.5286,231,.1986Z"/></svg>