<svg id="Layer_1" data-name="Layer 1" xmlns="http://www.w3.org/2000/svg" xmlns:xlink="http://www.w3.org/1999/xlink" viewBox="0 0 151.67 245.38"><defs><style>.cls-1{fill:url(#linear-gradient);}.cls-2{fill:url(#linear-gradient-2);}.cls-3{fill:url(#linear-gradient-3);}.cls-4{fill:url(#linear-gradient-4);}</style><linearGradient id="linear-gradient" x1="-438.5" y1="131.11" x2="-355.87" y2="165.75" gradientTransform="translate(524.53 0) rotate(-0.19)" gradientUnits="userSpaceOnUse"><stop offset="0"/><stop offset="0.36" stop-color="#4d4d4d"/><stop offset="0.52" stop-color="#b3b3b3"/><stop offset="0.64" stop-color="#fff"/><stop offset="0.75" stop-color="#999"/><stop offset="1" stop-color="#fff"/></linearGradient><linearGradient id="linear-gradient-2" x1="-530.29" y1="97.75" x2="-406.29" y2="149.75" gradientTransform="translate(312.16 532.89) rotate(72.07)" gradientUnits="userSpaceOnUse"><stop offset="0.02" stop-color="#fff"/><stop offset="0.25" stop-color="#f4f4f4"/><stop offset="0.43" stop-color="#b3b3b3"/><stop offset="0.61" stop-color="#999"/></linearGradient><linearGradient id="linear-gradient-3" x1="-466.75" y1="-2709.71" x2="-419.75" y2="-2709.71" gradientTransform="translate(288.56 -2605.03) rotate(-166.09)" gradientUnits="userSpaceOnUse"><stop offset="0" stop-color="#4d4d4d"/><stop offset="0.53" stop-color="#b3b3b3"/><stop offset="1" stop-color="#fff"/></linearGradient><linearGradient id="linear-gradient-4" x1="-512.39" y1="105.02" x2="-368.42" y2="165.39" gradientTransform="translate(521.33)" gradientUnits="userSpaceOnUse"><stop offset="0.21" stop-color="#fff"/><stop offset="0.31" stop-color="#b3b3b3"/><stop offset="0.49" stop-color="#fff"/><stop offset="0.61" stop-color="#999"/><stop offset="0.82" stop-color="#2a2a28"/><stop offset="1"/></linearGradient></defs><path class="cls-1" d="M108.24,132l36.13,1.29s9.15,7.82,7,15.09-12.8,12.79-12.8,12.79l-38,.52Z"/><ellipse class="cls-2" cx="50.5" cy="122.69" rx="128.5" ry="33" transform="matrix(0.31, -0.95, 0.95, 0.31, -81.77, 132.97)"/><circle class="cls-3" cx="67.19" cy="131.76" r="23.5"/><path class="cls-4" d="M90.5.19c.66-.5,9.53,9.84,12,13,16.3,20.81,36.44,89.45,4,156-26.31,54-72.15,75.69-86,76-1.53,0-10.92,0-11-1,0-.55,2.76-.9,7-3a40.18,40.18,0,0,0,5-3,119.58,119.58,0,0,0,20-17c4.92-5.46,9.32-12.06,20-36,4.14-9.27,9.36-21.45,15-36,5.38-16.33,9.32-30.08,12-40,0,0,15.54-57.37,10-88a63.38,63.38,0,0,0-2-8C93.81,5.17,90.07.52,90.5.19Z"/></svg>