<svg id="Layer_1" data-name="Layer 1" xmlns="http://www.w3.org/2000/svg" xmlns:xlink="http://www.w3.org/1999/xlink" viewBox="0 0 151.67 245.38"><defs><style>.cls-1{fill:none;}.cls-2{clip-path:url(#clip-path);}.cls-3{fill:url(#linear-gradient);}.cls-4{fill:url(#linear-gradient-2);}.cls-5{fill:url(#linear-gradient-3);}.cls-6{fill:url(#linear-gradient-4);}.cls-7{fill:#5eea1c;opacity:0.51;}</style><clipPath id="clip-path"><path class="cls-1" d="M144.37,132.92,119.44,132c12.19-53.5-3.65-102.26-16.94-119.23-1.24-1.59-4.11-5-6.74-7.94a12.4,12.4,0,0,0-3.54-3.77C91.3.2,90.66-.32,90.5-.2s0,.2.08.43L90.06,0C72.72-5.57,41,44.62,19.1,112.14S-6.39,239,11,244.56a9.63,9.63,0,0,0,5,.18c2,.07,3.94.07,4.56.06,13.85-.31,59.69-22,86-76,1.24-2.54,2.39-5.07,3.47-7.61l28.57-.39s10.6-5.49,12.8-12.79S144.37,132.92,144.37,132.92Z"/></clipPath><linearGradient id="linear-gradient" x1="-438.46" y1="130.21" x2="-355.84" y2="164.86" gradientTransform="translate(524.5 0.89) rotate(-0.19)" gradientUnits="userSpaceOnUse"><stop offset="0"/><stop offset="0.36" stop-color="#4d4d4d"/><stop offset="0.52" stop-color="#b3b3b3"/><stop offset="0.64" stop-color="#fff"/><stop offset="0.75" stop-color="#999"/><stop offset="1" stop-color="#fff"/></linearGradient><linearGradient id="linear-gradient-2" x1="-530.29" y1="97.75" x2="-406.29" y2="149.75" gradientTransform="translate(312.16 532.89) rotate(72.07)" gradientUnits="userSpaceOnUse"><stop offset="0.02" stop-color="#fff"/><stop offset="0.25" stop-color="#f4f4f4"/><stop offset="0.43" stop-color="#b3b3b3"/><stop offset="0.61" stop-color="#999"/></linearGradient><linearGradient id="linear-gradient-3" x1="64.03" y1="-2752.48" x2="111.03" y2="-2752.48" gradientTransform="translate(814.05 -2518.9) rotate(-166.09)" gradientUnits="userSpaceOnUse"><stop offset="0" stop-color="#4d4d4d"/><stop offset="0.53" stop-color="#b3b3b3"/><stop offset="1" stop-color="#fff"/></linearGradient><linearGradient id="linear-gradient-4" x1="-512.39" y1="105.02" x2="-368.42" y2="165.39" gradientTransform="translate(521.33)" gradientUnits="userSpaceOnUse"><stop offset="0.21" stop-color="#fff"/><stop offset="0.31" stop-color="#b3b3b3"/><stop offset="0.49" stop-color="#fff"/><stop offset="0.61" stop-color="#999"/><stop offset="0.82" stop-color="#2a2a28"/><stop offset="1"/></linearGradient></defs><g class="cls-2"><path class="cls-3" d="M108.24,132l36.13,1.29s9.15,7.82,7,15.09-12.8,12.79-12.8,12.79l-38,.52Z"/><ellipse class="cls-4" cx="50.5" cy="122.69" rx="128.5" ry="33" transform="matrix(0.31, -0.95, 0.95, 0.31, -81.77, 132.97)"/><circle class="cls-5" cx="67.19" cy="131.76" r="23.5"/><path class="cls-6" d="M90.5.19c.66-.5,9.53,9.84,12,13,16.3,20.81,36.44,89.45,4,156-26.31,54-72.15,75.69-86,76-1.53,0-10.92,0-11-1,0-.55,2.76-.9,7-3a40.18,40.18,0,0,0,5-3,119.58,119.58,0,0,0,20-17c4.92-5.46,9.32-12.06,20-36,4.14-9.27,9.36-21.45,15-36,5.38-16.33,9.32-30.08,12-40,0,0,15.54-57.37,10-88a63.38,63.38,0,0,0-2-8C93.81,5.17,90.07.52,90.5.19Z"/><rect class="cls-7" x="-10.83" y="-1.81" width="167" height="255"/></g></svg>