<svg xmlns="http://www.w3.org/2000/svg" xmlns:xlink="http://www.w3.org/1999/xlink" viewBox="0 0 488 637.15117"><defs><style>.a{fill:#5b5b5b;}.b{fill:#3f3f3f;}.c{fill:#303030;}.d{fill:#3f465b;}.e{fill:#c4c4c4;}.f{fill:url(#a);}.g{fill:url(#b);}.h{fill:url(#c);}.i{fill:url(#d);}.j{fill:url(#e);}.k{fill:url(#f);}.l{fill:url(#g);}.m{fill:url(#h);}.n{fill:url(#i);}.o{fill:url(#j);}.p{fill:url(#k);}.q{fill:url(#l);}.r{fill:url(#m);}.s{fill:url(#n);}.t{fill:#aeafaf;}.u{fill:#9e9e9e;}.v{fill:url(#o);}.w{fill:url(#p);}</style><linearGradient id="a" x1="467.63136" y1="765.84251" x2="617.52137" y2="702.99252" gradientTransform="translate(193.72894 -336.86779) rotate(45) scale(1.00409 0.55154)" gradientUnits="userSpaceOnUse"><stop offset="0.16" stop-color="#4d4d4d"/><stop offset="0.37" stop-color="#aaa"/><stop offset="0.58" stop-color="#f9f9f9"/><stop offset="0.67" stop-color="#999"/><stop offset="0.77" stop-color="#fff"/><stop offset="1" stop-color="#fff"/></linearGradient><linearGradient id="b" x1="554.18077" y1="628.38675" x2="714.8607" y2="561.00675" gradientTransform="matrix(-0.71, 0.71, 0.37, 0.37, 521.43419, -334.0348)" xlink:href="#a"/><linearGradient id="c" x1="425.35375" y1="670.37303" x2="604.08374" y2="595.42302" gradientTransform="matrix(-0.87, 0.5, 0.2, 0.35, 609.30978, -227.07174)" xlink:href="#a"/><linearGradient id="d" x1="449.15904" y1="622.80314" x2="613.25902" y2="553.98314" gradientTransform="matrix(0.87, 0.5, -0.22, 0.38, -39.48674, -238.13627)" xlink:href="#a"/><linearGradient id="e" x1="56.27152" y1="-62.26678" x2="254.38151" y2="-145.3468" gradientTransform="matrix(0.97, 0.24, 0.24, -0.98, 144.61375, 121.70933)" gradientUnits="userSpaceOnUse"><stop offset="0"/><stop offset="0.36" stop-color="#4d4d4d"/><stop offset="0.52" stop-color="#b3b3b3"/><stop offset="0.64" stop-color="#fff"/><stop offset="0.75" stop-color="#999"/><stop offset="1" stop-color="#fff"/></linearGradient><linearGradient id="f" x1="20.53257" y1="120.73433" x2="194.82255" y2="47.64433" gradientTransform="matrix(0.98252, -0.18618, -0.18618, -0.98252, 231.07426, 363.57556)" gradientUnits="userSpaceOnUse"><stop offset="0"/><stop offset="0.28" stop-color="#4d4d4d"/><stop offset="0.37" stop-color="#aaa"/><stop offset="0.58" stop-color="#f9f9f9"/><stop offset="0.67" stop-color="#999"/><stop offset="0.77" stop-color="#fff"/><stop offset="1" stop-color="#fff"/></linearGradient><linearGradient id="g" x1="440.60843" y1="842.20067" x2="628.75845" y2="763.30066" gradientTransform="matrix(0, 1, -0.55, 0, 694.35398, -182.20372)" xlink:href="#a"/><linearGradient id="h" x1="576.26229" y1="624.01285" x2="764.4122" y2="545.10288" gradientTransform="matrix(-1, 0, 0, 0.53, 936.36793, 38.18375)" xlink:href="#a"/><linearGradient id="i" x1="441.61907" y1="650.20169" x2="629.7691" y2="571.30172" gradientTransform="matrix(-1, 0, 0, 0.4, 807.89826, 9.20934)" xlink:href="#a"/><linearGradient id="j" x1="414.07474" y1="669.89824" x2="602.22478" y2="590.98824" gradientTransform="matrix(0, 1.00344, -0.43148, 0, 531.94994, -249.5905)" xlink:href="#a"/><linearGradient id="k" x1="35.13701" y1="-87.12248" x2="223.28698" y2="-166.0225" gradientTransform="matrix(0, 1, 1.02, 0, 359.80601, 154.15553)" xlink:href="#e"/><linearGradient id="l" x1="-10.54107" y1="108.25177" x2="177.60894" y2="29.35178" gradientTransform="matrix(1, 0, 0, -1, 216.56157, 349.97669)" xlink:href="#f"/><linearGradient id="m" x1="252.93496" y1="130.42805" x2="335.55496" y2="95.77805" gradientTransform="matrix(0.99999, -0.00332, -0.00332, -0.99999, 0.46902, 263.79606)" xlink:href="#e"/><linearGradient id="n" x1="157.51545" y1="164.53253" x2="281.51544" y2="112.53253" gradientTransform="matrix(0.30785, 0.95143, 0.95143, -0.30785, 17.43431, -40.7829)" gradientUnits="userSpaceOnUse"><stop offset="0.02" stop-color="#fff"/><stop offset="0.25" stop-color="#f4f4f4"/><stop offset="0.43" stop-color="#b3b3b3"/><stop offset="0.61" stop-color="#999"/></linearGradient><linearGradient id="o" x1="6.83368" y1="777.8008" x2="53.84471" y2="777.8008" gradientTransform="matrix(-0.97067, -0.2404, -0.2404, 0.97067, 450.11093, -615.97676)" gradientUnits="userSpaceOnUse"><stop offset="0" stop-color="#4d4d4d"/><stop offset="0.53" stop-color="#b3b3b3"/><stop offset="1" stop-color="#fff"/></linearGradient><linearGradient id="p" x1="175.44129" y1="157.32441" x2="319.40138" y2="96.95438" gradientTransform="matrix(1, 0, 0, -1, 0, 262.30235)" gradientUnits="userSpaceOnUse"><stop offset="0.21" stop-color="#fff"/><stop offset="0.31" stop-color="#b3b3b3"/><stop offset="0.49" stop-color="#fff"/><stop offset="0.61" stop-color="#999"/><stop offset="0.82" stop-color="#2a2a28"/><stop offset="1"/></linearGradient></defs><polygon class="a" points="488 567.151 0 564.431 131 338.151 488 338.151 488 567.151"/><rect class="b" x="131" y="254.15117" width="326" height="84"/><polygon class="c" points="131 338.151 0 565.461 0.13 479.491 131.12 253.861 131 338.151"/><rect class="d" y="479.15117" width="473" height="158"/><polygon class="e" points="348 420.151 167 420.151 202 358.701 366.46 358.701 348 420.151"/><polygon class="f" points="322.73 288.901 327.05 293.331 248.28 371.871 244.06 368.131 322.73 288.901"/><polygon class="g" points="260.07 290.731 256.13 295.011 337 372.581 341.03 368.971 260.07 290.731"/><polygon class="h" points="277.83 203.011 272.31 206.641 321.08 292.171 326.36 289.141 277.83 203.011"/><polygon class="i" points="303.45 200.181 309.27 203.891 263.12 294.901 257.7 291.771 303.45 200.181"/><polygon class="j" points="243.3 373.161 248.76 374.511 290.43 143.031 283.57 141.051 243.3 373.161"/><polygon class="k" points="336.89 377.231 342.38 376.381 299.07 143.021 292.23 144.551 336.89 377.231"/><rect class="l" x="181.70077" y="344.98934" width="140.44" height="7" transform="translate(-172.63329 280.20505) rotate(-45)"/><rect class="m" x="268.18793" y="282.1969" width="7" height="134.11999" transform="translate(-167.38637 294.40735) rotate(-45)"/><rect class="n" x="271.08132" y="202.62377" width="7" height="102.56998" transform="translate(-90.16746 171.30798) rotate(-30)"/><rect class="o" x="203.82711" y="253.00802" width="110.83041" height="7.02411" transform="translate(-92.34043 353.46696) rotate(-60.11347)"/><rect class="p" x="103.40538" y="274.83335" width="258.89996" height="7" transform="translate(-93.29357 437.44949) rotate(-76.09)"/><rect class="q" x="292.74778" y="152.06138" width="7" height="255" transform="translate(-46.86928 60.04374) rotate(-10.73)"/><path class="r" d="M274.74,131.98116l36.12,1.29s9.16,7.82,7,15.09-12.86,12.79-12.86,12.79l-38,.52Z"/><ellipse class="s" cx="217.04844" cy="122.68734" rx="128.5" ry="33" transform="translate(33.5002 291.42457) rotate(-72.07)"/><rect class="t" x="167" y="420.15117" width="181" height="24"/><polygon class="u" points="366.46 374.511 348 444.151 348 420.151 366.46 358.701 366.46 374.511"/><circle class="v" cx="233.68005" cy="131.72118" r="23.5"/><path class="w" d="M257,.15117c.65-.5,9.53,9.85,12,13,16.30005,20.82,36.43,89.45,4,156-26.31006,54-72.15,75.69-86,76-1.54,0-10.92,0-11-1,0-.54,2.76-.9,7-3a39.00593,39.00593,0,0,0,5-3,120.08853,120.08853,0,0,0,20-17c4.91-5.46,9.31006-12.06,20-36,4.14-9.27,9.35-21.45,15-36,5.38-16.33,9.31006-30.08,12-40,0,0,15.53-57.37,10-88a63.3862,63.3862,0,0,0-2-8C260.31006,5.15117,256.57.48118,257,.15117Z"/></svg>